<svg width="40" height="40" viewBox="0 0 40 40" fill="none" xmlns="http://www.w3.org/2000/svg">
<path d="M36.8897 1.54167C36.8911 0.690548 37.5802 0.00144577 38.4313 0C39.2829 0.00144577 39.9715 0.690548 39.9735 1.54167C39.9715 2.25922 39.4811 2.86296 38.8171 3.03415L38.8171 26.6371C38.8171 27.0581 38.6628 27.4303 38.3653 27.7274L27.7004 38.3918L27.155 37.8464L37.8199 27.1815C37.9727 27.0287 38.046 26.8522 38.046 26.6361L38.046 3.03415C37.381 2.862 36.8911 2.25922 36.8897 1.54167ZM9.31367 31.0596C8.97178 31.061 8.69884 31.334 8.69691 31.6763C8.69884 32.0182 8.97178 32.2912 9.31367 32.2931C9.60205 32.2912 9.84171 32.0963 9.91067 31.8297L25.6548 31.8297C26.382 31.8258 26.9616 31.2457 26.966 30.519V27.5586C26.966 27.0065 27.4164 26.5561 27.968 26.5561H31.2992C32.0259 26.5522 32.6056 25.9721 32.6099 25.2454V9.23459C32.8766 9.16563 33.0714 8.92645 33.0729 8.63808C33.0714 8.29618 32.798 8.02276 32.4561 8.02131C32.1142 8.02276 31.8413 8.29618 31.8393 8.63808C31.8413 8.92645 32.0361 9.16563 32.3023 9.23459V25.2454C32.3023 25.7975 31.8519 26.2479 31.3002 26.2479H27.969C27.2423 26.2523 26.6626 26.8319 26.6583 27.5586V30.519C26.6583 31.0711 26.2079 31.5215 25.6558 31.5215L9.91067 31.5215C9.84171 31.2554 9.60205 31.061 9.31367 31.0596ZM1.54215 36.9162C0.691027 36.9176 0.0019289 37.6067 0 38.4578C0.0019289 39.3095 0.691027 39.9986 1.54215 40C2.2597 39.9986 2.86296 39.5076 3.03464 38.8436L26.6106 38.8436C27.0315 38.8436 27.4029 38.6893 27.7004 38.3918L27.155 37.8464L27.1458 37.8565C26.9944 38.0036 26.8213 38.0726 26.6106 38.0726L3.03464 38.0726C2.862 37.4076 2.2597 36.9176 1.54215 36.9162Z" fill="#A2B9DF"/>
<path d="M21.6568 5.41324H19.9868V3.01324H13.9868V5.41324H12.3168C11.9641 5.41324 11.6258 5.58139 11.3764 5.8807C11.1269 6.18001 10.9868 6.58596 10.9868 7.00924V25.4172C10.9868 26.2932 11.5868 27.0132 12.3168 27.0132H21.6568C22.0096 27.0132 22.3478 26.8451 22.5973 26.5458C22.8467 26.2465 22.9868 25.8405 22.9868 25.4172V7.00924C22.9868 6.13324 22.3868 5.41324 21.6568 5.41324Z" fill="#A2B9DF"/>
</svg>
