<svg width="310" height="186" viewBox="0 0 310 186" fill="none" xmlns="http://www.w3.org/2000/svg">
<path d="M107.477 0.308464C105.175 0.795486 103.66 2.20362 103.095 4.36346C103.007 4.71285 102.962 29.9216 103.04 34.6436C103.073 36.4012 103.128 37.0047 103.317 37.8199C103.582 38.9316 104.202 40.6679 104.611 41.4302C104.755 41.7055 104.832 41.949 104.799 41.9914C104.755 42.0231 104.788 42.0549 104.866 42.0549C104.943 42.0549 104.976 42.0972 104.943 42.1502C104.899 42.2031 104.921 42.2666 104.976 42.2878C105.087 42.3302 108.672 48.2591 108.638 48.365C108.627 48.4074 108.672 48.4709 108.727 48.5026C108.793 48.5344 109.7 49.9955 110.741 51.7424C111.792 53.4893 112.699 54.9822 112.765 55.0457C112.821 55.1198 112.832 55.1833 112.776 55.1833C112.721 55.1833 112.732 55.2257 112.798 55.268C112.865 55.3104 113.584 56.4327 114.392 57.7773C115.199 59.1113 116.051 60.5194 116.273 60.9006C116.505 61.2817 116.693 61.6311 116.693 61.6841C116.693 61.737 116.748 61.8111 116.804 61.8429C116.87 61.8746 117.147 62.2134 117.445 62.5946C119.492 65.2732 122.701 67.4119 126.064 68.3436C128.543 69.0318 126.319 68.9894 156.988 68.9894L184.814 69L186.142 68.7459C189.837 68.0577 192.382 66.7555 194.993 64.2462C195.79 63.4839 196.42 62.8275 196.398 62.7852C196.387 62.7322 196.454 62.6687 196.542 62.6369C196.631 62.5946 196.708 62.5099 196.708 62.4252C196.708 62.3511 196.808 62.2346 196.929 62.1711C197.051 62.1076 197.129 62.0123 197.095 61.9699C197.062 61.917 197.117 61.8429 197.217 61.8111C197.306 61.7793 197.35 61.7052 197.317 61.6417C197.283 61.5888 197.294 61.5358 197.35 61.5358C197.405 61.5358 197.449 61.4723 197.449 61.3982C197.449 61.3347 198.357 59.7677 199.474 57.9361C200.592 56.1045 202.318 53.2458 203.313 51.5836C204.309 49.932 205.183 48.545 205.238 48.5026C205.305 48.4709 205.349 48.4074 205.338 48.365C205.316 48.3015 206.079 47.0098 208.392 43.1666C208.735 42.5842 209.067 42.0866 209.122 42.076C209.166 42.0549 209.188 41.9914 209.155 41.949C209.122 41.8961 209.255 41.5467 209.443 41.1867C209.874 40.3715 210.383 38.9739 210.605 37.9787C210.981 36.2953 211.025 35.4801 210.936 32.0815C210.903 31.2239 210.925 30.4934 210.959 30.4722C211.003 30.451 211.014 24.5326 210.981 17.3119L210.925 4.20465L210.671 3.64352C209.974 2.07657 208.934 1.10252 207.33 0.509621L206.721 0.287285L157.209 0.276695C129.981 0.266113 107.598 0.276695 107.477 0.308464ZM108.373 0.52021C108.362 0.668434 108.196 0.731956 107.643 0.827248C106.791 0.964882 105.828 1.38838 105.22 1.89658C104.345 2.60594 103.549 4.09878 103.549 5.01989C103.549 5.33751 103.505 5.42221 103.339 5.42221C103.162 5.42221 103.14 5.35868 103.184 4.91401C103.294 3.83409 104.08 2.32008 104.877 1.67425C105.684 1.02841 106.724 0.583733 107.753 0.446098C108.085 0.403748 108.373 0.361397 108.373 0.350807C108.384 0.350807 108.384 0.424919 108.373 0.52021ZM122.026 0.499039C122.026 0.583733 122.081 0.657845 122.136 0.657845C122.203 0.657845 122.247 0.583733 122.247 0.499039C122.247 0.361397 122.524 0.340225 124.039 0.340225C125.024 0.340225 125.799 0.361397 125.777 0.382576C125.754 0.403748 125.234 0.456688 124.626 0.499039C124.017 0.5308 123.176 0.615494 122.745 0.668434C122.325 0.710785 118.95 0.763725 115.255 0.763725C108.605 0.763725 108.528 0.763725 108.528 0.551971C108.528 0.340225 108.605 0.340225 115.277 0.340225C121.207 0.340225 122.026 0.361397 122.026 0.499039ZM128.144 0.414337C128.067 0.435509 127.934 0.435509 127.868 0.414337C127.79 0.382576 127.846 0.361397 128 0.361397C128.155 0.361397 128.211 0.382576 128.144 0.414337ZM130.434 0.541382C130.434 0.710785 130.313 0.742546 129.417 0.795486C124.737 1.08134 120.355 3.49529 117.6 7.30678C117.014 8.13261 116.992 8.17495 117.147 8.17495C117.202 8.17495 117.512 7.78322 117.833 7.30678C118.64 6.13157 120.499 4.35287 121.749 3.57999C124.305 1.9707 127.37 0.975471 129.737 0.975471H130.434V6.5339C130.434 11.8276 130.423 12.0923 130.235 12.0923C130.125 12.0923 129.715 12.1982 129.328 12.3252C128.764 12.5052 128.476 12.6852 127.934 13.1934L127.237 13.8393L122.225 11.0653C119.47 9.53015 117.08 8.22789 116.925 8.15378L116.627 8.02673L117.301 7.07386C118.187 5.81395 120.134 3.95055 121.417 3.12473C123.829 1.58955 126.352 0.689613 128.941 0.446098C130.412 0.319046 130.434 0.319046 130.434 0.541382ZM183.298 0.52021C183.265 0.700195 181.904 0.710785 156.955 0.742546C130.711 0.763725 130.656 0.763725 130.656 0.551971C130.656 0.340225 130.722 0.340225 156.999 0.340225C182.026 0.340225 183.332 0.350807 183.298 0.52021ZM186.496 0.668434C189.682 1.26133 192.459 2.70123 194.827 4.98812C196.243 6.3645 197.416 7.91027 197.151 8.06908C197.062 8.12202 196.985 8.15378 196.974 8.14319C196.963 8.13261 196.697 7.76204 196.387 7.32796C194.307 4.42699 191.265 2.30949 187.857 1.36721C186.607 1.01782 185.002 0.763725 184.073 0.763725H183.321V6.42802V12.0923H156.966H130.6L130.634 6.48096L130.656 0.869598H156.911C184.239 0.859009 183.542 0.869598 183.542 0.456688C183.542 0.287285 185.024 0.393158 186.496 0.668434ZM186.12 0.414337C186.042 0.435509 185.91 0.435509 185.843 0.414337C185.766 0.382576 185.821 0.361397 185.976 0.361397C186.131 0.361397 186.186 0.382576 186.12 0.414337ZM191.729 0.499039C191.729 0.583733 191.785 0.657845 191.84 0.657845C191.906 0.657845 191.951 0.583733 191.951 0.499039C191.951 0.361397 192.769 0.340225 198.7 0.340225C204.63 0.340225 205.449 0.361397 205.449 0.499039C205.449 0.583733 205.504 0.657845 205.559 0.657845C205.626 0.657845 205.67 0.604912 205.67 0.551971C205.67 0.371986 206.478 0.435509 207.164 0.657845C207.894 0.90136 208.58 1.26133 209.1 1.67425C209.896 2.32008 210.682 3.83409 210.793 4.91401C210.837 5.35868 210.815 5.42221 210.638 5.42221C210.472 5.42221 210.427 5.33751 210.427 5.01989C210.427 3.87644 209.421 2.24597 208.281 1.56837C206.964 0.774307 207.606 0.827248 198.81 0.742546C193.123 0.689613 190.512 0.626083 189.516 0.52021L188.133 0.371986L189.937 0.350807C191.464 0.340225 191.729 0.361397 191.729 0.499039ZM186.607 0.509621C186.573 0.541382 186.474 0.551971 186.396 0.52021C186.308 0.488449 186.341 0.456688 186.463 0.456688C186.584 0.446098 186.651 0.477859 186.607 0.509621ZM126.728 0.668434C125.777 0.88018 124.471 1.34603 123.409 1.85423C121.672 2.68005 120.444 3.53764 119.005 4.91401C117.799 6.06805 117.49 6.30097 117.49 6.07864C117.49 6.03629 117.346 5.90923 117.158 5.81395C116.815 5.61279 116.693 5.71866 116.992 5.95158C117.313 6.20568 117.036 6.26921 116.582 6.04687C116.195 5.8563 116.151 5.80336 116.306 5.71866C116.416 5.66572 116.549 5.65514 116.616 5.69749C116.693 5.73983 116.715 5.69749 116.671 5.55985C116.616 5.39045 116.826 5.11517 117.667 4.26817C118.828 3.09296 120.101 2.09774 121.373 1.36721L122.192 0.89077L123.907 0.731956C124.847 0.647263 125.976 0.583733 126.396 0.573151C127.115 0.573151 127.137 0.583733 126.728 0.668434ZM189.793 0.721375L191.785 0.89077L192.603 1.36721C193.865 2.09774 195.115 3.07179 196.343 4.29994L197.472 5.42221L197.007 5.70807C196.752 5.8563 196.531 6.0257 196.509 6.06805C196.42 6.26921 196.232 6.12098 194.96 4.91401C193.522 3.52705 192.294 2.68005 190.568 1.85423C189.505 1.34603 188.2 0.88018 187.248 0.668434L186.806 0.573151L187.304 0.562561C187.58 0.551971 188.698 0.626083 189.793 0.721375ZM120.908 1.40956C119.315 2.3942 118.032 3.4847 116.804 4.88225L116.394 5.33751L114.071 4.05643C112.787 3.34707 111.504 2.66946 111.205 2.55301C110.453 2.23538 109.07 2.16127 108.295 2.40478C106.769 2.88122 105.607 4.02467 105.208 5.45397C104.976 6.29038 105.109 7.57147 105.518 8.34435C106.138 9.51957 106.636 9.87954 110.486 11.997C111.349 12.4629 111.714 12.717 111.681 12.8229C111.615 12.9711 104.246 25.2314 103.87 25.8031C103.66 26.1207 103.66 25.9407 103.693 15.3744L103.715 4.62815L103.958 4.02467C104.611 2.38361 106.116 1.2084 107.809 0.996643C108.174 0.9543 111.426 0.933121 115.033 0.9543L121.616 0.975471L120.908 1.40956ZM185.987 1.14487C188.1 1.48367 190.202 2.30949 192.227 3.5694C193.488 4.36346 195.259 6.05746 196.144 7.30678L196.808 8.25965L191.774 11.0547L186.739 13.8393L186.042 13.1828C185.456 12.6429 185.224 12.4946 184.593 12.3147C184.184 12.1876 183.785 12.0923 183.697 12.0923C183.564 12.0923 183.542 11.2136 183.542 6.5339V0.975471H184.239C184.626 0.975471 185.412 1.04958 185.987 1.14487ZM207.451 1.35662C208.679 1.91776 209.531 2.80711 210.018 4.02467L210.262 4.62815L210.284 15.3744C210.317 25.9407 210.317 26.1207 210.107 25.8031C209.719 25.2208 202.362 12.9711 202.295 12.8229C202.262 12.7276 202.484 12.5476 202.937 12.2935C203.313 12.0817 204.331 11.5206 205.194 11.0442C206.61 10.2607 206.765 10.1548 206.666 9.96424C206.566 9.79484 206.655 9.66779 207.197 9.149C207.673 8.69374 207.905 8.36553 208.093 7.88909C208.392 7.12679 208.469 5.941 208.237 5.49632C208.159 5.33751 208.126 5.15752 208.159 5.10459C208.193 5.04106 208.17 4.99871 208.104 4.99871C208.038 4.99871 208.016 4.94578 208.049 4.89284C208.082 4.82932 208.06 4.78696 207.993 4.78696C207.927 4.78696 207.894 4.74461 207.927 4.69167C207.971 4.63874 207.96 4.57521 207.916 4.55404C207.861 4.54345 207.75 4.37405 207.661 4.20465C207.562 4.02467 207.44 3.9082 207.396 3.91879C207.341 3.93996 207.263 3.91879 207.23 3.85526C207.075 3.63293 206.168 3.09296 205.692 2.94474C205.073 2.75417 203.811 2.65888 203.568 2.78593C203.114 3.02944 202.572 3.17767 202.506 3.08238C202.428 2.95533 202.417 2.95533 202.893 2.7224C203.125 2.61653 203.645 2.51066 204.176 2.47889C205.205 2.42596 205.935 2.59535 206.776 3.10355C207.462 3.51646 207.794 3.87644 208.237 4.6705C208.591 5.32692 208.602 5.40104 208.602 6.52331C208.602 7.65617 208.591 7.71969 208.226 8.36553C208.016 8.73609 207.595 9.24429 207.296 9.50898C206.71 10.0172 206.644 10.2607 207.208 9.85836C207.661 9.54074 208.126 8.96902 208.491 8.28083C208.867 7.58205 208.989 6.25862 208.768 5.45397C208.359 3.98232 207.186 2.86004 205.515 2.35184C204.907 2.16127 203.435 2.26714 202.771 2.55301C202.472 2.66946 201.189 3.34707 199.906 4.05643L197.582 5.33751L197.173 4.88225C195.945 3.4847 194.661 2.3942 193.057 1.40956L192.349 0.964882L199.54 0.996643L206.721 1.02841L207.451 1.35662ZM111.072 2.7224C111.559 2.95533 111.548 2.95533 111.471 3.08238C111.426 3.1459 111.15 3.09296 110.763 2.94474C109.944 2.6377 108.915 2.68005 107.941 3.08238C107.443 3.29413 106.127 4.34229 106.171 4.49052C106.193 4.53286 106.149 4.57521 106.083 4.57521C106.027 4.57521 106.005 4.61756 106.038 4.68109C106.071 4.73402 106.049 4.78696 105.983 4.78696C105.917 4.78696 105.894 4.82932 105.928 4.89284C105.961 4.94578 105.95 4.99871 105.883 4.99871C105.817 4.99871 105.795 5.07282 105.828 5.15752C105.872 5.24223 105.85 5.31634 105.795 5.31634C105.662 5.31634 105.651 5.45397 105.64 6.5339C105.64 7.61382 105.972 8.35494 106.824 9.17018C107.388 9.72073 107.554 9.97483 107.322 9.97483C107.078 9.97483 106.094 8.96902 105.751 8.36553C105.386 7.71969 105.374 7.65617 105.374 6.52331C105.374 5.40104 105.386 5.32692 105.74 4.6705C106.171 3.87644 106.414 3.61176 107.067 3.17767C107.897 2.62712 108.572 2.45772 109.689 2.50007C110.364 2.52124 110.807 2.59535 111.072 2.7224ZM110.906 3.13531C111.139 3.23061 111.305 3.33648 111.261 3.36824C111.227 3.4 111.039 3.34707 110.829 3.24119C110.298 2.9765 108.97 2.9765 108.207 3.25178C107.466 3.51646 106.514 4.37405 106.182 5.08341C106.005 5.46456 105.939 5.79277 105.939 6.48096C105.939 7.55029 106.16 8.11143 106.879 8.86314C107.355 9.36075 107.742 9.59368 111.504 11.6582C112.688 12.3041 113.595 12.8334 113.518 12.8334C113.44 12.8334 113.418 12.8758 113.451 12.9393C113.484 12.9923 113.462 13.0452 113.407 13.0452C113.341 13.0452 113.285 13.1299 113.274 13.2252C113.274 13.3416 113.241 13.3628 113.208 13.2781C113.186 13.2146 113.108 13.1511 113.053 13.1511C112.898 13.1511 112.068 12.6323 112.079 12.537C112.112 12.3464 112.057 12.2617 111.969 12.3888C111.836 12.5899 107.532 10.2183 107.532 9.94306C107.532 9.78425 107.598 9.79484 108.063 10.0489C108.351 10.2183 109.546 10.8642 110.718 11.51C112.19 12.3147 112.843 12.7276 112.843 12.8546C112.843 12.9605 112.898 13.0452 112.964 13.0452C113.031 13.0452 113.064 12.9711 113.02 12.8864C112.987 12.8017 113.02 12.7276 113.097 12.7276C113.219 12.7276 112.289 12.1982 110.63 11.3194C110.298 11.15 109.944 10.9383 109.844 10.8642C109.756 10.7795 109.645 10.716 109.612 10.716C109.568 10.716 109.18 10.5148 108.727 10.2713C106.558 9.08548 105.917 8.32318 105.795 6.74564C105.751 6.15275 105.784 5.87747 105.983 5.36927C106.116 5.01989 106.226 4.64932 106.237 4.55404C106.249 4.45875 106.282 4.38464 106.315 4.39523C106.348 4.40582 106.591 4.20465 106.868 3.95055C107.355 3.49529 108.008 3.1459 108.694 2.9765C109.18 2.84946 110.42 2.94474 110.906 3.13531ZM205.947 3.18826C206.223 3.30472 206.633 3.54823 206.854 3.71763C207.075 3.89761 207.296 4.01408 207.341 3.98232C207.385 3.96114 207.462 3.9929 207.507 4.05643C207.551 4.14113 207.54 4.15171 207.462 4.10937C207.263 3.9929 207.307 4.09878 207.606 4.53286C208.259 5.45397 208.381 6.90446 207.894 7.99497C207.673 8.48199 206.688 9.55133 206.456 9.55133C206.389 9.55133 206.588 9.32899 206.887 9.0643C207.197 8.78903 207.573 8.30201 207.739 7.97379C208.004 7.4656 208.049 7.25385 208.038 6.48096C208.038 5.80336 207.971 5.45397 207.794 5.07282C207.462 4.37405 206.511 3.51646 205.77 3.25178C205.006 2.9765 203.678 2.9765 203.147 3.24119C202.937 3.34707 202.749 3.4 202.716 3.37883C202.638 3.29413 203.048 3.10355 203.535 2.98709C204.154 2.83887 205.36 2.94474 205.947 3.18826ZM116.261 5.49632C116.295 5.5175 116.261 5.58102 116.195 5.64455C116.107 5.72925 115.421 5.39045 113.794 4.5011C112.19 3.60117 111.559 3.19884 111.637 3.12473C111.725 3.04003 112.411 3.36824 113.993 4.23641C115.21 4.90343 116.239 5.47515 116.261 5.49632ZM202.439 3.25178C202.417 3.26237 201.399 3.83409 200.16 4.51169C198.39 5.49632 197.881 5.72925 197.759 5.63396C197.637 5.53867 197.737 5.44339 198.29 5.15752C198.666 4.96695 199.695 4.40582 200.58 3.9082C201.731 3.26237 202.229 3.05061 202.329 3.12473C202.406 3.17767 202.45 3.24119 202.439 3.25178ZM111.139 3.60117C111.703 3.87644 116.604 6.55507 116.693 6.63977C116.715 6.66095 116.483 7.0421 116.195 7.50794C115.896 7.9632 115.111 9.2337 114.458 10.3242C113.772 11.4571 113.197 12.3041 113.119 12.2829C113.042 12.2617 111.769 11.5841 110.298 10.7689C106.58 8.71492 106.149 8.27024 106.149 6.48096C106.149 5.70807 106.193 5.50691 106.448 5.04106C106.735 4.51169 107.388 3.86585 107.886 3.61176C108.871 3.10355 110.11 3.10355 111.139 3.60117ZM205.803 3.49529C206.489 3.78115 207.175 4.39523 207.529 5.04106C207.783 5.50691 207.827 5.70807 207.827 6.48096C207.827 8.27024 207.396 8.71492 203.678 10.7689C202.207 11.5841 200.935 12.2617 200.857 12.2829C200.78 12.3041 200.204 11.4571 199.518 10.3242C198.866 9.2337 198.08 7.9632 197.781 7.50794C197.494 7.0421 197.261 6.66095 197.283 6.63977C197.361 6.56566 202.229 3.89761 202.738 3.64352C203.048 3.49529 203.446 3.33648 203.623 3.29413C204.154 3.15649 205.25 3.26237 205.803 3.49529ZM114.237 4.90343C115.719 5.72925 116.936 6.43861 116.936 6.49155C116.936 6.54448 116.804 6.50213 116.638 6.38567C116.461 6.2798 115.31 5.62337 114.06 4.93519C111.681 3.63293 111.294 3.41059 111.449 3.41059C111.493 3.41059 112.754 4.0776 114.237 4.90343ZM202.406 3.55882C201.908 3.88702 197.084 6.51272 196.985 6.51272C196.918 6.51272 196.852 6.59742 196.852 6.7033C196.841 6.80917 196.896 6.8727 196.963 6.84093C197.095 6.79858 197.615 7.48677 197.615 7.69852C197.604 7.98438 197.361 7.7938 196.885 7.11621C196.387 6.41743 196.365 6.3645 196.542 6.1951C196.852 5.89865 197.527 5.59161 197.571 5.72925C197.593 5.79277 197.671 5.81395 197.726 5.78218C197.803 5.73983 197.814 5.76101 197.77 5.82454C197.726 5.89865 197.726 5.95158 197.781 5.95158C197.826 5.95158 198.888 5.37986 200.138 4.68109C201.388 3.98232 202.45 3.41059 202.517 3.41059C202.572 3.41059 202.528 3.47411 202.406 3.55882ZM103.438 15.9567C103.438 25.1573 103.416 26.3854 103.272 26.3854C103.128 26.3854 103.106 25.1573 103.106 15.9567C103.106 6.75623 103.128 5.52809 103.272 5.52809C103.416 5.52809 103.438 6.75623 103.438 15.9567ZM210.87 15.9462C210.87 25.7713 210.859 26.3642 210.682 26.4066C210.494 26.4595 210.483 25.9196 210.516 15.9885C210.538 6.79858 210.56 5.52809 210.704 5.52809C210.848 5.52809 210.87 6.78799 210.87 15.9462ZM117.102 7.11621C116.616 7.78322 116.405 7.95262 116.35 7.71969C116.306 7.56088 116.892 6.79858 117.014 6.84093C117.091 6.8727 117.18 6.85152 117.213 6.79858C117.246 6.75623 117.213 6.69271 117.147 6.67153C117.069 6.65036 117.069 6.54448 117.169 6.34332C117.29 6.08922 117.324 6.06805 117.467 6.20568C117.611 6.34332 117.567 6.4492 117.102 7.11621ZM199.518 10.716C200.448 12.2617 200.569 12.537 200.293 12.5264C200.26 12.5264 199.618 11.51 198.866 10.2713C197.792 8.48199 197.538 8.00555 197.682 7.95262C197.803 7.91027 197.936 8.0479 198.157 8.42905C198.323 8.7255 198.932 9.75249 199.518 10.716ZM116.35 8.22789C116.261 8.34435 115.642 9.38193 114.956 10.5254C114.082 11.9759 113.661 12.5899 113.551 12.5476C113.385 12.4841 113.318 12.6111 115.111 9.63602C115.819 8.45023 116.162 7.98438 116.295 7.99497C116.461 8.00555 116.472 8.03732 116.35 8.22789ZM116.759 8.40788C116.748 8.50317 114.237 12.717 111.183 17.799C106.713 25.1996 105.585 26.9995 105.463 26.9042C105.341 26.7983 105.352 26.7242 105.529 26.4489C105.706 26.1842 110.154 18.7942 115.476 9.94306C116.427 8.36553 116.793 7.92086 116.759 8.40788ZM203.004 17.4072C206.068 22.4892 208.591 26.6713 208.613 26.6924C208.635 26.7136 208.679 26.7136 208.701 26.6924C208.735 26.6713 207.086 23.8868 205.05 20.5094C203.004 17.132 201.189 14.1145 201.012 13.8181C200.802 13.4687 200.735 13.2781 200.835 13.3205C201.012 13.384 201.764 13.0028 201.997 12.7382C202.129 12.5899 202.141 12.5899 202.107 12.7382C202.074 12.8864 209.797 25.8349 210.007 25.9619C210.051 25.9937 209.819 26.1631 209.487 26.3325C209.155 26.5125 208.879 26.6819 208.879 26.7242C208.879 26.8618 209.022 26.8195 209.531 26.5442C210.096 26.2266 210.173 26.2266 210.25 26.4595C210.306 26.6607 210.605 29.6252 210.693 30.938L210.737 31.7321L210.605 31.1498C210.372 30.1546 209.863 28.8099 209.343 27.8147C209.078 27.2853 208.834 26.8407 208.801 26.8089C208.779 26.7877 208.668 26.8195 208.558 26.883C208.37 26.9995 207.85 26.1631 202.793 17.7778C199.729 12.6958 197.206 8.51375 197.184 8.46082C197.129 8.36553 197.239 8.17495 197.35 8.17495C197.405 8.17495 199.939 12.3358 203.004 17.4072ZM122.247 11.2983C124.77 12.6852 126.905 13.8816 126.994 13.9557C127.126 14.0616 126.252 15.5756 121.639 23.2303C118.607 28.2594 116.073 32.4309 116.007 32.4944C115.907 32.6003 114.768 32.0179 110.851 29.8475L105.817 27.0736L111.415 17.7884C114.502 12.6852 116.992 8.47141 116.947 8.42905C116.87 8.33377 116.56 8.16437 122.247 11.2983ZM197.018 8.43964C196.985 8.47141 199.474 12.6852 202.561 17.7884L208.159 27.0736L203.181 29.8158C200.448 31.3298 198.18 32.6003 198.146 32.6532C198.113 32.6955 195.546 28.5347 192.46 23.4103C188.919 17.5555 186.872 14.051 186.939 13.9875C187.038 13.8922 196.94 8.39729 197.029 8.3867C197.051 8.3867 197.051 8.40788 197.018 8.43964ZM206.168 9.7419C206.057 9.83719 201.621 12.2829 201.134 12.5158C200.979 12.5899 200.912 12.6005 200.968 12.537C201.123 12.3888 206.035 9.66779 206.168 9.6572C206.234 9.6572 206.234 9.68896 206.168 9.7419ZM206.422 10.1336C206.411 10.1548 205.438 10.6948 204.265 11.3406C202.948 12.0606 202.074 12.4841 201.964 12.4523C201.853 12.4099 201.798 12.4311 201.82 12.5158C201.842 12.5899 201.687 12.7487 201.477 12.8652C201.123 13.0664 201.112 13.0664 201.156 12.8758C201.211 12.6005 206.378 9.73131 206.422 9.94306C206.444 10.0278 206.444 10.1125 206.422 10.1336ZM130.534 12.3464C130.512 12.3676 130.246 12.4099 129.937 12.4417C129.583 12.4841 129.461 12.4735 129.605 12.4099C129.815 12.3252 130.634 12.2617 130.534 12.3464ZM184.372 12.4099C184.516 12.4735 184.394 12.4841 184.04 12.4417C183.741 12.4099 183.464 12.3676 183.442 12.3464C183.343 12.2617 184.161 12.3252 184.372 12.4099ZM128.886 12.7911C128.609 12.9393 128.211 13.2146 128 13.3946C127.635 13.7122 127.635 13.7122 127.89 13.4263C128.188 13.0981 129.074 12.5158 129.262 12.5158C129.328 12.5158 129.162 12.6429 128.886 12.7911ZM183.94 12.6323C184.681 12.7593 185.323 13.077 185.832 13.5957C186.12 13.8816 196.996 31.7003 197.715 33.0661C198.191 33.9766 198.235 34.9719 197.814 35.8718C197.56 36.4329 186.883 54.1564 186.23 55.1092C185.899 55.5857 185.578 55.9139 185.246 56.0939C184.161 56.7079 185.998 56.6656 156.966 56.6656H130.213L129.505 56.4433C128.974 56.2739 128.653 56.0939 128.288 55.7339C127.912 55.3845 126.352 52.8647 122.07 45.7817C118.928 40.5726 116.25 36.0941 116.129 35.8189C115.786 35.0883 115.808 34.0296 116.184 33.2673C116.339 32.9496 118.961 28.5664 122.004 23.5268C126.805 15.5862 127.978 13.5428 127.259 14.3898C127.115 14.5698 127.115 14.5592 127.226 14.3369C127.292 14.2098 127.392 14.1251 127.458 14.1675C127.514 14.1992 127.768 14.0087 128.011 13.7546C128.576 13.1299 129.118 12.8123 129.881 12.664C130.711 12.4841 182.955 12.4629 183.94 12.6323ZM185.323 12.8229C185.589 12.9817 185.932 13.2569 186.087 13.4263C186.341 13.7122 186.341 13.7122 185.976 13.3946C185.766 13.2146 185.367 12.9393 185.091 12.7911C184.814 12.6429 184.648 12.5158 184.715 12.5158C184.77 12.5158 185.047 12.6535 185.323 12.8229ZM200.923 12.9181C201.045 13.2358 200.857 13.3099 200.569 13.0346C200.381 12.8546 200.359 12.7911 200.481 12.717C200.691 12.5899 200.824 12.6429 200.923 12.9181ZM113.119 13.4687C113.152 13.5216 113.13 13.5746 113.064 13.5746C112.998 13.5746 112.964 13.6169 112.998 13.6593C113.031 13.7122 112.964 13.8498 112.843 13.9663C112.732 14.0934 112.666 14.2204 112.699 14.2522C112.743 14.2839 112.71 14.3157 112.632 14.3157C112.555 14.3157 112.522 14.358 112.555 14.4004C112.588 14.4533 112.522 14.591 112.4 14.7074C112.289 14.8345 112.223 14.9615 112.256 14.9933C112.301 15.0251 112.267 15.0568 112.201 15.0568C112.124 15.0568 112.068 15.1309 112.068 15.2156C112.068 15.3003 112.013 15.3744 111.946 15.3744C111.891 15.3744 111.869 15.4168 111.902 15.4803C111.935 15.5332 111.913 15.5862 111.847 15.5862C111.781 15.5862 111.758 15.6285 111.792 15.6921C111.825 15.745 111.803 15.7979 111.747 15.7979C111.681 15.7979 111.626 15.872 111.626 15.9567C111.626 16.0415 111.57 16.1156 111.504 16.1156C111.449 16.1156 111.426 16.1579 111.46 16.2214C111.493 16.2744 111.471 16.3273 111.404 16.3273C111.338 16.3273 111.305 16.3697 111.338 16.412C111.371 16.4649 111.305 16.6026 111.183 16.719C111.072 16.8461 111.006 16.9731 111.039 17.0049C111.083 17.0367 111.05 17.0684 110.973 17.0684C110.895 17.0684 110.873 17.1214 110.906 17.1743C110.94 17.2378 110.895 17.3119 110.807 17.3437C110.707 17.3755 110.663 17.4496 110.696 17.5025C110.729 17.5555 110.696 17.5978 110.63 17.5978C110.563 17.5978 110.541 17.6402 110.575 17.7037C110.608 17.7566 110.586 17.8096 110.53 17.8096C110.464 17.8096 110.409 17.8837 110.409 17.9684C110.409 18.0531 110.353 18.1272 110.287 18.1272C110.232 18.1272 110.209 18.1695 110.243 18.2331C110.276 18.286 110.254 18.3389 110.187 18.3389C110.121 18.3389 110.088 18.3813 110.121 18.4342C110.154 18.4872 110.11 18.5613 110.01 18.593C109.922 18.6248 109.878 18.6989 109.911 18.7624C109.944 18.8154 109.922 18.8683 109.855 18.8683C109.789 18.8683 109.767 18.9107 109.8 18.9742C109.833 19.0271 109.811 19.0801 109.745 19.0801C109.678 19.0801 109.656 19.133 109.689 19.1859C109.723 19.2495 109.678 19.3236 109.59 19.3553C109.49 19.3871 109.446 19.4612 109.479 19.5141C109.512 19.5671 109.479 19.6094 109.413 19.6094C109.346 19.6094 109.324 19.6518 109.358 19.7153C109.391 19.7682 109.369 19.8212 109.302 19.8212C109.236 19.8212 109.214 19.8741 109.247 19.9271C109.28 19.9906 109.236 20.0647 109.147 20.0965C109.048 20.1282 109.003 20.2023 109.037 20.2553C109.07 20.3082 109.037 20.3506 108.97 20.3506C108.904 20.3506 108.871 20.3929 108.904 20.4458C108.937 20.4988 108.893 20.5729 108.793 20.6047C108.705 20.6364 108.66 20.7105 108.694 20.7741C108.727 20.827 108.705 20.8799 108.638 20.8799C108.572 20.8799 108.55 20.9223 108.583 20.9858C108.616 21.0387 108.594 21.0917 108.528 21.0917C108.461 21.0917 108.428 21.134 108.461 21.187C108.495 21.2399 108.45 21.314 108.351 21.3458C108.262 21.3775 108.218 21.4516 108.251 21.5152C108.284 21.5681 108.262 21.621 108.185 21.621C108.107 21.621 108.085 21.6528 108.118 21.6952C108.163 21.7269 108.107 21.8222 107.997 21.9069C107.875 22.0128 107.864 22.034 107.975 21.9916C108.085 21.9493 108.074 21.9704 107.952 22.0763C107.842 22.161 107.786 22.2563 107.831 22.2881C107.864 22.3304 107.831 22.3622 107.753 22.3622C107.676 22.3622 107.643 22.3939 107.676 22.4363C107.72 22.468 107.665 22.5633 107.554 22.648C107.432 22.7539 107.421 22.7751 107.532 22.7327C107.643 22.6904 107.632 22.7116 107.51 22.8174C107.399 22.9021 107.344 22.9974 107.388 23.0292C107.421 23.0715 107.399 23.1033 107.322 23.1033C107.244 23.1033 107.211 23.1456 107.244 23.1986C107.277 23.2515 107.233 23.3256 107.134 23.3574C107.045 23.3892 107.001 23.4633 107.034 23.5268C107.067 23.5797 107.045 23.6327 106.968 23.6327C106.89 23.6327 106.868 23.6644 106.901 23.7068C106.946 23.7385 106.89 23.8338 106.78 23.9185C106.658 24.0244 106.647 24.0456 106.757 24.0032C106.868 23.9609 106.857 23.9821 106.735 24.0879C106.625 24.1726 106.569 24.2679 106.614 24.2997C106.647 24.342 106.614 24.3738 106.536 24.3738C106.459 24.3738 106.426 24.4056 106.459 24.4479C106.503 24.4797 106.448 24.575 106.337 24.6597C106.215 24.7655 106.204 24.7867 106.315 24.7444C106.403 24.702 106.381 24.7549 106.271 24.8396C106.149 24.9349 106.083 25.009 106.127 25.009C106.171 25.009 106.105 25.1043 105.983 25.2208C105.85 25.3478 105.784 25.4855 105.817 25.5384C105.861 25.6019 105.828 25.6443 105.751 25.6443C105.673 25.6443 105.64 25.6761 105.673 25.7078C105.717 25.7396 105.651 25.856 105.529 25.9725C105.408 26.089 105.341 26.2266 105.374 26.2795C105.419 26.3431 105.386 26.3854 105.319 26.3854C105.253 26.3854 105.231 26.4278 105.264 26.4913C105.297 26.5442 105.275 26.5972 105.197 26.5972C105.12 26.5972 105.098 26.6289 105.131 26.6607C105.164 26.703 105.087 26.9254 104.932 27.1689C104.511 27.8677 103.87 29.4346 103.538 30.5675C103.239 31.6156 103.228 31.6156 103.283 30.991C103.416 29.244 103.671 26.6289 103.726 26.4595C103.803 26.216 103.914 26.2266 104.445 26.5548C104.688 26.703 104.954 26.7983 105.02 26.7771C105.098 26.756 104.888 26.5866 104.578 26.396L103.991 26.0466L104.168 25.7396C104.257 25.5596 104.943 24.4056 105.695 23.1774C106.448 21.9387 108.118 19.1648 109.413 17.0155C110.707 14.8557 111.814 13.0452 111.869 12.9711C111.958 12.8758 112.101 12.897 112.511 13.0981C112.809 13.2464 113.075 13.4052 113.119 13.4687ZM186.75 14.3157C186.817 14.4322 186.839 14.5274 186.817 14.5274C186.784 14.5274 186.706 14.4322 186.64 14.3157C186.573 14.1992 186.551 14.1039 186.573 14.1039C186.607 14.1039 186.684 14.1992 186.75 14.3157ZM126.949 14.9509C126.85 15.1203 126.75 15.2686 126.717 15.2686C126.695 15.2686 126.739 15.1203 126.839 14.9509C126.938 14.771 127.038 14.6333 127.071 14.6333C127.093 14.6333 127.049 14.771 126.949 14.9509ZM187.138 14.9509C187.237 15.1203 187.282 15.2686 187.259 15.2686C187.226 15.2686 187.127 15.1203 187.027 14.9509C186.927 14.771 186.883 14.6333 186.905 14.6333C186.939 14.6333 187.038 14.771 187.138 14.9509ZM126.64 15.4486C125.909 16.6767 125.533 17.2802 125.5 17.2802C125.467 17.2802 125.467 17.2484 125.489 17.1955C126.219 15.9779 126.595 15.3744 126.628 15.3744C126.662 15.3744 126.662 15.4062 126.64 15.4486ZM187.912 16.2426C188.2 16.7296 188.465 17.1531 188.488 17.1955C188.51 17.2484 188.51 17.2802 188.476 17.2802C188.443 17.2802 188.067 16.6767 187.337 15.4486C187.315 15.4062 187.315 15.3744 187.348 15.3744C187.37 15.3744 187.625 15.7662 187.912 16.2426ZM125.29 17.7037C125.19 17.8731 125.091 18.0213 125.057 18.0213C125.035 18.0213 125.08 17.8731 125.179 17.7037C125.279 17.5237 125.378 17.3861 125.411 17.3861C125.434 17.3861 125.389 17.5237 125.29 17.7037ZM188.797 17.7037C188.897 17.8731 188.941 18.0213 188.919 18.0213C188.886 18.0213 188.786 17.8731 188.687 17.7037C188.587 17.5237 188.543 17.3861 188.565 17.3861C188.598 17.3861 188.698 17.5237 188.797 17.7037ZM124.737 18.6248C124.571 18.9107 124.382 19.1753 124.316 19.2389C124.25 19.2918 124.338 19.1012 124.515 18.8154C124.681 18.5189 124.847 18.2542 124.869 18.2013C124.891 18.1589 124.947 18.1272 124.98 18.1272C125.002 18.1272 124.902 18.3495 124.737 18.6248ZM189.461 18.8154C189.638 19.1012 189.727 19.2918 189.66 19.2389C189.594 19.1753 189.406 18.8895 189.24 18.6036C189.063 18.3072 188.974 18.1166 189.041 18.1801C189.107 18.2331 189.295 18.5189 189.461 18.8154ZM124.073 19.7153C123.973 19.8847 123.874 20.0329 123.84 20.0329C123.818 20.0329 123.862 19.8847 123.962 19.7153C124.062 19.5353 124.161 19.3977 124.194 19.3977C124.217 19.3977 124.172 19.5353 124.073 19.7153ZM190.014 19.7153C190.114 19.8847 190.158 20.0329 190.136 20.0329C190.103 20.0329 190.003 19.8847 189.904 19.7153C189.804 19.5353 189.76 19.3977 189.782 19.3977C189.815 19.3977 189.915 19.5353 190.014 19.7153ZM123.63 20.4564C123.531 20.6258 123.431 20.7741 123.398 20.7741C123.376 20.7741 123.42 20.6258 123.519 20.4564C123.619 20.2764 123.719 20.1388 123.752 20.1388C123.774 20.1388 123.73 20.2764 123.63 20.4564ZM190.457 20.4564C190.556 20.6258 190.601 20.7741 190.579 20.7741C190.545 20.7741 190.446 20.6258 190.346 20.4564C190.247 20.2764 190.202 20.1388 190.225 20.1388C190.258 20.1388 190.357 20.2764 190.457 20.4564ZM123.077 21.3775C122.911 21.6634 122.723 21.9281 122.656 21.9916C122.59 22.0445 122.679 21.854 122.856 21.5681C123.022 21.2717 123.188 21.007 123.21 20.954C123.232 20.9117 123.287 20.8799 123.32 20.8799C123.342 20.8799 123.243 21.1023 123.077 21.3775ZM191.121 21.5681C191.298 21.854 191.386 22.0445 191.32 21.9916C191.254 21.9281 191.065 21.6422 190.899 21.3564C190.722 21.0599 190.634 20.8693 190.7 20.9329C190.767 20.9858 190.955 21.2717 191.121 21.5681ZM122.413 22.468C122.313 22.6374 122.214 22.7857 122.181 22.7857C122.159 22.7857 122.203 22.6374 122.302 22.468C122.402 22.2881 122.502 22.1504 122.535 22.1504C122.557 22.1504 122.513 22.2881 122.413 22.468ZM191.674 22.468C191.774 22.6374 191.818 22.7857 191.796 22.7857C191.762 22.7857 191.663 22.6374 191.563 22.468C191.464 22.2881 191.419 22.1504 191.442 22.1504C191.475 22.1504 191.574 22.2881 191.674 22.468ZM121.971 23.2092C121.871 23.3786 121.771 23.5268 121.738 23.5268C121.716 23.5268 121.76 23.3786 121.86 23.2092C121.959 23.0292 122.059 22.8915 122.092 22.8915C122.114 22.8915 122.07 23.0292 121.971 23.2092ZM192.117 23.2092C192.216 23.3786 192.26 23.5268 192.238 23.5268C192.205 23.5268 192.105 23.3786 192.006 23.2092C191.906 23.0292 191.862 22.8915 191.884 22.8915C191.917 22.8915 192.017 23.0292 192.117 23.2092ZM121.417 24.1303C121.251 24.4161 121.063 24.6808 120.997 24.7444C120.93 24.7973 121.019 24.6067 121.196 24.3209C121.362 24.0244 121.528 23.7597 121.55 23.7068C121.572 23.6644 121.628 23.6327 121.661 23.6327C121.683 23.6327 121.583 23.855 121.417 24.1303ZM192.78 24.3209C192.957 24.6067 193.046 24.7973 192.98 24.7444C192.913 24.6808 192.725 24.395 192.559 24.1091C192.382 23.8127 192.294 23.6221 192.36 23.6856C192.426 23.7385 192.614 24.0244 192.78 24.3209ZM120.753 25.2208C120.654 25.3902 120.554 25.5384 120.521 25.5384C120.499 25.5384 120.543 25.3902 120.643 25.2208C120.742 25.0408 120.842 24.9032 120.875 24.9032C120.897 24.9032 120.853 25.0408 120.753 25.2208ZM193.334 25.2208C193.433 25.3902 193.477 25.5384 193.455 25.5384C193.422 25.5384 193.322 25.3902 193.223 25.2208C193.123 25.0408 193.079 24.9032 193.101 24.9032C193.134 24.9032 193.234 25.0408 193.334 25.2208ZM120.444 25.7184C119.713 26.9465 119.337 27.55 119.304 27.55C119.271 27.55 119.271 27.5183 119.293 27.4653C120.023 26.2478 120.399 25.6443 120.433 25.6443C120.466 25.6443 120.466 25.6761 120.444 25.7184ZM194.108 26.5125C194.396 26.9995 194.661 27.423 194.683 27.4653C194.705 27.5183 194.705 27.55 194.672 27.55C194.639 27.55 194.263 26.9465 193.533 25.7184C193.511 25.6761 193.511 25.6443 193.544 25.6443C193.566 25.6443 193.82 26.036 194.108 26.5125ZM103.427 26.883C103.427 27.0524 103.361 27.7724 103.272 28.5029L103.128 29.8263L103.117 28.2065C103.106 26.8407 103.128 26.5972 103.272 26.5972C103.383 26.5972 103.438 26.6924 103.427 26.883ZM210.859 28.2065L210.848 29.8263L210.704 28.5029C210.505 26.7136 210.505 26.5972 210.704 26.5972C210.848 26.5972 210.87 26.8407 210.859 28.2065ZM105.297 27.5818C104.511 29.0746 103.903 30.8745 103.671 32.4203C103.527 33.3626 103.494 35.5012 103.604 36.3906C103.803 37.9893 104.456 40.0327 105.186 41.3667C105.54 42.0231 105.574 42.1184 105.408 42.129C105.297 42.1396 105.12 42.0337 105.031 41.8855C104.877 41.6737 104.877 41.5996 104.998 41.462C105.12 41.3138 105.109 41.3032 104.932 41.3349C104.755 41.3561 104.644 41.1867 104.29 40.3079C102.586 36.0412 102.819 31.5203 104.954 27.4759C105.186 27.0524 105.286 26.9465 105.397 27.0312C105.507 27.1265 105.485 27.2324 105.297 27.5818ZM209.222 27.8888C209.808 29.0111 210.239 30.2181 210.549 31.658C210.881 33.1402 210.903 35.9988 210.605 37.3964C210.173 39.4398 208.967 42.3302 208.602 42.2031C208.513 42.1607 208.436 42.1184 208.436 42.0972C208.436 42.0655 208.613 41.7055 208.834 41.282C210.97 37.2376 210.981 31.9544 208.845 27.91C208.48 27.2112 208.436 27.0207 208.679 27.0207C208.724 27.0207 208.967 27.4124 209.222 27.8888ZM110.575 29.9322C113.197 31.3721 115.443 32.6108 115.564 32.685C115.797 32.8332 115.797 32.8332 115.598 33.3943C115.332 34.1143 115.343 35.0671 115.609 35.8083C115.719 36.1259 115.808 36.3906 115.797 36.4012C114.447 37.1635 105.717 41.949 105.706 41.9278C105.574 41.7796 104.921 40.4032 104.655 39.7045C103.305 36.2 103.427 32.1873 104.976 28.757C105.574 27.423 105.673 27.2324 105.751 27.2748C105.784 27.2959 107.963 28.4923 110.575 29.9322ZM209.465 29.9428C210.029 31.5627 210.228 32.7485 210.228 34.5907C210.239 36.4647 210.051 37.534 209.41 39.408C209.144 40.1915 208.447 41.7373 208.27 41.9278C208.259 41.9384 205.991 40.7103 203.247 39.1857C200.492 37.6717 198.213 36.4541 198.169 36.4965C198.08 36.5812 197.538 36.2635 203.258 39.4292C205.924 40.9008 208.093 42.1502 208.082 42.2137C208.06 42.2772 205.548 46.4804 202.484 51.5518L196.918 60.7735L195.347 59.9054C189.693 56.7609 186.972 55.2892 186.85 55.2892C186.762 55.2892 186.75 55.321 186.817 55.3845C186.872 55.4374 189.008 56.6338 191.563 58.042C194.119 59.4501 196.343 60.6888 196.52 60.7841L196.819 60.9641L196.188 61.864C194.871 63.7063 192.559 65.6332 190.424 66.6602C188.642 67.5178 186.352 68.1212 184.405 68.2377L183.542 68.2906V62.7428C183.542 59.1113 183.509 57.195 183.431 57.195C183.354 57.195 183.321 59.1219 183.321 62.7534V68.3118H157.055C139.651 68.3118 130.755 68.3436 130.711 68.4177C130.667 68.4918 139.452 68.5236 156.977 68.5236C180.322 68.5236 183.321 68.5447 183.321 68.6824C183.321 68.82 180.322 68.8412 156.999 68.8412C132.47 68.8412 130.667 68.8306 130.634 68.6612C130.612 68.5659 130.612 65.919 130.634 62.7852L130.656 57.0891L157.519 57.0679L184.372 57.0362L185.036 56.7397C185.677 56.4538 186.695 55.5645 186.584 55.3845C186.551 55.3422 186.319 55.5116 186.064 55.7762C185.81 56.0409 185.511 56.3056 185.401 56.3586C185.29 56.4221 185.478 56.1892 185.832 55.8504C186.186 55.5221 186.529 55.2575 186.596 55.268C186.762 55.2998 198.124 36.4859 198.39 35.7553C198.633 35.0671 198.633 34.1037 198.379 33.3943C198.235 33.0026 198.213 32.812 198.301 32.7591C198.368 32.7167 200.636 31.4568 203.347 29.964L208.27 27.243L208.724 28.1747C208.978 28.6829 209.31 29.477 209.465 29.9428ZM119.094 27.9735C118.994 28.1429 118.895 28.2912 118.862 28.2912C118.839 28.2912 118.884 28.1429 118.983 27.9735C119.083 27.7935 119.182 27.6559 119.216 27.6559C119.238 27.6559 119.193 27.7935 119.094 27.9735ZM194.993 27.9735C195.093 28.1429 195.137 28.2912 195.115 28.2912C195.082 28.2912 194.982 28.1429 194.883 27.9735C194.783 27.7935 194.739 27.6559 194.761 27.6559C194.794 27.6559 194.894 27.7935 194.993 27.9735ZM118.541 28.8946C118.375 29.1805 118.187 29.4452 118.12 29.5087C118.054 29.5617 118.142 29.3711 118.319 29.0852C118.485 28.7888 118.651 28.5241 118.673 28.4711C118.696 28.4288 118.751 28.397 118.784 28.397C118.806 28.397 118.707 28.6194 118.541 28.8946ZM195.657 29.0852C195.834 29.3711 195.923 29.5617 195.856 29.5087C195.79 29.4452 195.602 29.1593 195.436 28.8735C195.259 28.577 195.17 28.3864 195.237 28.45C195.303 28.5029 195.491 28.7888 195.657 29.0852ZM117.877 29.9852C117.777 30.1546 117.678 30.3028 117.644 30.3028C117.622 30.3028 117.667 30.1546 117.766 29.9852C117.866 29.8052 117.965 29.6675 117.999 29.6675C118.021 29.6675 117.976 29.8052 117.877 29.9852ZM196.21 29.9852C196.31 30.1546 196.354 30.3028 196.332 30.3028C196.299 30.3028 196.199 30.1546 196.1 29.9852C196 29.8052 195.956 29.6675 195.978 29.6675C196.011 29.6675 196.111 29.8052 196.21 29.9852ZM117.434 30.7263C117.335 30.8957 117.235 31.0439 117.202 31.0439C117.18 31.0439 117.224 30.8957 117.324 30.7263C117.423 30.5463 117.523 30.4087 117.556 30.4087C117.578 30.4087 117.534 30.5463 117.434 30.7263ZM196.653 30.7263C196.752 30.8957 196.797 31.0439 196.774 31.0439C196.741 31.0439 196.642 30.8957 196.542 30.7263C196.443 30.5463 196.398 30.4087 196.42 30.4087C196.454 30.4087 196.553 30.5463 196.653 30.7263ZM116.881 31.6474C116.715 31.9333 116.527 32.1979 116.461 32.2615C116.394 32.3144 116.483 32.1238 116.66 31.838C116.826 31.5415 116.992 31.2768 117.014 31.2239C117.036 31.1815 117.091 31.1498 117.124 31.1498C117.147 31.1498 117.047 31.3721 116.881 31.6474ZM197.317 31.838C197.494 32.1238 197.582 32.3144 197.516 32.2615C197.449 32.1979 197.261 31.9121 197.095 31.6262C196.918 31.3298 196.83 31.1392 196.896 31.2027C196.963 31.2556 197.151 31.5415 197.317 31.838ZM103.184 32.1768C103.151 32.2826 103.128 32.2191 103.128 32.0497C103.128 31.8697 103.151 31.7956 103.184 31.8591C103.206 31.9333 103.206 32.0815 103.184 32.1768ZM210.837 32.1238C210.804 32.1979 210.782 32.145 210.782 31.9968C210.782 31.8485 210.804 31.7956 210.837 31.8591C210.859 31.9333 210.859 32.0603 210.837 32.1238ZM116.306 32.5791C116.273 32.6744 116.217 32.7273 116.195 32.6955C116.162 32.6638 116.173 32.6003 116.217 32.5367C116.317 32.3673 116.383 32.3991 116.306 32.5791ZM197.792 32.685C197.759 32.7167 197.693 32.6638 197.66 32.5579C197.593 32.4097 197.604 32.3991 197.715 32.4944C197.792 32.5685 197.826 32.6532 197.792 32.685ZM198.091 33.172C198.191 33.352 198.257 33.532 198.235 33.5849C198.213 33.6378 198.113 33.4896 198.014 33.2673C197.792 32.7697 197.848 32.7061 198.091 33.172ZM115.952 33.2355C115.819 33.4473 115.797 33.3837 115.896 33.1085C115.941 33.0132 115.996 32.9602 116.018 32.992C116.051 33.0132 116.018 33.1296 115.952 33.2355ZM115.686 34.2943C115.653 34.4001 115.631 34.3154 115.631 34.1143C115.631 33.9131 115.653 33.8284 115.686 33.9237C115.708 34.0296 115.708 34.199 115.686 34.2943ZM198.334 34.1884C198.301 34.2943 198.279 34.2307 198.279 34.0613C198.279 33.8813 198.301 33.8072 198.334 33.8708C198.357 33.9449 198.357 34.0931 198.334 34.1884ZM115.686 35.2471C115.653 35.353 115.631 35.2895 115.631 35.1201C115.631 34.9401 115.653 34.866 115.686 34.9295C115.708 35.0036 115.708 35.1518 115.686 35.2471ZM198.334 35.2471C198.301 35.353 198.279 35.2895 198.279 35.1201C198.279 34.9401 198.301 34.866 198.334 34.9295C198.357 35.0036 198.357 35.1518 198.334 35.2471ZM116.051 36.2212C116.04 36.3588 115.73 35.7447 115.73 35.5965C115.73 35.5118 115.797 35.5965 115.885 35.7977C115.974 35.9883 116.051 36.1788 116.051 36.2212ZM198.135 35.9565C198.058 36.1576 197.958 36.3059 197.914 36.2847C197.881 36.2529 197.925 36.073 198.025 35.8718C198.246 35.4165 198.323 35.4695 198.135 35.9565ZM116.66 37.2058C116.947 37.6928 117.213 38.1163 117.235 38.1587C117.257 38.2116 117.257 38.2434 117.224 38.2434C117.191 38.2434 116.815 37.6399 116.084 36.4118C116.062 36.3694 116.062 36.3376 116.096 36.3376C116.118 36.3376 116.372 36.7294 116.66 37.2058ZM197.317 37.3858C197.029 37.8622 196.774 38.2434 196.741 38.2434C196.719 38.2434 196.852 37.9681 197.051 37.6293C197.25 37.3011 197.494 36.8988 197.582 36.74C197.682 36.5812 197.77 36.4753 197.792 36.4965C197.814 36.5176 197.604 36.9199 197.317 37.3858ZM121.539 45.8134C124.559 50.8213 127.049 54.9928 127.071 55.0775C127.104 55.1939 126.175 55.7551 123.885 57.015C122.103 57.989 119.835 59.2383 118.85 59.7783L117.058 60.7735L111.493 51.5518C108.428 46.4804 105.917 42.2772 105.894 42.2137C105.861 42.076 115.852 36.5388 115.963 36.6341C116.007 36.6764 118.507 40.8056 121.539 45.8134ZM117.545 38.6669C117.644 38.8363 117.689 38.9845 117.667 38.9845C117.633 38.9845 117.534 38.8363 117.434 38.6669C117.335 38.4869 117.29 38.3493 117.313 38.3493C117.346 38.3493 117.445 38.4869 117.545 38.6669ZM196.542 38.6669C196.443 38.8363 196.343 38.9845 196.31 38.9845C196.288 38.9845 196.332 38.8363 196.431 38.6669C196.531 38.4869 196.631 38.3493 196.664 38.3493C196.686 38.3493 196.642 38.4869 196.542 38.6669ZM118.209 39.7786C118.386 40.0644 118.474 40.255 118.408 40.2021C118.342 40.1385 118.153 39.8527 117.987 39.5668C117.81 39.2704 117.722 39.0798 117.788 39.1433C117.855 39.1963 118.043 39.4821 118.209 39.7786ZM195.989 39.588C195.823 39.8739 195.635 40.1385 195.568 40.2021C195.502 40.255 195.591 40.0644 195.768 39.7786C195.934 39.4821 196.1 39.2174 196.122 39.1645C196.144 39.1221 196.199 39.0904 196.232 39.0904C196.254 39.0904 196.155 39.3127 195.989 39.588ZM118.762 40.6785C118.862 40.8479 118.906 40.9961 118.884 40.9961C118.85 40.9961 118.751 40.8479 118.651 40.6785C118.552 40.4985 118.507 40.3609 118.53 40.3609C118.563 40.3609 118.662 40.4985 118.762 40.6785ZM195.325 40.6785C195.226 40.8479 195.126 40.9961 195.093 40.9961C195.071 40.9961 195.115 40.8479 195.214 40.6785C195.314 40.4985 195.414 40.3609 195.447 40.3609C195.469 40.3609 195.425 40.4985 195.325 40.6785ZM119.205 41.4196C119.304 41.589 119.348 41.7373 119.326 41.7373C119.293 41.7373 119.193 41.589 119.094 41.4196C118.994 41.2396 118.95 41.102 118.972 41.102C119.005 41.102 119.105 41.2396 119.205 41.4196ZM194.883 41.4196C194.783 41.589 194.683 41.7373 194.65 41.7373C194.628 41.7373 194.672 41.589 194.772 41.4196C194.871 41.2396 194.971 41.102 195.004 41.102C195.026 41.102 194.982 41.2396 194.883 41.4196ZM119.868 42.5313C120.045 42.8172 120.134 43.0077 120.067 42.9548C120.001 42.8913 119.813 42.6054 119.647 42.3196C119.47 42.0231 119.382 41.8325 119.448 41.8961C119.514 41.949 119.702 42.2349 119.868 42.5313ZM194.329 42.3407C194.163 42.6266 193.975 42.8913 193.909 42.9548C193.842 43.0077 193.931 42.8172 194.108 42.5313C194.274 42.2349 194.44 41.9702 194.462 41.9172C194.484 41.8749 194.54 41.8431 194.573 41.8431C194.595 41.8431 194.495 42.0655 194.329 42.3407ZM111.283 51.573C115.542 58.6454 116.826 60.8371 116.726 60.9323C116.627 61.0276 116.571 61.017 116.494 60.9006C112.655 54.6116 105.352 42.4043 105.397 42.3407C105.43 42.2984 105.507 42.2772 105.574 42.2984C105.651 42.3196 108.218 46.491 111.283 51.573ZM208.569 42.489C208.524 42.6478 197.626 60.7841 197.472 60.9429C197.405 61.0065 197.328 61.0065 197.25 60.9323C197.162 60.8476 198.567 58.4231 202.572 51.7742C205.57 46.8087 208.093 42.6372 208.181 42.4995C208.347 42.2454 208.624 42.2349 208.569 42.489ZM120.422 43.4312C120.521 43.6006 120.565 43.7489 120.543 43.7489C120.51 43.7489 120.41 43.6006 120.311 43.4312C120.211 43.2513 120.167 43.1136 120.189 43.1136C120.222 43.1136 120.322 43.2513 120.422 43.4312ZM193.665 43.4312C193.566 43.6006 193.466 43.7489 193.433 43.7489C193.411 43.7489 193.455 43.6006 193.555 43.4312C193.654 43.2513 193.754 43.1136 193.787 43.1136C193.809 43.1136 193.765 43.2513 193.665 43.4312ZM120.864 44.1724C120.964 44.3418 121.008 44.49 120.986 44.49C120.953 44.49 120.853 44.3418 120.753 44.1724C120.654 43.9924 120.61 43.8547 120.632 43.8547C120.665 43.8547 120.765 43.9924 120.864 44.1724ZM193.223 44.1724C193.123 44.3418 193.024 44.49 192.991 44.49C192.968 44.49 193.013 44.3418 193.112 44.1724C193.212 43.9924 193.311 43.8547 193.345 43.8547C193.367 43.8547 193.322 43.9924 193.223 44.1724ZM121.528 45.2841C121.705 45.5699 121.793 45.7605 121.727 45.7076C121.661 45.644 121.473 45.3582 121.307 45.0723C121.13 44.7759 121.041 44.5853 121.108 44.6488C121.174 44.7017 121.362 44.9876 121.528 45.2841ZM192.67 45.0935C192.504 45.3793 192.316 45.644 192.249 45.7076C192.183 45.7605 192.271 45.5699 192.448 45.2841C192.614 44.9876 192.78 44.7229 192.802 44.67C192.825 44.6276 192.88 44.5959 192.913 44.5959C192.935 44.5959 192.836 44.8182 192.67 45.0935ZM122.081 46.184C122.181 46.3534 122.225 46.5016 122.203 46.5016C122.17 46.5016 122.07 46.3534 121.971 46.184C121.871 46.004 121.827 45.8664 121.849 45.8664C121.882 45.8664 121.982 46.004 122.081 46.184ZM192.006 46.184C191.906 46.3534 191.807 46.5016 191.774 46.5016C191.751 46.5016 191.796 46.3534 191.895 46.184C191.995 46.004 192.094 45.8664 192.128 45.8664C192.15 45.8664 192.105 46.004 192.006 46.184ZM122.856 47.4757C123.143 47.9627 123.409 48.3862 123.431 48.4285C123.453 48.4815 123.453 48.5132 123.42 48.5132C123.387 48.5132 123.011 47.9097 122.28 46.6816C122.258 46.6393 122.258 46.6075 122.291 46.6075C122.313 46.6075 122.568 46.9992 122.856 47.4757ZM191.696 46.6816C190.966 47.9097 190.59 48.5132 190.556 48.5132C190.523 48.5132 190.523 48.4815 190.545 48.4285C191.276 47.211 191.652 46.6075 191.685 46.6075C191.718 46.6075 191.718 46.6393 191.696 46.6816ZM123.741 48.9367C123.84 49.1061 123.885 49.2544 123.862 49.2544C123.829 49.2544 123.73 49.1061 123.63 48.9367C123.531 48.7567 123.486 48.6191 123.508 48.6191C123.542 48.6191 123.641 48.7567 123.741 48.9367ZM190.346 48.9367C190.247 49.1061 190.147 49.2544 190.114 49.2544C190.092 49.2544 190.136 49.1061 190.236 48.9367C190.335 48.7567 190.435 48.6191 190.468 48.6191C190.49 48.6191 190.446 48.7567 190.346 48.9367ZM124.405 50.0484C124.582 50.3343 124.67 50.5249 124.604 50.4719C124.537 50.4084 124.349 50.1225 124.183 49.8367C124.006 49.5402 123.918 49.3496 123.984 49.4132C124.051 49.4661 124.239 49.752 124.405 50.0484ZM189.793 49.8578C189.627 50.1437 189.439 50.4084 189.373 50.4719C189.306 50.5249 189.395 50.3343 189.572 50.0484C189.738 49.752 189.904 49.4873 189.926 49.4343C189.948 49.392 190.003 49.3602 190.036 49.3602C190.059 49.3602 189.959 49.5826 189.793 49.8578ZM124.958 50.9484C125.057 51.1178 125.102 51.266 125.08 51.266C125.046 51.266 124.947 51.1178 124.847 50.9484C124.748 50.7684 124.703 50.6307 124.725 50.6307C124.759 50.6307 124.858 50.7684 124.958 50.9484ZM189.129 50.9484C189.03 51.1178 188.93 51.266 188.897 51.266C188.875 51.266 188.919 51.1178 189.019 50.9484C189.118 50.7684 189.218 50.6307 189.251 50.6307C189.273 50.6307 189.229 50.7684 189.129 50.9484ZM125.4 51.6895C125.5 51.8589 125.544 52.0071 125.522 52.0071C125.489 52.0071 125.389 51.8589 125.29 51.6895C125.19 51.5095 125.146 51.3719 125.168 51.3719C125.201 51.3719 125.301 51.5095 125.4 51.6895ZM188.687 51.6895C188.587 51.8589 188.488 52.0071 188.454 52.0071C188.432 52.0071 188.476 51.8589 188.576 51.6895C188.676 51.5095 188.775 51.3719 188.808 51.3719C188.83 51.3719 188.786 51.5095 188.687 51.6895ZM126.064 52.8012C126.241 53.087 126.33 53.2776 126.263 53.2247C126.197 53.1611 126.009 52.8753 125.843 52.5894C125.666 52.293 125.577 52.1024 125.644 52.1659C125.71 52.2189 125.898 52.5047 126.064 52.8012ZM188.133 52.6106C187.967 52.8965 187.779 53.1611 187.713 53.2247C187.647 53.2776 187.735 53.087 187.912 52.8012C188.078 52.5047 188.244 52.24 188.266 52.1871C188.288 52.1447 188.344 52.113 188.377 52.113C188.399 52.113 188.299 52.3353 188.133 52.6106ZM126.617 53.7011C126.717 53.8705 126.761 54.0187 126.739 54.0187C126.706 54.0187 126.606 53.8705 126.507 53.7011C126.407 53.5211 126.363 53.3835 126.385 53.3835C126.418 53.3835 126.518 53.5211 126.617 53.7011ZM187.47 53.7011C187.37 53.8705 187.27 54.0187 187.237 54.0187C187.215 54.0187 187.259 53.8705 187.359 53.7011C187.459 53.5211 187.558 53.3835 187.591 53.3835C187.613 53.3835 187.569 53.5211 187.47 53.7011ZM127.06 54.4422C127.16 54.6116 127.204 54.7598 127.182 54.7598C127.148 54.7598 127.049 54.6116 126.949 54.4422C126.85 54.2622 126.805 54.1246 126.828 54.1246C126.861 54.1246 126.96 54.2622 127.06 54.4422ZM187.027 54.4422C186.927 54.6116 186.828 54.7598 186.795 54.7598C186.773 54.7598 186.817 54.6116 186.916 54.4422C187.016 54.2622 187.116 54.1246 187.149 54.1246C187.171 54.1246 187.127 54.2622 187.027 54.4422ZM128.443 56.2315C128.443 56.3268 127.657 55.5539 127.536 55.3422C127.469 55.2363 127.646 55.3739 127.934 55.6598C128.211 55.9456 128.443 56.1997 128.443 56.2315ZM127.801 55.9351C128.454 56.5491 129.24 56.9515 129.992 57.0467L130.49 57.1103L130.457 62.7216L130.434 68.333L129.737 68.2695C125.511 67.9307 121.993 66.3425 119.182 63.5157C118.519 62.8487 117.102 61.017 117.191 60.9429C117.213 60.9112 127.16 55.4057 127.193 55.3951C127.204 55.3951 127.469 55.6386 127.801 55.9351ZM129.549 56.7503C129.45 56.7821 128.554 56.3797 128.554 56.295C128.554 56.2739 128.797 56.3586 129.096 56.4856C129.394 56.6127 129.594 56.7291 129.549 56.7503ZM184.759 56.6656C184.67 56.7185 184.516 56.7609 184.427 56.7609C184.316 56.7609 184.338 56.7291 184.482 56.6656C184.781 56.5385 184.958 56.5385 184.759 56.6656ZM130.136 56.8456C130.058 56.8668 129.926 56.8668 129.859 56.8456C129.782 56.8138 129.837 56.7926 129.992 56.7926C130.147 56.7926 130.202 56.8138 130.136 56.8456ZM184.128 56.8456C184.051 56.8668 183.918 56.8668 183.852 56.8456C183.774 56.8138 183.83 56.7926 183.984 56.7926C184.139 56.7926 184.195 56.8138 184.128 56.8456ZM170.177 56.9515C162.93 56.9726 151.047 56.9726 143.789 56.9515C136.542 56.9409 142.472 56.9303 156.988 56.9303C171.504 56.9303 177.435 56.9409 170.177 56.9515ZM117.644 61.9699C117.799 62.2028 117.799 62.2664 117.678 62.3722C117.556 62.4675 117.434 62.3617 117.102 61.8429C116.781 61.3347 116.715 61.1759 116.837 61.1123C116.981 61.0276 117.058 61.1123 117.644 61.9699ZM197.294 61.3135C197.239 61.3453 196.94 61.737 196.631 62.1711C196.155 62.8487 195.226 63.9392 194.794 64.3309C193.5 65.5061 191.984 66.5437 190.634 67.1895C189.837 67.5813 187.956 68.2695 187.414 68.3648C186.02 68.64 185.334 68.7353 184.46 68.7988C183.896 68.8412 183.431 68.8412 183.431 68.8094C183.431 68.7777 183.509 68.6718 183.608 68.5871C183.73 68.4706 183.984 68.4177 184.471 68.4177C185.998 68.4177 188.676 67.7083 190.534 66.819C192.924 65.6649 195.104 63.8015 196.542 61.6735C196.918 61.1123 197.007 61.0382 197.195 61.1335C197.306 61.197 197.35 61.2711 197.294 61.3135ZM118.928 63.4945C121.616 66.2473 124.891 67.8989 128.443 68.3118C129.018 68.3753 129.704 68.4495 129.97 68.4812C130.291 68.5236 130.434 68.5871 130.434 68.7036C130.434 68.8412 130.324 68.8624 129.638 68.7988C125.998 68.46 123.066 67.3801 120.499 65.4214C119.581 64.7121 117.578 62.711 117.667 62.5734C117.788 62.3934 118.01 62.5522 118.928 63.4945Z" fill="#0076BD"/>
<path d="M109.003 4.3528C107.322 4.75513 106.658 6.69264 107.775 7.92078C108.45 8.65132 109.534 8.916 110.42 8.55603C111.172 8.24899 111.847 7.3173 111.847 6.57617C111.847 5.13628 110.409 4.014 109.003 4.3528ZM110.519 4.73395C111.415 5.17863 111.858 6.34325 111.471 7.24318C110.873 8.60897 109.059 8.92659 108.019 7.84667C106.946 6.74557 107.454 5.00923 108.97 4.59631C109.413 4.46926 110.11 4.53279 110.519 4.73395Z" fill="#0076BD"/>
<path d="M203.889 4.35288C202.506 4.77638 201.786 6.12099 202.307 7.30679C202.981 8.87373 205.028 9.19136 206.201 7.92086C206.544 7.5503 206.776 6.96799 206.776 6.49155C206.776 5.75043 206.223 4.90343 205.482 4.54345C205.084 4.34229 204.254 4.24701 203.889 4.35288ZM204.951 4.5858C206.511 4.99872 207.053 6.72447 205.958 7.84675C204.364 9.48781 201.587 7.73028 202.561 5.6869C202.793 5.18929 203.335 4.71285 203.767 4.61757C203.933 4.5858 204.121 4.54345 204.176 4.52228C204.375 4.45876 204.497 4.46934 204.951 4.5858Z" fill="#0076BD"/>
<path d="M197.339 6.06863C197.228 6.13203 197.04 6.16373 196.918 6.13203C196.686 6.06863 196.642 6.16373 196.83 6.34336C196.918 6.42789 197.051 6.40676 197.328 6.24826C197.538 6.13203 197.704 6.0158 197.704 5.99467C197.704 5.92071 197.549 5.95241 197.339 6.06863Z" fill="#0076BD"/>
<path d="M130.999 15.0675C130.457 15.2263 129.87 15.6074 129.494 16.0627C129.184 16.4438 119.415 32.5686 118.983 33.4261C118.828 33.7332 118.762 34.072 118.762 34.6437C118.762 35.5966 118.109 34.4108 124.438 44.9135C128.067 50.9484 129.306 52.9283 129.726 53.3412C130.722 54.3258 127.956 54.2305 156.988 54.2305C186.02 54.2305 183.254 54.3258 184.25 53.3412C184.67 52.9283 185.91 50.9484 189.539 44.9135C192.161 40.5727 194.495 36.6765 194.739 36.2424C195.259 35.3425 195.38 34.559 195.126 33.7967C194.993 33.3732 185.334 17.2273 184.715 16.3803C184.283 15.7874 183.984 15.5121 183.453 15.258L182.933 15.0039L157.154 14.9828C140.746 14.9722 131.242 15.0039 130.999 15.0675ZM131.32 15.311C130.711 15.4592 130.069 15.8298 129.782 16.1791C129.671 16.3168 129.516 16.4332 129.45 16.4332C129.383 16.4332 129.549 16.2427 129.815 16.0098C130.346 15.5439 131.12 15.1628 131.541 15.1733C131.718 15.1733 131.64 15.2263 131.32 15.311ZM169.524 15.2369C162.631 15.258 151.346 15.258 144.464 15.2369C137.571 15.2263 143.202 15.2157 156.988 15.2157C170.774 15.2157 176.406 15.2263 169.524 15.2369ZM183.265 15.4169C183.575 15.5439 184.007 15.8721 184.25 16.1262C184.648 16.5709 194.728 33.1615 194.65 33.2567C194.584 33.3203 194.927 33.8708 189.682 25.1679C187.016 20.7423 184.67 16.8779 184.471 16.5709C184.051 15.9356 183.431 15.5015 182.679 15.311C182.336 15.2263 182.258 15.1733 182.435 15.1733C182.59 15.1628 182.967 15.2792 183.265 15.4169ZM183.243 15.6921C183.542 15.8298 183.918 16.1156 184.084 16.3274C184.35 16.645 194.031 32.6109 194.551 33.5744C194.772 33.9979 194.794 35.0884 194.584 35.5542C194.506 35.7342 192.172 39.6304 189.406 44.2254C185.965 49.9426 184.228 52.7271 183.907 53.0341C183.033 53.8811 185.378 53.8176 156.712 53.7859L131.154 53.7541L130.667 53.4894C130.401 53.3412 130.036 53.0553 129.87 52.8542C129.605 52.5259 120.134 36.9094 119.47 35.7024C119.127 35.0672 119.127 34.1461 119.47 33.5003C119.957 32.5897 129.594 16.6873 129.848 16.3591C130.18 15.9356 130.777 15.5968 131.375 15.4804C131.618 15.438 143.269 15.4063 157.265 15.4169L182.712 15.4274L183.243 15.6921ZM129.306 16.8779C129.217 17.0156 126.983 20.6894 124.36 25.062C121.727 29.4241 119.514 33.045 119.448 33.1085C119.271 33.2779 119.879 32.2403 124.736 24.1833C127.237 20.0436 129.317 16.6556 129.372 16.645C129.417 16.645 129.394 16.7509 129.306 16.8779ZM119.182 33.7649C119.016 34.1567 119.027 34.9507 119.204 35.5966C119.26 35.8295 119.26 35.8401 119.149 35.6707C118.85 35.2154 118.939 33.3732 119.271 33.3732C119.315 33.3732 119.282 33.5532 119.182 33.7649ZM194.938 33.8496C195.093 34.379 195.037 35.3636 194.827 35.6707C194.717 35.8401 194.717 35.8295 194.772 35.5966C194.949 34.9507 194.96 34.1567 194.794 33.7649C194.694 33.5532 194.661 33.3732 194.705 33.3732C194.761 33.3732 194.86 33.585 194.938 33.8496ZM122.889 41.7055C124.781 44.8394 127.016 48.5451 127.868 49.9426C128.72 51.3401 129.394 52.5048 129.372 52.5259C129.35 52.5471 129.306 52.5471 129.284 52.5259C129.262 52.5048 127.093 48.905 124.46 44.543C121.838 40.1704 119.592 36.4753 119.47 36.3059C119.348 36.1471 119.293 36.0201 119.348 36.0201C119.404 36.0201 120.997 38.5822 122.889 41.7055ZM189.671 44.2889C185.29 51.5731 184.394 53.013 184.549 52.5789C184.648 52.3248 194.528 36.0201 194.573 36.0518C194.595 36.073 192.393 39.7786 189.671 44.2889ZM129.87 53.0977C130.18 53.4471 131.109 53.9023 131.541 53.9235C131.729 53.9341 131.751 53.9553 131.618 53.987C131.154 54.1035 130.036 53.5318 129.527 52.9071C129.206 52.5154 129.516 52.6848 129.87 53.0977ZM184.361 52.9812C183.995 53.3941 183.719 53.6059 183.354 53.7647C182.767 54.0082 182.79 53.9341 183.398 53.5953C183.719 53.4259 184.062 53.1612 184.173 53.013C184.283 52.8753 184.416 52.7483 184.471 52.7483C184.527 52.7483 184.482 52.8542 184.361 52.9812ZM169.524 53.987C162.631 54.0082 151.346 54.0082 144.464 53.987C137.571 53.9764 143.202 53.9658 156.988 53.9658C170.774 53.9658 176.406 53.9764 169.524 53.987ZM182.69 53.987C182.612 54.0082 182.458 54.0082 182.358 53.987C182.247 53.9553 182.314 53.9341 182.491 53.9341C182.679 53.9341 182.756 53.9553 182.69 53.987Z" fill="#0076BD"/>
<path d="M131.375 15.7874C130.744 15.9357 130.324 16.2321 129.948 16.7827C129.14 17.9579 119.725 33.6591 119.603 34.0402C119.514 34.2838 119.492 34.6331 119.525 34.8978C119.581 35.226 120.986 37.64 124.803 43.9713C127.657 48.7145 130.136 52.7166 130.291 52.8754C130.943 53.5318 129.107 53.4894 157.088 53.4894C181.661 53.4894 182.613 53.4788 183.044 53.2883C183.487 53.0977 184.128 52.5366 183.907 52.5366C183.852 52.5366 183.708 52.6319 183.608 52.7377C183.077 53.2989 184.726 53.2565 157.287 53.3412C138.113 53.3941 131.873 53.3836 131.873 53.2989C131.873 53.2036 138.157 53.1718 157.265 53.1718C184.814 53.1718 182.933 53.2142 183.531 52.6107C183.675 52.4625 183.852 52.3672 183.929 52.3883C184.128 52.4625 194.296 35.5966 194.429 34.9508C194.506 34.5908 194.484 34.3579 194.363 33.9979C194.174 33.4791 184.25 17.005 183.852 16.5391C183.708 16.3803 183.398 16.1368 183.155 15.9992L182.712 15.7451L157.209 15.7239C143.18 15.7239 131.563 15.7451 131.375 15.7874ZM183.099 16.1368C183.365 16.2745 183.653 16.4968 183.752 16.645C183.896 16.8779 183.863 16.8674 183.531 16.5709C183.321 16.3909 183.011 16.1792 182.845 16.1262C182.624 16.0415 174.735 16.0098 156.988 16.0098C139.241 16.0098 131.353 16.0415 131.132 16.1262C130.966 16.1792 130.656 16.3803 130.468 16.5709C130.269 16.7509 130.103 16.8462 130.103 16.7932C130.103 16.645 130.523 16.285 130.932 16.0839C131.231 15.9251 133.743 15.9145 156.933 15.9039H182.613L183.099 16.1368ZM182.933 16.3909C183.133 16.4756 183.431 16.7297 183.575 16.9415C183.73 17.1532 186.12 21.0918 188.897 25.6973C193.732 33.7226 193.942 34.0826 193.942 34.6014C193.942 35.1202 193.743 35.4696 188.842 43.6007C186.031 48.2486 183.641 52.1872 183.52 52.3566C183.398 52.5154 183.144 52.7271 182.955 52.833C182.624 53.0024 181.086 53.013 156.988 53.013C132.891 53.013 131.353 53.0024 131.021 52.833C130.833 52.7271 130.578 52.5154 130.457 52.3566C130.335 52.1872 127.945 48.2486 125.135 43.5901L120.023 35.1202L120.034 34.5379C120.056 33.765 120.045 33.712 119.924 33.9026C119.736 34.1779 119.802 35.0461 120.034 35.4907C120.245 35.893 129.439 51.1602 129.903 51.8696C130.025 52.0601 130.08 52.2189 130.025 52.2189C129.981 52.2189 129.04 50.7261 127.956 48.9051C126.861 47.0946 124.692 43.4843 123.121 40.8903C119.691 35.1943 119.702 35.2049 119.702 34.5908C119.702 34.0402 119.857 33.6697 120.067 33.7438C120.145 33.7756 121.937 30.9275 124.88 26.0467C127.447 21.7799 129.704 18.0426 129.892 17.7355C130.069 17.4391 130.18 17.1638 130.125 17.1426C130.08 17.1109 127.801 20.7953 125.068 25.3267C122.336 29.8582 120.079 33.5532 120.056 33.532C120.023 33.5109 121.827 30.4723 124.051 26.7878C126.263 23.1034 128.498 19.3872 129.007 18.5296C129.726 17.3226 129.981 16.9838 130.125 17.0262C130.246 17.0579 130.379 16.9838 130.49 16.825C130.921 16.1792 128.941 16.2215 156.966 16.2215C180.035 16.2215 182.601 16.2427 182.933 16.3909ZM189.074 25.3585C191.762 29.8264 193.953 33.5109 193.931 33.532C193.898 33.5532 191.762 30.0699 189.185 25.782C183.686 16.6662 183.807 16.8674 184.007 17.0685C184.095 17.1532 186.374 20.8906 189.074 25.3585ZM194.252 34.6437C194.208 35.2684 194.152 35.4696 194.02 35.6495C193.909 35.7872 184.117 52.0284 184.062 52.166C184.029 52.2189 183.984 52.2507 183.962 52.2189C183.929 52.1872 186.064 48.5874 188.709 44.2254C191.342 39.8528 193.654 36.0095 193.831 35.6813C194.185 35.0355 194.263 34.3049 194.042 33.8708C193.931 33.6379 193.931 33.6379 194.108 33.8497C194.241 34.0085 194.274 34.2202 194.252 34.6437ZM131.065 53.0554C131.198 53.1189 131.419 53.1718 131.552 53.1718C131.685 53.1718 131.773 53.2036 131.729 53.2353C131.486 53.4683 130.103 52.7589 130.103 52.3989C130.103 52.3354 130.269 52.4307 130.468 52.6107C130.656 52.7907 130.932 52.9918 131.065 53.0554Z" fill="#0076BD"/>
<path d="M148.591 18.7307C148.314 18.8365 148.015 19.1859 147.96 19.4824C147.86 19.9482 148.358 20.4564 148.9 20.4564C149.774 20.4564 150.128 19.4718 149.454 18.9318C149.122 18.6671 148.9 18.6142 148.591 18.7307ZM149.321 19.0271C149.597 19.2071 149.686 19.4824 149.564 19.7682C149.498 19.9376 149.476 19.9165 149.476 19.6412C149.454 18.9848 148.613 18.773 148.336 19.3447C148.237 19.5459 148.259 19.6624 148.414 19.8847C148.58 20.1282 148.657 20.16 149.066 20.107C149.509 20.0541 149.509 20.0647 149.199 20.1917C148.801 20.3505 148.513 20.287 148.303 20.0012C148.071 19.6729 148.093 19.4294 148.414 19.133C148.723 18.8259 148.978 18.8048 149.321 19.0271ZM149.243 19.3447C149.531 19.6835 149.1 20.2023 148.723 19.9694C148.336 19.7365 148.469 19.1859 148.911 19.1859C149.022 19.1859 149.166 19.26 149.243 19.3447Z" fill="#0076BD"/>
<path d="M156.413 18.953C155.959 19.3553 155.937 19.8529 156.369 20.2129C157.32 20.9964 158.493 19.7576 157.564 18.953C157.364 18.7942 157.11 18.6565 156.988 18.6565C156.866 18.6565 156.612 18.7942 156.413 18.953ZM157.497 19.1435C157.718 19.3447 157.763 19.4718 157.707 19.6941C157.597 20.1282 157.442 20.2446 156.988 20.2446C156.667 20.2446 156.535 20.1811 156.391 19.98C156.147 19.62 156.169 19.4294 156.49 19.133C156.833 18.7942 157.143 18.7942 157.497 19.1435Z" fill="#0076BD"/>
<path d="M156.557 19.2494C156.28 19.5882 156.28 19.5988 156.501 19.9059C156.745 20.2341 157.265 20.2235 157.497 19.8635C157.674 19.6094 157.674 19.5776 157.464 19.313C157.165 18.9212 156.844 18.9 156.557 19.2494ZM157.254 19.2494C157.464 19.3235 157.486 19.7259 157.298 19.9059C156.966 20.2235 156.468 19.9059 156.59 19.4506C156.656 19.1859 156.889 19.1118 157.254 19.2494Z" fill="#0076BD"/>
<path d="M164.534 18.9212C163.837 19.4824 164.191 20.4564 165.076 20.4564C165.873 20.4564 166.293 19.5141 165.751 18.9953C165.353 18.6142 164.943 18.593 164.534 18.9212ZM165.563 19.133C165.862 19.4083 165.906 19.62 165.718 19.9376C165.452 20.4247 164.611 20.3611 164.423 19.8423C164.147 19.0906 164.988 18.5719 165.563 19.133Z" fill="#0076BD"/>
<path d="M164.755 19.1436C164.49 19.3236 164.423 19.8 164.644 20.0118C164.866 20.2235 165.364 20.16 165.552 19.9059C165.784 19.5883 165.773 19.44 165.507 19.1859C165.242 18.9318 165.087 18.9212 164.755 19.1436ZM165.33 19.2495C165.541 19.3236 165.563 19.7259 165.375 19.9059C165.043 20.2235 164.534 19.8424 164.678 19.3977C164.744 19.1859 164.999 19.133 165.33 19.2495Z" fill="#0076BD"/>
<path d="M154.665 22.7751C152.817 23.135 151.29 23.7385 149.907 24.6702C147.219 26.4807 145.426 29.0005 144.729 31.9968C144.464 33.0873 144.342 34.5272 144.486 34.7495C144.574 34.8765 145.05 34.9189 147.263 34.9612L149.94 35.0142L151.5 37.9257C152.917 40.5832 153.083 40.8373 153.359 40.8691C153.658 40.9008 153.713 40.8055 155.284 37.7246C156.181 35.9671 156.944 34.5377 156.988 34.5377C157.032 34.5377 157.796 35.9671 158.692 37.7246C160.263 40.7949 160.33 40.9008 160.617 40.8691C160.883 40.8373 161.06 40.562 162.476 37.9257L164.036 35.0142L165.01 34.9824L165.983 34.9507L165.906 35.6706C165.574 39.0162 162.808 42.0231 159.201 42.9654C158.072 43.2618 155.76 43.2301 154.609 42.9124C151.932 42.1607 149.83 40.4138 148.734 38.021C148.513 37.534 148.27 37.0999 148.203 37.0576C148.137 37.0152 147.407 36.9729 146.577 36.9729C144.563 36.9729 144.574 36.9729 145.083 38.4128C145.548 39.7468 145.957 40.4985 146.798 41.6419C148.602 44.0559 151.235 45.6864 154.488 46.3957C155.472 46.6075 155.793 46.6286 157.309 46.5757C159.776 46.491 161.547 46.0252 163.405 44.9452C166.736 43.0183 168.849 39.9691 169.435 36.2529C169.645 34.9083 169.645 34.1142 169.435 32.8967C169.347 32.3673 169.269 31.9015 169.269 31.8485C169.269 31.8062 169.192 31.785 169.114 31.8168C169.004 31.8591 168.971 31.8274 169.004 31.7321C169.059 31.605 168.506 31.5838 165.474 31.5733H161.878L161.292 32.632C160.761 33.5743 160.529 33.8813 160.529 33.5955C160.529 33.5425 159.81 32.092 158.924 30.3663C157.464 27.5288 157.287 27.2324 157.044 27.2324C156.889 27.2324 156.767 27.2853 156.767 27.3488C156.767 27.4018 156.723 27.4335 156.678 27.4018C156.634 27.3806 155.871 28.7782 154.997 30.5145C154.112 32.2614 153.37 33.6802 153.337 33.6907C153.304 33.6907 153.016 33.2143 152.684 32.632L152.087 31.5733H150.328C149.365 31.5733 148.58 31.5521 148.58 31.5203C148.58 31.3615 149.332 30.0592 149.741 29.5087C150.936 27.91 152.795 26.7242 154.886 26.2266C156.015 25.9513 157.962 25.9513 159.09 26.216C160.794 26.6289 162.398 27.5288 163.604 28.757C164.113 29.2864 164.29 29.4134 164.401 29.3181C164.512 29.2228 164.523 29.2228 164.467 29.3181C164.434 29.3816 164.445 29.4663 164.512 29.5087C164.567 29.5405 164.622 29.4981 164.622 29.4134C164.622 29.2652 164.822 29.244 166.094 29.2652L167.554 29.2864L166.149 29.3181C164.202 29.3711 164.302 29.5616 166.26 29.5616C167.643 29.5616 167.82 29.5405 167.997 29.3499C168.229 29.0958 168.218 29.064 167.444 27.9417C165.795 25.5278 163.051 23.675 160.064 22.9445C158.493 22.5633 156.192 22.4892 154.665 22.7751ZM158.803 22.8915C162.177 23.368 165.485 25.3902 167.333 28.1217C167.975 29.0852 168.019 29.1911 167.809 29.3075C167.72 29.3605 167.709 29.3287 167.753 29.2122C167.798 29.0958 167.632 28.757 167.289 28.27C165.286 25.3902 162.188 23.4738 158.814 23.008C154.41 22.3939 150.162 24.035 147.307 27.4441C145.836 29.2122 144.862 31.6685 144.796 33.8178C144.773 34.3154 144.718 34.7071 144.674 34.6754C144.53 34.5907 144.685 33.0343 144.939 31.9968C146.068 27.3277 149.896 23.802 154.798 22.955C155.771 22.7751 157.763 22.7539 158.803 22.8915ZM158.393 23.1033C158.869 23.1668 159.655 23.315 160.141 23.4315C161.038 23.6644 162.542 24.2467 162.609 24.3949C162.631 24.4373 162.708 24.4796 162.764 24.4796C163.173 24.4796 165.153 25.9619 166.05 26.9465C166.592 27.5394 167.61 28.9264 167.61 29.0746C167.61 29.1064 166.868 29.1381 165.95 29.1381H164.29L163.593 28.4711C162.089 27.0206 160.108 26.0678 158.15 25.856C157.508 25.7819 157.497 25.7819 157.995 25.7607C158.283 25.7607 158.947 25.8666 159.467 26.0148C161.137 26.4807 162.52 27.2641 163.682 28.3864C164.047 28.7464 164.379 29.0323 164.445 29.0323C164.656 29.0323 163.096 27.6135 162.332 27.1159C161.392 26.5019 160.551 26.1313 159.422 25.8243C158.305 25.5278 155.749 25.5066 154.665 25.7925C153.713 26.036 152.319 26.6395 151.622 27.1053C150.969 27.55 149.907 28.5029 149.907 28.6511C149.907 28.7146 150.195 28.4923 150.549 28.1747C151.268 27.4971 151.877 27.0842 152.861 26.6077C153.769 26.1736 155.34 25.7501 155.981 25.7607C156.479 25.7819 156.468 25.7819 155.826 25.856C152.817 26.1948 149.951 28.1853 148.69 30.811C148.491 31.2345 148.303 31.5521 148.27 31.5309C148.181 31.4356 148.9 30.1016 149.409 29.4028C149.697 29.0217 149.885 28.7146 149.83 28.7146C149.52 28.7146 147.816 31.6474 147.971 31.8909C148.015 31.9544 148.834 31.9968 149.94 31.9968H151.854L152.452 33.172C152.784 33.8284 153.049 34.4001 153.038 34.4425C152.994 34.5695 153.414 34.5589 153.492 34.4425C153.536 34.3895 153.503 34.326 153.437 34.3048C153.359 34.2836 153.769 33.3519 154.499 31.9438C155.152 30.6627 155.904 29.1699 156.181 28.6193C156.446 28.0794 156.689 27.6559 156.723 27.6771C156.745 27.7088 156.048 29.1487 155.163 30.8851C154.277 32.6214 153.569 34.0931 153.592 34.146C153.603 34.1989 154.355 32.7908 155.262 31.0227C156.158 29.2546 156.977 27.7512 157.077 27.6876C157.243 27.5924 157.486 28.0053 158.969 30.9274C159.898 32.759 160.606 34.2836 160.551 34.3048C160.484 34.326 160.451 34.4001 160.484 34.4848C160.606 34.7813 160.827 34.506 161.469 33.2672L162.122 31.9968H165.463H168.805L168.937 32.8861C169.17 34.3578 169.026 36.3588 168.605 37.7669C167.853 40.2232 166.415 42.2454 164.379 43.7277C163.007 44.7229 161.646 45.3687 160.02 45.7816C158.814 46.0781 158.559 46.1099 156.988 46.1204C155.605 46.1204 155.096 46.0781 154.322 45.8981C150.66 45.0193 147.783 42.8277 146.09 39.6197C145.802 39.0798 145.26 37.6822 145.26 37.4811C145.26 37.4387 145.847 37.3964 146.577 37.3964H147.894L148.336 38.2963C149.133 39.8844 150.206 41.1126 151.622 42.076C155.284 44.5641 160.584 44.0771 163.693 40.9749C164.656 40.0221 165.01 39.5456 165.507 38.5504C166.039 37.4917 166.359 36.3164 166.415 35.3212L166.448 34.5907L165.153 34.5589C164.268 34.5377 163.848 34.5695 163.848 34.6436C163.848 34.7071 163.804 34.7389 163.759 34.7071C163.715 34.686 163.007 35.9459 162.188 37.5128C161.37 39.0798 160.673 40.3609 160.628 40.3609C160.595 40.3609 159.787 38.8363 158.836 36.9623C157.707 34.7495 157.055 33.5849 156.966 33.6166C156.889 33.6378 156.833 33.7543 156.855 33.8813C156.878 33.9978 156.479 34.8977 155.981 35.8824C155.483 36.8564 154.764 38.2963 154.366 39.0798C153.979 39.8527 153.636 40.4667 153.603 40.4456C153.58 40.4138 154.277 38.9739 155.174 37.2481C156.059 35.5118 156.767 34.0507 156.745 33.9872C156.723 33.9343 155.959 35.3424 155.063 37.1211C154.156 38.8998 153.381 40.3609 153.348 40.3609C153.304 40.3609 152.629 39.1115 151.843 37.5975C151.047 36.0729 150.339 34.7601 150.261 34.686C150.14 34.5695 149.564 34.5377 147.506 34.5377H144.895L144.962 33.606C145.216 29.784 147.816 26.0784 151.478 24.3102C153.68 23.2515 156.125 22.8174 158.393 23.1033ZM157.243 25.7184C157.099 25.7396 156.878 25.7396 156.745 25.7184C156.601 25.6972 156.712 25.676 156.988 25.676C157.265 25.676 157.375 25.6972 157.243 25.7184ZM157.099 27.4441C157.099 27.4971 157.055 27.55 156.988 27.55C156.933 27.55 156.878 27.4971 156.878 27.4441C156.878 27.3806 156.933 27.3383 156.988 27.3383C157.055 27.3383 157.099 27.3806 157.099 27.4441ZM150.383 31.8591C149.996 31.8803 149.376 31.8803 149 31.8591C148.613 31.8379 148.922 31.8274 149.686 31.8274C150.449 31.8274 150.759 31.8379 150.383 31.8591ZM151.655 31.8591C151.545 31.8803 151.368 31.8803 151.268 31.8591C151.157 31.8274 151.246 31.8062 151.456 31.8062C151.666 31.8062 151.755 31.8274 151.655 31.8591ZM152.629 32.9602C152.961 33.606 153.226 34.1566 153.204 34.1778C153.182 34.1989 152.883 33.6696 152.529 33.0026C152.186 32.3355 151.921 31.785 151.954 31.785C151.987 31.785 152.286 32.3144 152.629 32.9602ZM161.447 33.0026C161.093 33.6696 160.794 34.1989 160.772 34.1778C160.728 34.1248 161.945 31.785 162.022 31.785C162.056 31.785 161.79 32.3355 161.447 33.0026ZM167.145 31.8591C166.249 31.8803 164.755 31.8803 163.826 31.8591C162.896 31.8485 163.627 31.8274 165.452 31.8274C167.278 31.8274 168.041 31.8485 167.145 31.8591ZM169.258 33.0873C169.579 35.2048 169.181 37.5869 168.152 39.6727C166.924 42.1925 164.346 44.5429 161.701 45.5487C160.772 45.8981 159.234 46.2898 158.847 46.2793C158.714 46.2793 158.947 46.2051 159.367 46.1099C163.184 45.337 166.271 43.0395 168.019 39.6727C169.081 37.6399 169.491 35.1095 169.114 32.9179C169.037 32.4626 169.015 32.1344 169.059 32.1767C169.092 32.2297 169.192 32.632 169.258 33.0873ZM158.714 37.0364C159.599 38.7727 160.352 40.2867 160.385 40.382C160.418 40.4773 160.507 40.5832 160.595 40.6044C160.706 40.6467 160.706 40.6573 160.573 40.6361C160.462 40.6361 159.854 39.5562 158.814 37.5022C157.364 34.6754 156.878 33.659 157.044 33.8178C157.077 33.839 157.829 35.2895 158.714 37.0364ZM148.779 34.7177C148.06 34.7389 146.887 34.7389 146.179 34.7177C145.459 34.7071 146.046 34.686 147.473 34.686C148.9 34.686 149.487 34.7071 148.779 34.7177ZM165.596 34.7177C165.308 34.7389 164.81 34.7389 164.49 34.7177C164.169 34.6966 164.401 34.686 165.01 34.686C165.618 34.686 165.884 34.6966 165.596 34.7177ZM151.666 37.5658C152.463 39.0904 153.116 40.382 153.105 40.4244C153.105 40.5408 150.14 34.9507 150.14 34.813C150.128 34.633 150.206 34.7813 151.666 37.5658ZM162.387 37.661C161.58 39.1962 160.905 40.435 160.883 40.4244C160.838 40.3714 163.715 34.8554 163.793 34.8554C163.826 34.8554 163.184 36.1153 162.387 37.661ZM166.293 35.3L166.238 35.7553L166.171 35.3847C166.105 35.0036 166.127 34.8554 166.26 34.8554C166.304 34.8554 166.315 35.0565 166.293 35.3ZM165.939 37.047C165.043 40.1068 162.476 42.4889 159.201 43.283C157.984 43.5689 155.793 43.5477 154.643 43.2301C153.614 42.9548 152.463 42.4572 151.788 42.0231C151.036 41.5255 149.819 40.382 149.332 39.6833C148.878 39.048 148.082 37.5234 148.17 37.4387C148.192 37.4175 148.369 37.7246 148.546 38.1269C149.697 40.5938 151.821 42.3513 154.632 43.1242C155.76 43.4418 158.084 43.463 159.201 43.1771C162.454 42.3407 164.965 40.0221 165.828 37.0682C165.95 36.6341 166.072 36.1576 166.072 36.0094C166.094 35.7659 166.094 35.7659 166.138 35.9882C166.16 36.1153 166.072 36.5917 165.939 37.047ZM148.248 37.2376C148.248 37.2587 147.584 37.2693 146.787 37.2587L145.316 37.2481L146.643 37.1952C147.849 37.1423 148.248 37.1529 148.248 37.2376ZM145.116 37.3117C145.05 37.5128 145.614 39.0268 146.09 39.9268C147.694 42.9865 151.091 45.4746 154.477 46.0781C154.886 46.1522 155.207 46.2369 155.174 46.2581C155.085 46.3428 153.525 45.9934 152.729 45.7075C149.763 44.6382 147.385 42.616 145.979 39.9374C145.504 39.0374 144.906 37.4175 144.995 37.2799C145.083 37.1423 145.172 37.1634 145.116 37.3117ZM157.873 46.3957C157.475 46.4275 156.734 46.4275 156.214 46.3957C155.439 46.3428 155.572 46.3322 156.933 46.3322C158.05 46.3322 158.36 46.3534 157.873 46.3957Z" fill="#0076BD"/>
<path d="M157.121 27.857C157.298 28.3228 160.363 34.22 160.385 34.1459C160.429 34.0295 157.254 27.7617 157.154 27.7617C157.11 27.7617 157.099 27.804 157.121 27.857Z" fill="#0076BD"/>
<g clip-path="url(#clip0_539_150)">
<path d="M310.653 120.191C302.64 131.251 291.393 138.453 281.691 147.341C270.2 157.866 258.198 167.824 246.336 177.929C243.178 180.619 239.72 182.949 236.326 185.665C229.93 185.886 223.608 185.886 216.966 185.598C215.484 185.062 214.322 184.598 213.159 184.596C181.79 184.557 150.42 184.565 119.051 184.565C108.956 184.565 98.8612 184.532 88.7673 184.622C87.8904 184.63 87.0205 185.445 86.1474 185.886C82.6526 185.886 79.1578 185.886 75.3578 185.886C68.4755 180.441 61.864 175.038 55.3307 169.54C48.3473 163.663 41.4272 157.709 34.4994 151.764C29.9301 147.844 25.3837 143.896 20.8494 139.934C15.8234 135.542 10.7351 131.217 5.85598 126.663C4.00704 124.937 2.66575 122.654 0.87285 120.563C0.652634 116.523 0.652634 112.546 0.652634 108.26C1.77841 106.922 2.89558 105.884 4.03142 104.867C9.66436 99.8242 15.2558 94.7321 20.952 89.7632C26.2193 85.1683 31.6003 80.7069 36.9322 76.1879C38.2445 75.0757 39.4181 73.3056 40.9009 72.9788C45.9949 71.8562 48.6358 67.0524 52.9971 64.9353C53.1846 65.1612 53.3721 65.387 53.5596 65.6129C52.1839 66.9028 50.6634 68.0697 49.4674 69.5121C47.7771 71.5505 45.1776 72.4069 44.2317 75.6652C43.5077 78.159 40.1084 79.9015 37.8124 81.8748C32.5115 86.4307 27.1574 90.9232 21.8258 95.4426C17.8062 98.8498 13.8731 102.368 9.75045 105.642C2.8454 111.126 2.91322 118.765 9.82665 124.216C15.1392 128.405 20.2242 132.891 25.3826 137.278C32.3491 143.203 39.3109 149.134 46.233 155.112C51.2934 159.482 56.2751 163.945 61.3132 168.342C65.8584 172.308 70.2063 176.569 75.1068 180.024C77.0335 181.383 80.2337 180.848 82.8356 181.287C84.0902 181.498 86.0488 180.248 86.3676 182.871C86.3929 183.079 87.736 183.228 88.4668 183.229C113.046 183.247 137.626 183.256 162.205 183.186C162.979 183.183 163.706 182.196 164.535 181.894C165.478 181.551 166.512 181.29 167.506 181.288C187.844 181.254 208.183 181.13 228.519 181.368C232.886 181.419 236.402 180.458 239.628 177.553C246.2 171.635 252.847 165.8 259.546 160.028C267.612 153.077 275.798 146.268 283.867 139.32C290.485 133.622 297.11 127.924 303.536 122.008C307.751 118.128 307.846 113.139 304.487 108.152C305.154 106.842 305.619 105.8 306.085 104.759C309.119 105.036 308.969 107.994 310.432 109.856C310.653 113.249 310.653 116.566 310.653 120.191Z" fill="#0077BD"/>
<path d="M235.947 43.8859C242.981 49.4843 249.733 55.0545 256.431 60.6892C263.165 66.3529 269.87 72.0512 276.541 77.7904C281.598 82.1412 286.58 86.582 291.598 90.9785C293.135 92.3245 294.74 93.5981 296.186 95.0363C296.537 95.3848 296.381 96.2544 296.381 97.342C296.292 98.1274 296.281 98.4552 296.27 98.783C290.546 98.3394 287.542 93.8485 283.947 90.2592C283.026 89.3395 282.373 88.1316 281.409 87.2715C276.501 82.8922 271.543 78.5696 266.581 74.2536C258.94 67.6083 251.344 60.9076 243.591 54.3976C241.199 52.3891 238.424 50.8116 235.695 49.2708C234.649 48.6803 233.244 48.5526 231.999 48.5408C225.056 48.4749 218.113 48.5091 210.8 48.5091C210.8 47.0322 210.8 45.7575 210.8 44.1844C219.08 43.8859 227.361 43.8859 235.947 43.8859Z" fill="#0077BD"/>
<path d="M101.505 43.8859C101.811 44.6513 101.811 45.4167 101.811 46.5277C97.1772 46.5277 92.6498 46.4556 88.1273 46.5748C86.8858 46.6076 84.9365 45.5282 84.5942 48.1369C84.5643 48.3646 82.984 48.6219 82.1979 48.4709C77.5458 47.5776 74.2298 49.92 71.0495 52.8565C67.5689 56.0703 64.0149 59.2062 60.4125 62.2794C59.1761 63.3342 57.73 64.6701 55.9384 62.4071C56.7689 61.5087 57.4266 60.4484 58.3688 59.8379C62.6491 57.0647 64.9641 52.4631 68.47 49.0021C70.3389 47.1573 72.7434 45.8681 74.9794 44.107C83.768 43.8859 92.4834 43.8859 101.505 43.8859Z" fill="#0077BD"/>
<path d="M296.354 98.9856C296.281 98.4552 296.292 98.1274 296.313 97.5538C299.422 99.7577 302.522 102.207 305.853 104.708C305.619 105.801 305.154 106.842 304.462 107.917C304.917 105.114 302.102 104.666 300.906 103.163C299.68 101.624 297.949 100.496 296.354 98.9856Z" fill="#0077BD"/>
</g>
<defs>
<clipPath id="clip0_539_150">
<rect width="310" height="142" fill="white" transform="translate(0 43.2253)"/>
</clipPath>
</defs>
</svg>
