<svg width="130" height="87" viewBox="0 0 130 87" fill="none" xmlns="http://www.w3.org/2000/svg">
<path d="M5.38852 0.044946C2.61841 0.657566 0.793873 2.42884 0.114664 5.14567C0.00812129 5.58516 -0.04515 37.2949 0.0480748 43.2347C0.0880282 45.4454 0.154617 46.2045 0.38102 47.23C0.700648 48.6284 1.44645 50.8125 1.93921 51.7714C2.11234 52.1176 2.20556 52.424 2.16561 52.4772C2.11234 52.5172 2.15229 52.5571 2.24552 52.5571C2.33874 52.5571 2.37869 52.6104 2.33874 52.677C2.28547 52.7436 2.3121 52.8235 2.37869 52.8501C2.51187 52.9034 6.82685 60.3614 6.78689 60.4946C6.77358 60.5478 6.82685 60.6277 6.89344 60.6677C6.97334 60.7076 8.0654 62.5455 9.31728 64.7429C10.5825 66.9404 11.6745 68.8182 11.7544 68.8981C11.821 68.9913 11.8343 69.0712 11.7678 69.0712C11.7012 69.0712 11.7145 69.1245 11.7944 69.1778C11.8743 69.231 12.74 70.6427 13.7122 72.3341C14.6844 74.0121 15.7098 75.7834 15.9762 76.2629C16.2559 76.7423 16.4823 77.1818 16.4823 77.2484C16.4823 77.315 16.5489 77.4082 16.6154 77.4481C16.6954 77.4881 17.0283 77.9143 17.3879 78.3937C19.8517 81.7631 23.7138 84.4533 27.7625 85.6253C30.7457 86.4909 28.0688 86.4377 64.9858 86.4377L98.4801 86.451L100.078 86.1314C104.526 85.2657 107.59 83.6276 110.733 80.4713C111.691 79.5124 112.451 78.6867 112.424 78.6334C112.411 78.5668 112.49 78.4869 112.597 78.447C112.704 78.3937 112.797 78.2872 112.797 78.1806C112.797 78.0874 112.917 77.9409 113.063 77.861C113.21 77.7811 113.303 77.6612 113.263 77.608C113.223 77.5414 113.29 77.4481 113.409 77.4082C113.516 77.3682 113.569 77.275 113.529 77.1951C113.489 77.1285 113.503 77.0619 113.569 77.0619C113.636 77.0619 113.689 76.982 113.689 76.8888C113.689 76.8089 114.781 74.8379 116.126 72.5339C117.471 70.2299 119.549 66.6341 120.748 64.5432C121.946 62.4656 122.998 60.721 123.065 60.6677C123.145 60.6277 123.198 60.5478 123.185 60.4946C123.158 60.4146 124.077 58.7899 126.86 53.9555C127.273 53.223 127.673 52.5971 127.739 52.5838C127.793 52.5571 127.819 52.4772 127.779 52.424C127.739 52.3574 127.899 51.9179 128.126 51.4651C128.645 50.4396 129.258 48.6816 129.524 47.4298C129.977 45.3122 130.03 44.2868 129.923 40.0117C129.884 38.933 129.91 38.0141 129.95 37.9874C130.003 37.9608 130.017 30.5161 129.977 21.4334L129.91 4.94591L129.604 4.24006C128.765 2.26902 127.513 1.04378 125.582 0.297985L124.849 0.0183104L65.2521 0.00499255C32.477 -0.00832527 5.53502 0.00499255 5.38852 0.044946ZM6.46727 0.311303C6.45395 0.497752 6.25418 0.577659 5.58829 0.697519C4.56282 0.870651 3.40417 1.40336 2.67169 2.04262C1.61958 2.93491 0.660695 4.81273 0.660695 5.97138C0.660695 6.37091 0.607423 6.47746 0.407656 6.47746C0.194571 6.47746 0.167935 6.39755 0.221206 5.8382C0.354385 4.47978 1.29995 2.57533 2.25883 1.76295C3.23103 0.950558 4.48291 0.391209 5.72147 0.218078C6.121 0.164806 6.46727 0.111535 6.46727 0.0982173C6.48058 0.0982173 6.48058 0.191442 6.46727 0.311303ZM22.9015 0.284667C22.9015 0.391209 22.9681 0.484434 23.0346 0.484434C23.1145 0.484434 23.1678 0.391209 23.1678 0.284667C23.1678 0.111535 23.5008 0.0848995 25.3253 0.0848995C26.5106 0.0848995 27.4428 0.111535 27.4162 0.138171C27.3896 0.164806 26.7636 0.231396 26.0312 0.284667C25.2987 0.32462 24.2865 0.431163 23.7671 0.497752C23.261 0.551023 19.1991 0.617613 14.751 0.617613C6.74694 0.617613 6.65372 0.617613 6.65372 0.351256C6.65372 0.0848995 6.74694 0.0848995 14.7776 0.0848995C21.9159 0.0848995 22.9015 0.111535 22.9015 0.284667ZM30.2662 0.178124C30.173 0.20476 30.0132 0.20476 29.9333 0.178124C29.84 0.138171 29.9066 0.111535 30.0931 0.111535C30.2795 0.111535 30.3461 0.138171 30.2662 0.178124ZM33.023 0.337938C33.023 0.551023 32.8765 0.590977 31.7978 0.657566C26.1643 1.01715 20.8905 4.05361 17.5743 8.84803C16.8685 9.88682 16.8419 9.94009 17.0283 9.94009C17.0949 9.94009 17.4678 9.44733 17.854 8.84803C18.8262 7.36975 21.0636 5.13236 22.5685 4.16015C25.6449 2.13584 29.334 0.883969 32.184 0.883969H33.023V7.87583C33.023 14.5347 33.0097 14.8677 32.7833 14.8677C32.6501 14.8677 32.1574 15.0009 31.6912 15.1607C31.012 15.3871 30.6658 15.6135 30.0132 16.2527L29.1742 17.0651L23.1412 13.5759C19.825 11.6448 16.9484 10.0067 16.7619 9.91345L16.4024 9.75364L17.2148 8.55504C18.2802 6.97022 20.6241 4.62628 22.169 3.58749C25.0723 1.6564 28.1087 0.524388 31.2251 0.218078C32.9964 0.0582639 33.023 0.0582639 33.023 0.337938ZM96.6556 0.311303C96.6156 0.537706 94.9775 0.551023 64.9458 0.590977C33.356 0.617613 33.2894 0.617613 33.2894 0.351256C33.2894 0.0848995 33.3693 0.0848995 64.9991 0.0848995C95.124 0.0848995 96.6955 0.0982173 96.6556 0.311303ZM100.504 0.497752C104.34 1.24355 107.683 3.05477 110.533 5.93142C112.237 7.66274 113.649 9.60714 113.329 9.80691C113.223 9.8735 113.13 9.91345 113.116 9.90014C113.103 9.88682 112.783 9.4207 112.411 8.87466C109.907 5.22558 106.244 2.56202 102.143 1.37673C100.638 0.93724 98.7065 0.617613 97.5878 0.617613H96.6822V7.74265V14.8677H64.9592H33.2228L33.2627 7.80924L33.2894 0.750791H64.8926C97.7876 0.737473 96.9486 0.750791 96.9486 0.231396C96.9486 0.0183104 98.7332 0.151489 100.504 0.497752ZM100.052 0.178124C99.9584 0.20476 99.7986 0.20476 99.7187 0.178124C99.6254 0.138171 99.692 0.111535 99.8785 0.111535C100.065 0.111535 100.132 0.138171 100.052 0.178124ZM106.804 0.284667C106.804 0.391209 106.87 0.484434 106.937 0.484434C107.017 0.484434 107.07 0.391209 107.07 0.284667C107.07 0.111535 108.056 0.0848995 115.194 0.0848995C122.332 0.0848995 123.318 0.111535 123.318 0.284667C123.318 0.391209 123.384 0.484434 123.451 0.484434C123.531 0.484434 123.584 0.417845 123.584 0.351256C123.584 0.124853 124.556 0.20476 125.382 0.484434C126.261 0.790744 127.087 1.24355 127.713 1.76295C128.672 2.57533 129.617 4.47978 129.75 5.8382C129.804 6.39755 129.777 6.47746 129.564 6.47746C129.364 6.47746 129.311 6.37091 129.311 5.97138C129.311 4.53305 128.099 2.48211 126.727 1.62977C125.142 0.63093 125.915 0.697519 115.327 0.590977C108.482 0.524388 105.339 0.444481 104.14 0.311303L102.475 0.124853L104.646 0.0982173C106.484 0.0848995 106.804 0.111535 106.804 0.284667ZM100.638 0.297985C100.598 0.337938 100.478 0.351256 100.385 0.311303C100.278 0.271349 100.318 0.231396 100.464 0.231396C100.611 0.218078 100.691 0.258031 100.638 0.297985ZM28.5615 0.497752C27.4162 0.764109 25.8447 1.35009 24.5662 1.98935C22.4753 3.02814 20.997 4.10688 19.2657 5.8382C17.8141 7.28984 17.4412 7.58284 17.4412 7.30316C17.4412 7.24989 17.268 7.09008 17.0416 6.97022C16.6288 6.71718 16.4823 6.85035 16.8419 7.14335C17.2281 7.46297 16.8951 7.54288 16.3491 7.26321C15.883 7.02349 15.8297 6.9569 16.0161 6.85035C16.1493 6.78377 16.3091 6.77045 16.389 6.82372C16.4823 6.87699 16.5089 6.82372 16.4556 6.65059C16.389 6.4375 16.6421 6.09124 17.6542 5.02581C19.0526 3.54753 20.5842 2.29566 22.1157 1.37673L23.1012 0.777426L25.1655 0.577659C26.2975 0.471116 27.6559 0.391209 28.162 0.377892C29.0277 0.377892 29.0543 0.391209 28.5615 0.497752ZM104.473 0.564341L106.87 0.777426L107.856 1.37673C109.374 2.29566 110.879 3.5209 112.357 5.06577L113.716 6.47746L113.156 6.83704C112.85 7.02349 112.584 7.23657 112.557 7.28984C112.451 7.54288 112.224 7.35643 110.693 5.8382C108.961 4.09356 107.483 3.02814 105.405 1.98935C104.127 1.35009 102.555 0.764109 101.41 0.497752L100.877 0.377892L101.477 0.364574C101.81 0.351256 103.155 0.444481 104.473 0.564341ZM21.5564 1.43C19.6386 2.66856 18.0937 4.04029 16.6154 5.79825L16.1227 6.37091L13.3259 4.75946C11.7811 3.86716 10.2362 3.01482 9.87663 2.86832C8.97102 2.46879 7.30629 2.37557 6.37404 2.68188C4.53618 3.28118 3.13781 4.7195 2.65837 6.51741C2.37869 7.56952 2.53851 9.18097 3.03127 10.1532C3.77707 11.6315 4.37637 12.0843 9.01097 14.7478C10.0498 15.3338 10.4892 15.6534 10.4493 15.7866C10.3694 15.9731 1.49972 31.3951 1.04691 32.1143C0.793873 32.5138 0.793873 32.2874 0.833826 18.9962L0.860462 5.47862L1.15345 4.7195C1.93921 2.65524 3.75043 1.17696 5.78806 0.910605C6.22755 0.857333 10.143 0.830698 14.4846 0.857333L22.4087 0.883969L21.5564 1.43ZM99.8918 1.09705C102.436 1.52322 104.966 2.56202 107.403 4.14684C108.921 5.14567 111.052 7.27653 112.118 8.84803L112.917 10.0466L106.857 13.5625L100.797 17.0651L99.9584 16.2394C99.2525 15.5602 98.9729 15.3738 98.2138 15.1474C97.721 14.9875 97.2416 14.8677 97.135 14.8677C96.9752 14.8677 96.9486 13.7623 96.9486 7.87583V0.883969H97.7876C98.2537 0.883969 99.1993 0.977194 99.8918 1.09705ZM125.728 1.36341C127.207 2.06926 128.232 3.18795 128.818 4.7195L129.111 5.47862L129.138 18.9962C129.178 32.2874 129.178 32.5138 128.925 32.1143C128.459 31.3818 119.602 15.9731 119.522 15.7866C119.482 15.6668 119.749 15.4404 120.295 15.1207C120.748 14.8544 121.973 14.1485 123.012 13.5492C124.716 12.5637 124.903 12.4305 124.783 12.1908C124.663 11.9777 124.769 11.8179 125.422 11.1653C125.995 10.5927 126.274 10.1798 126.501 9.58051C126.86 8.62163 126.954 7.13003 126.674 6.57068C126.581 6.37091 126.541 6.14451 126.581 6.07792C126.621 5.99801 126.594 5.94474 126.514 5.94474C126.434 5.94474 126.408 5.87815 126.448 5.81156C126.487 5.73166 126.461 5.67839 126.381 5.67839C126.301 5.67839 126.261 5.62511 126.301 5.55853C126.354 5.49194 126.341 5.41203 126.288 5.38539C126.221 5.37208 126.088 5.15899 125.981 4.94591C125.862 4.7195 125.715 4.57301 125.662 4.58632C125.595 4.61296 125.502 4.58632 125.462 4.50642C125.276 4.22674 124.184 3.54753 123.611 3.36108C122.865 3.12136 121.347 3.0015 121.054 3.16132C120.508 3.46763 119.855 3.65408 119.775 3.53422C119.682 3.3744 119.669 3.3744 120.241 3.08141C120.521 2.94823 121.147 2.81505 121.786 2.7751C123.025 2.70851 123.904 2.9216 124.916 3.56085C125.742 4.08025 126.141 4.53305 126.674 5.53189C127.1 6.3576 127.113 6.45082 127.113 7.86251C127.113 9.28752 127.1 9.36742 126.661 10.1798C126.408 10.6459 125.902 11.2852 125.542 11.6181C124.836 12.2574 124.756 12.5637 125.435 12.0576C125.981 11.6581 126.541 10.9389 126.98 10.0733C127.433 9.19429 127.58 7.52956 127.313 6.51741C126.82 4.66623 125.409 3.25454 123.398 2.61529C122.665 2.37557 120.894 2.50874 120.095 2.86832C119.735 3.01482 118.19 3.86716 116.646 4.75946L113.849 6.37091L113.356 5.79825C111.878 4.04029 110.333 2.66856 108.402 1.43L107.55 0.870651L116.206 0.910605L124.849 0.950558L125.728 1.36341ZM9.71682 3.08141C10.3028 3.3744 10.2895 3.3744 10.1963 3.53422C10.143 3.61412 9.81004 3.54753 9.34392 3.36108C8.3584 2.97487 7.11984 3.02814 5.94787 3.53422C5.34857 3.80057 3.76375 5.11904 3.81702 5.30549C3.84365 5.35876 3.79038 5.41203 3.71048 5.41203C3.64389 5.41203 3.61725 5.4653 3.65721 5.54521C3.69716 5.6118 3.67052 5.67839 3.59062 5.67839C3.51071 5.67839 3.48407 5.73166 3.52403 5.81156C3.56398 5.87815 3.55066 5.94474 3.47076 5.94474C3.39085 5.94474 3.36421 6.03797 3.40417 6.14451C3.45744 6.25105 3.4308 6.34428 3.36421 6.34428C3.2044 6.34428 3.19108 6.51741 3.17776 7.87583C3.17776 9.23425 3.5773 10.1665 4.60277 11.192C5.28198 11.8845 5.48175 12.2041 5.20207 12.2041C4.90908 12.2041 3.72379 10.9389 3.31094 10.1798C2.87145 9.36742 2.85814 9.28752 2.85814 7.86251C2.85814 6.45082 2.87145 6.3576 3.29762 5.53189C3.81702 4.53305 4.11001 4.20011 4.89576 3.65408C5.8946 2.96155 6.70699 2.74846 8.05209 2.80174C8.86447 2.82837 9.39719 2.9216 9.71682 3.08141ZM9.51705 3.60081C9.79672 3.72067 9.99649 3.85384 9.94322 3.8938C9.90326 3.93375 9.67686 3.86716 9.42382 3.73398C8.78457 3.40104 7.18643 3.40104 6.2675 3.7473C5.3752 4.08025 4.22987 5.15899 3.83034 6.05129C3.61725 6.53073 3.53734 6.94358 3.53734 7.80924C3.53734 9.15434 3.8037 9.86018 4.66936 10.8057C5.24203 11.4317 5.70815 11.7247 10.2362 14.3217C11.6612 15.134 12.7533 15.7999 12.6601 15.7999C12.5668 15.7999 12.5402 15.8532 12.5801 15.9331C12.6201 15.9997 12.5935 16.0663 12.5269 16.0663C12.447 16.0663 12.3804 16.1728 12.3671 16.2927C12.3671 16.4392 12.3271 16.4658 12.2872 16.3593C12.2605 16.2794 12.1673 16.1995 12.1007 16.1995C11.9143 16.1995 10.9154 15.5469 10.9287 15.427C10.9687 15.1873 10.9021 15.0808 10.7956 15.2406C10.6357 15.4936 5.45511 12.5104 5.45511 12.1642C5.45511 11.9644 5.53502 11.9777 6.09437 12.2973C6.44063 12.5104 7.87896 13.3228 9.29064 14.1352C11.0619 15.1474 11.8477 15.6668 11.8477 15.8266C11.8477 15.9597 11.9143 16.0663 11.9942 16.0663C12.0741 16.0663 12.114 15.9731 12.0608 15.8665C12.0208 15.76 12.0608 15.6668 12.154 15.6668C12.3005 15.6668 11.1818 15.0009 9.1841 13.8955C8.78457 13.6824 8.3584 13.416 8.23854 13.3228C8.13199 13.2163 7.99882 13.1364 7.95886 13.1364C7.90559 13.1364 7.43947 12.8833 6.89344 12.577C4.28314 11.0854 3.51071 10.1265 3.36421 8.14218C3.31094 7.39639 3.3509 7.05012 3.59062 6.41087C3.75043 5.97138 3.88361 5.50525 3.89693 5.38539C3.91024 5.26553 3.9502 5.17231 3.99015 5.18563C4.0301 5.19894 4.3231 4.94591 4.65604 4.62628C5.24203 4.05361 6.02778 3.61412 6.85348 3.40104C7.43947 3.24122 8.93106 3.36108 9.51705 3.60081ZM123.917 3.66739C124.25 3.81389 124.743 4.1202 125.009 4.33329C125.276 4.55969 125.542 4.70618 125.595 4.66623C125.648 4.6396 125.742 4.67955 125.795 4.75946C125.848 4.866 125.835 4.87932 125.742 4.82605C125.502 4.67955 125.555 4.81273 125.915 5.35876C126.701 6.51741 126.847 8.34195 126.261 9.71369C125.995 10.3263 124.809 11.6714 124.53 11.6714C124.45 11.6714 124.69 11.3917 125.049 11.0588C125.422 10.7125 125.875 10.0999 126.075 9.68705C126.394 9.0478 126.448 8.78144 126.434 7.80924C126.434 6.9569 126.354 6.51741 126.141 6.03797C125.742 5.15899 124.596 4.08025 123.704 3.7473C122.785 3.40104 121.187 3.40104 120.548 3.73398C120.295 3.86716 120.068 3.93375 120.028 3.90712C119.935 3.80057 120.428 3.56085 121.014 3.41436C121.76 3.22791 123.211 3.36108 123.917 3.66739ZM15.9629 6.57068C16.0028 6.59732 15.9629 6.67722 15.883 6.75713C15.7764 6.86367 14.9507 6.4375 12.993 5.3188C11.0619 4.18679 10.3028 3.68071 10.396 3.58749C10.5026 3.48094 11.3283 3.8938 13.2327 4.98586C14.6977 5.82488 15.9362 6.54404 15.9629 6.57068ZM119.695 3.7473C119.669 3.76062 118.444 4.47978 116.952 5.33212C114.821 6.57068 114.208 6.86367 114.062 6.74381C113.915 6.62395 114.035 6.50409 114.701 6.14451C115.154 5.90479 116.393 5.19894 117.458 4.57301C118.843 3.76062 119.442 3.49426 119.562 3.58749C119.655 3.65408 119.709 3.73398 119.695 3.7473ZM9.79672 4.18679C10.4759 4.53305 16.3757 7.90246 16.4823 8.00901C16.5089 8.03564 16.2292 8.51508 15.883 9.10107C15.5234 9.67373 14.5778 11.2719 13.7921 12.6436C12.9664 14.0686 12.2738 15.134 12.1806 15.1074C12.0874 15.0808 10.5558 14.2284 8.78457 13.203C4.30978 10.6193 3.79038 10.06 3.79038 7.80924C3.79038 6.83704 3.84365 6.584 4.14996 5.99801C4.49623 5.33212 5.28198 4.51974 5.88128 4.20011C7.06657 3.56085 8.55816 3.56085 9.79672 4.18679ZM123.744 4.05361C124.57 4.41319 125.395 5.18563 125.822 5.99801C126.128 6.584 126.181 6.83704 126.181 7.80924C126.181 10.06 125.662 10.6193 121.187 13.203C119.416 14.2284 117.884 15.0808 117.791 15.1074C117.698 15.134 117.005 14.0686 116.179 12.6436C115.394 11.2719 114.448 9.67373 114.089 9.10107C113.742 8.51508 113.463 8.03564 113.489 8.00901C113.583 7.91578 119.442 4.55969 120.055 4.24006C120.428 4.05361 120.907 3.85384 121.12 3.80057C121.76 3.62744 123.078 3.76062 123.744 4.05361ZM13.5257 5.82488C15.3103 6.86367 16.7753 7.75597 16.7753 7.82256C16.7753 7.88915 16.6154 7.83587 16.4157 7.68938C16.2026 7.5562 14.8175 6.73049 13.3126 5.86484C10.4493 4.22674 9.98317 3.94707 10.1696 3.94707C10.2229 3.94707 11.7411 4.78609 13.5257 5.82488ZM119.655 4.13352C119.056 4.54637 113.25 7.84919 113.13 7.84919C113.05 7.84919 112.97 7.95573 112.97 8.08891C112.957 8.22209 113.023 8.302 113.103 8.26204C113.263 8.20877 113.889 9.07443 113.889 9.34079C113.876 9.70037 113.583 9.46065 113.01 8.60831C112.411 7.72933 112.384 7.66274 112.597 7.44966C112.97 7.07676 113.782 6.69054 113.836 6.86367C113.862 6.94358 113.955 6.97022 114.022 6.93026C114.115 6.87699 114.129 6.90363 114.075 6.98353C114.022 7.07676 114.022 7.14335 114.089 7.14335C114.142 7.14335 115.42 6.42418 116.925 5.54521C118.43 4.66623 119.709 3.94707 119.789 3.94707C119.855 3.94707 119.802 4.02698 119.655 4.13352ZM0.527516 19.7287C0.527516 31.3019 0.500881 32.8467 0.327749 32.8467C0.154617 32.8467 0.127982 31.3019 0.127982 19.7287C0.127982 8.1555 0.154617 6.61063 0.327749 6.61063C0.500881 6.61063 0.527516 8.1555 0.527516 19.7287ZM129.844 19.7154C129.844 32.0743 129.83 32.8201 129.617 32.8734C129.391 32.94 129.377 32.2608 129.417 19.7686C129.444 8.20877 129.471 6.61063 129.644 6.61063C129.817 6.61063 129.844 8.19546 129.844 19.7154ZM16.975 8.60831C16.389 9.44733 16.136 9.66042 16.0694 9.36742C16.0161 9.16766 16.722 8.20877 16.8685 8.26204C16.9617 8.302 17.0683 8.27536 17.1082 8.20877C17.1482 8.1555 17.1082 8.07559 17.0283 8.04896C16.9351 8.02232 16.9351 7.88915 17.0549 7.63611C17.2014 7.31648 17.2414 7.28984 17.4145 7.46297C17.5877 7.63611 17.5344 7.76928 16.975 8.60831ZM116.179 13.1364C117.298 15.0808 117.445 15.427 117.112 15.4137C117.072 15.4137 116.299 14.1352 115.394 12.577C114.102 10.3263 113.796 9.72701 113.969 9.66042C114.115 9.60714 114.275 9.78028 114.541 10.2597C114.741 10.6326 115.474 11.9244 116.179 13.1364ZM16.0694 10.0067C15.9629 10.1532 15.2171 11.4583 14.3914 12.8966C13.3393 14.7212 12.8332 15.4936 12.7 15.4404C12.5002 15.3604 12.4203 15.5203 14.5778 11.778C15.4302 10.2864 15.843 9.70037 16.0028 9.71369C16.2026 9.72701 16.2159 9.76696 16.0694 10.0067ZM16.5622 10.2331C16.5489 10.3529 13.5257 15.6534 9.84999 22.046C4.46959 31.3552 3.11117 33.6192 2.96468 33.4993C2.81818 33.3661 2.8315 33.2729 3.04459 32.9267C3.25767 32.5937 8.61144 23.2979 15.0173 12.1642C16.1626 10.1798 16.6021 9.62046 16.5622 10.2331ZM120.375 21.5532C124.064 27.9458 127.1 33.2063 127.127 33.233C127.153 33.2596 127.207 33.2596 127.233 33.233C127.273 33.2063 125.289 29.7037 122.838 25.4554C120.375 21.207 118.19 17.4114 117.977 17.0385C117.724 16.599 117.644 16.3593 117.764 16.4126C117.977 16.4925 118.883 16.013 119.163 15.6801C119.323 15.4936 119.336 15.4936 119.296 15.6801C119.256 15.8665 128.552 32.1542 128.805 32.314C128.858 32.354 128.578 32.5671 128.179 32.7802C127.779 33.0066 127.446 33.2196 127.446 33.2729C127.446 33.4461 127.62 33.3928 128.232 33.0465C128.911 32.647 129.005 32.647 129.098 32.94C129.164 33.193 129.524 36.922 129.63 38.5734L129.684 39.5723L129.524 38.8398C129.244 37.5879 128.632 35.8965 128.006 34.6447C127.686 33.9788 127.393 33.4194 127.353 33.3795C127.327 33.3528 127.193 33.3928 127.06 33.4727C126.834 33.6192 126.208 32.5671 120.122 22.0194C116.433 15.6268 113.396 10.3663 113.369 10.2997C113.303 10.1798 113.436 9.94009 113.569 9.94009C113.636 9.94009 116.686 15.174 120.375 21.5532ZM23.1678 13.8688C26.2043 15.6135 28.7746 17.1184 28.8812 17.2116C29.041 17.3448 27.9889 19.2493 22.4353 28.878C18.7863 35.204 15.7365 40.4512 15.6566 40.5311C15.5367 40.6643 14.165 39.9318 9.45046 37.2017L3.39085 33.7124L10.1297 22.0327C13.8453 15.6135 16.8419 10.313 16.7886 10.2597C16.6954 10.1399 16.3225 9.92677 23.1678 13.8688ZM113.17 10.273C113.13 10.313 116.126 15.6135 119.842 22.0327L126.581 33.7124L120.588 37.1617C117.298 39.0662 114.568 40.6643 114.528 40.7309C114.488 40.7842 111.398 35.5503 107.683 29.1044C103.421 21.7397 100.957 17.3315 101.037 17.2516C101.157 17.1317 113.076 10.2198 113.183 10.2064C113.21 10.2064 113.21 10.2331 113.17 10.273ZM124.184 11.9111C124.05 12.031 118.71 15.1074 118.124 15.4004C117.937 15.4936 117.858 15.5069 117.924 15.427C118.111 15.2406 124.024 11.8179 124.184 11.8046C124.263 11.8046 124.263 11.8445 124.184 11.9111ZM124.49 12.4039C124.477 12.4305 123.305 13.1097 121.893 13.9221C120.308 14.8277 119.256 15.3604 119.123 15.3205C118.99 15.2672 118.923 15.2939 118.95 15.4004C118.976 15.4936 118.79 15.6934 118.537 15.8399C118.111 16.0929 118.097 16.0929 118.151 15.8532C118.217 15.5069 124.437 11.8978 124.49 12.1642C124.516 12.2707 124.516 12.3773 124.49 12.4039ZM33.1429 15.1873C33.1162 15.2139 32.7966 15.2672 32.4237 15.3072C31.9975 15.3604 31.851 15.3471 32.0242 15.2672C32.2772 15.1607 33.2627 15.0808 33.1429 15.1873ZM97.9474 15.2672C98.1205 15.3471 97.974 15.3604 97.5479 15.3072C97.1883 15.2672 96.8553 15.2139 96.8287 15.1873C96.7088 15.0808 97.6944 15.1607 97.9474 15.2672ZM31.1585 15.7467C30.8256 15.9331 30.3461 16.2794 30.0931 16.5058C29.6536 16.9053 29.6536 16.9053 29.9599 16.5457C30.3195 16.1329 31.3849 15.4004 31.6113 15.4004C31.6912 15.4004 31.4915 15.5602 31.1585 15.7467ZM97.428 15.5469C98.3203 15.7067 99.0927 16.1062 99.7054 16.7588C100.052 17.1184 113.143 39.5323 114.009 41.2503C114.581 42.3956 114.635 43.6475 114.129 44.7795C113.822 45.4854 100.971 67.7794 100.185 68.978C99.7853 69.5773 99.399 69.9902 98.9995 70.2166C97.6944 70.989 99.9051 70.9357 64.9592 70.9357H32.7567L31.9043 70.6561C31.2651 70.443 30.8788 70.2166 30.4394 69.7638C29.9865 69.3243 28.1087 66.1546 22.9547 57.245C19.1725 50.6926 15.9496 45.0592 15.8031 44.7129C15.3902 43.794 15.4168 42.4622 15.8697 41.5033C16.0561 41.1038 19.2124 35.5902 22.8748 29.2509C28.6548 19.2626 30.0665 16.6922 29.2008 17.7577C29.0277 17.9841 29.0277 17.9707 29.1608 17.6911C29.2407 17.5313 29.3606 17.4247 29.4405 17.478C29.5071 17.5179 29.8134 17.2782 30.1064 16.9586C30.7856 16.1728 31.4382 15.7733 32.3571 15.5868C33.356 15.3604 96.2427 15.3338 97.428 15.5469ZM99.0927 15.7866C99.4124 15.9864 99.8252 16.3326 100.012 16.5457C100.318 16.9053 100.318 16.9053 99.8785 16.5058C99.6254 16.2794 99.146 15.9331 98.8131 15.7467C98.4801 15.5602 98.2803 15.4004 98.3603 15.4004C98.4268 15.4004 98.7598 15.5735 99.0927 15.7866ZM117.871 15.9065C118.017 16.306 117.791 16.3992 117.445 16.053C117.218 15.8266 117.192 15.7467 117.338 15.6534C117.591 15.4936 117.751 15.5602 117.871 15.9065ZM12.1806 16.599C12.2206 16.6656 12.1939 16.7322 12.114 16.7322C12.0341 16.7322 11.9942 16.7855 12.0341 16.8387C12.0741 16.9053 11.9942 17.0784 11.8477 17.2249C11.7145 17.3848 11.6346 17.5446 11.6745 17.5845C11.7278 17.6245 11.6879 17.6644 11.5946 17.6644C11.5014 17.6644 11.4615 17.7177 11.5014 17.771C11.5414 17.8376 11.4615 18.0107 11.315 18.1572C11.1818 18.317 11.1019 18.4768 11.1418 18.5168C11.1951 18.5567 11.1551 18.5967 11.0752 18.5967C10.982 18.5967 10.9154 18.6899 10.9154 18.7964C10.9154 18.903 10.8488 18.9962 10.7689 18.9962C10.7023 18.9962 10.6757 19.0495 10.7157 19.1294C10.7556 19.196 10.729 19.2626 10.6491 19.2626C10.5692 19.2626 10.5425 19.3158 10.5825 19.3957C10.6224 19.4623 10.5958 19.5289 10.5292 19.5289C10.4493 19.5289 10.3827 19.6221 10.3827 19.7287C10.3827 19.8352 10.3161 19.9285 10.2362 19.9285C10.1696 19.9285 10.143 19.9817 10.1829 20.0616C10.2229 20.1282 10.1963 20.1948 10.1163 20.1948C10.0364 20.1948 9.99649 20.2481 10.0364 20.3014C10.0764 20.3679 9.99649 20.5411 9.84999 20.6876C9.71682 20.8474 9.63691 21.0072 9.67686 21.0472C9.73013 21.0871 9.69018 21.1271 9.59695 21.1271C9.50373 21.1271 9.47709 21.1937 9.51705 21.2602C9.557 21.3401 9.50373 21.4334 9.39719 21.4733C9.27733 21.5133 9.22406 21.6065 9.26401 21.6731C9.30396 21.7397 9.26401 21.793 9.1841 21.793C9.1042 21.793 9.07756 21.8462 9.11751 21.9261C9.15747 21.9927 9.13083 22.0593 9.06424 22.0593C8.98433 22.0593 8.91775 22.1525 8.91775 22.2591C8.91775 22.3656 8.85116 22.4588 8.77125 22.4588C8.70466 22.4588 8.67802 22.5121 8.71798 22.592C8.75793 22.6586 8.7313 22.7252 8.65139 22.7252C8.57148 22.7252 8.53153 22.7785 8.57148 22.8451C8.61144 22.9117 8.55816 23.0049 8.4383 23.0448C8.33176 23.0848 8.27849 23.178 8.31844 23.2579C8.3584 23.3245 8.33176 23.3911 8.25185 23.3911C8.17195 23.3911 8.14531 23.4444 8.18527 23.5243C8.22522 23.5909 8.19858 23.6575 8.11868 23.6575C8.03877 23.6575 8.01213 23.724 8.05209 23.7906C8.09204 23.8705 8.03877 23.9638 7.93223 24.0037C7.81237 24.0437 7.7591 24.1369 7.79905 24.2035C7.839 24.2701 7.79905 24.3233 7.71914 24.3233C7.63923 24.3233 7.6126 24.3766 7.65255 24.4565C7.69251 24.5231 7.66587 24.5897 7.58596 24.5897C7.50606 24.5897 7.47942 24.6563 7.51937 24.7229C7.55933 24.8028 7.50606 24.896 7.39951 24.936C7.27965 24.9759 7.22638 25.0691 7.26634 25.1357C7.30629 25.2023 7.26634 25.2556 7.18643 25.2556C7.10652 25.2556 7.06657 25.3089 7.10652 25.3754C7.14648 25.442 7.0932 25.5353 6.97334 25.5752C6.8668 25.6152 6.81353 25.7084 6.85348 25.7883C6.89344 25.8549 6.8668 25.9215 6.78689 25.9215C6.70699 25.9215 6.68035 25.9748 6.7203 26.0547C6.76026 26.1212 6.73362 26.1878 6.65372 26.1878C6.57381 26.1878 6.53386 26.2411 6.57381 26.3077C6.61376 26.3743 6.56049 26.4675 6.44063 26.5075C6.33409 26.5474 6.28082 26.6406 6.32077 26.7206C6.36072 26.7871 6.33409 26.8537 6.24086 26.8537C6.14764 26.8537 6.121 26.8937 6.16096 26.947C6.21423 26.9869 6.14764 27.1068 6.01446 27.2133C5.86796 27.3465 5.85465 27.3731 5.98782 27.3199C6.121 27.2666 6.10768 27.2932 5.96119 27.4264C5.82801 27.5329 5.76142 27.6528 5.81469 27.6928C5.85465 27.746 5.81469 27.786 5.72147 27.786C5.62824 27.786 5.58829 27.8259 5.62824 27.8792C5.68151 27.9192 5.61493 28.039 5.48175 28.1456C5.33525 28.2787 5.32193 28.3054 5.45511 28.2521C5.58829 28.1988 5.57497 28.2255 5.42848 28.3586C5.2953 28.4652 5.22871 28.585 5.28198 28.625C5.32193 28.6783 5.2953 28.7182 5.20207 28.7182C5.10885 28.7182 5.06889 28.7715 5.10885 28.8381C5.1488 28.9047 5.09553 28.9979 4.97567 29.0379C4.86913 29.0778 4.81586 29.171 4.85581 29.2509C4.89576 29.3175 4.86913 29.3841 4.7759 29.3841C4.68268 29.3841 4.65604 29.4241 4.696 29.4773C4.74927 29.5173 4.68268 29.6372 4.5495 29.7437C4.403 29.8769 4.38969 29.9035 4.52286 29.8502C4.65604 29.797 4.64272 29.8236 4.49623 29.9568C4.36305 30.0633 4.29646 30.1832 4.34973 30.2231C4.38969 30.2764 4.34973 30.3164 4.25651 30.3164C4.16328 30.3164 4.12333 30.3563 4.16328 30.4096C4.21655 30.4495 4.14996 30.5694 4.01679 30.6759C3.87029 30.8091 3.85697 30.8358 3.99015 30.7825C4.09669 30.7292 4.07006 30.7958 3.93688 30.9023C3.79038 31.0222 3.71048 31.1154 3.76375 31.1154C3.81702 31.1154 3.73711 31.2353 3.59062 31.3818C3.4308 31.5416 3.3509 31.7147 3.39085 31.7813C3.44412 31.8612 3.40417 31.9145 3.31094 31.9145C3.21772 31.9145 3.17776 31.9545 3.21772 31.9944C3.27099 32.0344 3.19108 32.1809 3.04459 32.3274C2.89809 32.4739 2.81818 32.647 2.85814 32.7136C2.91141 32.7935 2.87145 32.8467 2.79155 32.8467C2.71164 32.8467 2.685 32.9 2.72496 32.9799C2.76491 33.0465 2.73828 33.1131 2.64505 33.1131C2.55183 33.1131 2.52519 33.1531 2.56514 33.193C2.6051 33.2463 2.51187 33.526 2.32542 33.8323C1.81935 34.7112 1.04691 36.6823 0.647377 38.1073C0.287796 39.4258 0.274478 39.4258 0.341067 38.64C0.500881 36.4426 0.807191 33.1531 0.87378 32.94C0.967005 32.6337 1.10018 32.647 1.73944 33.0598C2.03243 33.2463 2.35206 33.3661 2.43197 33.3395C2.52519 33.3129 2.27215 33.0998 1.89925 32.8601L1.19341 32.4206L1.40649 32.0344C1.51304 31.808 2.33874 30.3563 3.24435 28.8114C4.14996 27.2533 6.16096 23.764 7.71914 21.0605C9.27733 18.3436 10.6091 16.0663 10.6757 15.9731C10.7822 15.8532 10.9554 15.8798 11.4481 16.1329C11.8077 16.3193 12.1273 16.5191 12.1806 16.599ZM100.811 17.6644C100.891 17.8109 100.917 17.9308 100.891 17.9308C100.851 17.9308 100.757 17.8109 100.678 17.6644C100.598 17.5179 100.571 17.3981 100.598 17.3981C100.638 17.3981 100.731 17.5179 100.811 17.6644ZM28.8279 18.4635C28.708 18.6766 28.5882 18.863 28.5482 18.863C28.5216 18.863 28.5749 18.6766 28.6947 18.4635C28.8146 18.2371 28.9344 18.064 28.9744 18.064C29.001 18.064 28.9478 18.2371 28.8279 18.4635ZM101.277 18.4635C101.397 18.6766 101.45 18.863 101.423 18.863C101.383 18.863 101.264 18.6766 101.144 18.4635C101.024 18.2371 100.971 18.064 100.997 18.064C101.037 18.064 101.157 18.2371 101.277 18.4635ZM28.455 19.0894C27.576 20.6343 27.1232 21.3934 27.0833 21.3934C27.0433 21.3934 27.0433 21.3535 27.0699 21.2869C27.9489 19.7553 28.4017 18.9962 28.4417 18.9962C28.4816 18.9962 28.4816 19.0362 28.455 19.0894ZM102.209 20.0883C102.555 20.7009 102.875 21.2336 102.902 21.2869C102.928 21.3535 102.928 21.3934 102.888 21.3934C102.848 21.3934 102.396 20.6343 101.517 19.0894C101.49 19.0362 101.49 18.9962 101.53 18.9962C101.557 18.9962 101.863 19.489 102.209 20.0883ZM26.8302 21.9261C26.7104 22.1392 26.5905 22.3257 26.5505 22.3257C26.5239 22.3257 26.5772 22.1392 26.697 21.9261C26.8169 21.6997 26.9368 21.5266 26.9767 21.5266C27.0034 21.5266 26.9501 21.6997 26.8302 21.9261ZM103.275 21.9261C103.394 22.1392 103.448 22.3257 103.421 22.3257C103.381 22.3257 103.261 22.1392 103.141 21.9261C103.021 21.6997 102.968 21.5266 102.995 21.5266C103.035 21.5266 103.155 21.6997 103.275 21.9261ZM26.1643 23.0848C25.9646 23.4444 25.7382 23.7773 25.6583 23.8572C25.5783 23.9238 25.6849 23.6841 25.898 23.3245C26.0977 22.9516 26.2975 22.6187 26.3241 22.5521C26.3508 22.4988 26.4174 22.4588 26.4573 22.4588C26.484 22.4588 26.3641 22.7385 26.1643 23.0848ZM104.074 23.3245C104.287 23.6841 104.393 23.9238 104.313 23.8572C104.233 23.7773 104.007 23.4177 103.807 23.0581C103.594 22.6852 103.488 22.4455 103.568 22.5254C103.647 22.592 103.874 22.9516 104.074 23.3245ZM25.3653 24.4565C25.2454 24.6696 25.1255 24.8561 25.0856 24.8561C25.0589 24.8561 25.1122 24.6696 25.2321 24.4565C25.3519 24.2301 25.4718 24.057 25.5118 24.057C25.5384 24.057 25.4851 24.2301 25.3653 24.4565ZM104.739 24.4565C104.859 24.6696 104.913 24.8561 104.886 24.8561C104.846 24.8561 104.726 24.6696 104.606 24.4565C104.486 24.2301 104.433 24.057 104.46 24.057C104.5 24.057 104.62 24.2301 104.739 24.4565ZM24.8325 25.3888C24.7127 25.6019 24.5928 25.7883 24.5529 25.7883C24.5262 25.7883 24.5795 25.6019 24.6994 25.3888C24.8192 25.1624 24.9391 24.9892 24.979 24.9892C25.0057 24.9892 24.9524 25.1624 24.8325 25.3888ZM105.272 25.3888C105.392 25.6019 105.445 25.7883 105.419 25.7883C105.379 25.7883 105.259 25.6019 105.139 25.3888C105.019 25.1624 104.966 24.9892 104.993 24.9892C105.032 24.9892 105.152 25.1624 105.272 25.3888ZM24.1667 26.5474C23.9669 26.907 23.7405 27.2399 23.6606 27.3199C23.5807 27.3864 23.6872 27.1467 23.9003 26.7871C24.1001 26.4142 24.2998 26.0813 24.3265 26.0147C24.3531 25.9614 24.4197 25.9215 24.4596 25.9215C24.4863 25.9215 24.3664 26.2012 24.1667 26.5474ZM106.071 26.7871C106.284 27.1467 106.391 27.3864 106.311 27.3199C106.231 27.2399 106.005 26.8804 105.805 26.5208C105.592 26.1479 105.485 25.9082 105.565 25.9881C105.645 26.0547 105.872 26.4142 106.071 26.7871ZM23.3676 27.9192C23.2477 28.1322 23.1279 28.3187 23.0879 28.3187C23.0613 28.3187 23.1145 28.1322 23.2344 27.9192C23.3543 27.6928 23.4741 27.5196 23.5141 27.5196C23.5407 27.5196 23.4874 27.6928 23.3676 27.9192ZM106.737 27.9192C106.857 28.1322 106.91 28.3187 106.884 28.3187C106.844 28.3187 106.724 28.1322 106.604 27.9192C106.484 27.6928 106.431 27.5196 106.457 27.5196C106.497 27.5196 106.617 27.6928 106.737 27.9192ZM22.8349 28.8514C22.715 29.0645 22.5952 29.2509 22.5552 29.2509C22.5286 29.2509 22.5818 29.0645 22.7017 28.8514C22.8216 28.625 22.9414 28.4519 22.9814 28.4519C23.008 28.4519 22.9547 28.625 22.8349 28.8514ZM107.27 28.8514C107.39 29.0645 107.443 29.2509 107.416 29.2509C107.376 29.2509 107.257 29.0645 107.137 28.8514C107.017 28.625 106.964 28.4519 106.99 28.4519C107.03 28.4519 107.15 28.625 107.27 28.8514ZM22.169 30.0101C21.9692 30.3696 21.7428 30.7026 21.6629 30.7825C21.583 30.8491 21.6895 30.6094 21.9026 30.2498C22.1024 29.8769 22.3022 29.5439 22.3288 29.4773C22.3554 29.4241 22.422 29.3841 22.462 29.3841C22.4886 29.3841 22.3687 29.6638 22.169 30.0101ZM108.069 30.2498C108.282 30.6094 108.389 30.8491 108.309 30.7825C108.229 30.7026 108.002 30.343 107.803 29.9834C107.59 29.6105 107.483 29.3708 107.563 29.4507C107.643 29.5173 107.869 29.8769 108.069 30.2498ZM21.3699 31.3818C21.2501 31.5949 21.1302 31.7813 21.0902 31.7813C21.0636 31.7813 21.1169 31.5949 21.2367 31.3818C21.3566 31.1554 21.4765 30.9823 21.5164 30.9823C21.543 30.9823 21.4898 31.1554 21.3699 31.3818ZM108.735 31.3818C108.855 31.5949 108.908 31.7813 108.881 31.7813C108.841 31.7813 108.722 31.5949 108.602 31.3818C108.482 31.1554 108.429 30.9823 108.455 30.9823C108.495 30.9823 108.615 31.1554 108.735 31.3818ZM20.997 32.0077C20.118 33.5526 19.6652 34.3117 19.6253 34.3117C19.5853 34.3117 19.5853 34.2718 19.612 34.2052C20.4909 32.6736 20.9437 31.9145 20.9837 31.9145C21.0236 31.9145 21.0236 31.9545 20.997 32.0077ZM109.667 33.0066C110.013 33.6192 110.333 34.1519 110.36 34.2052C110.386 34.2718 110.386 34.3117 110.346 34.3117C110.306 34.3117 109.854 33.5526 108.975 32.0077C108.948 31.9545 108.948 31.9145 108.988 31.9145C109.015 31.9145 109.321 32.4073 109.667 33.0066ZM0.514199 33.4727C0.514199 33.6858 0.434292 34.5914 0.327749 35.5103L0.154617 37.175L0.1413 35.1374C0.127982 33.4194 0.154617 33.1131 0.327749 33.1131C0.460927 33.1131 0.527516 33.233 0.514199 33.4727ZM129.83 35.1374L129.817 37.175L129.644 35.5103C129.404 33.2596 129.404 33.1131 129.644 33.1131C129.817 33.1131 129.844 33.4194 129.83 35.1374ZM2.76491 34.3517C1.81935 36.2295 1.08687 38.4935 0.807191 40.4379C0.634059 41.6232 0.594106 44.3134 0.727284 45.4321C0.967005 47.4431 1.75276 50.0134 2.63173 51.6915C3.0579 52.5172 3.09786 52.637 2.89809 52.6504C2.76491 52.6637 2.55183 52.5305 2.44528 52.344C2.25883 52.0777 2.25883 51.9845 2.40533 51.8113C2.55183 51.6249 2.53851 51.6116 2.32542 51.6515C2.11234 51.6782 1.97916 51.4651 1.55299 50.3597C-0.497956 44.9926 -0.218282 39.3059 2.35206 34.2185C2.63173 33.6858 2.75159 33.5526 2.88477 33.6591C3.01795 33.779 2.99131 33.9122 2.76491 34.3517ZM127.859 34.7379C128.565 36.1496 129.084 37.6678 129.457 39.479C129.857 41.3435 129.884 44.9393 129.524 46.6973C129.005 49.2676 127.553 52.9034 127.113 52.7436C127.007 52.6903 126.914 52.637 126.914 52.6104C126.914 52.5704 127.127 52.1176 127.393 51.5849C129.963 46.4975 129.977 39.8519 127.406 34.7645C126.967 33.8855 126.914 33.6458 127.207 33.6458C127.26 33.6458 127.553 34.1386 127.859 34.7379ZM9.11751 37.3082C12.2738 39.1194 14.9774 40.6776 15.1239 40.7709C15.4035 40.9573 15.4035 40.9573 15.1638 41.6632C14.8442 42.5688 14.8575 43.7674 15.1771 44.6996C15.3103 45.0991 15.4168 45.4321 15.4035 45.4454C13.7788 46.4043 3.27099 52.424 3.25767 52.3973C3.09786 52.2109 2.3121 50.4796 1.99248 49.6006C0.367702 45.1924 0.514199 40.1449 2.37869 35.8299C3.09786 34.1519 3.21772 33.9122 3.31094 33.9654C3.3509 33.9921 5.97451 35.497 9.11751 37.3082ZM128.152 37.3215C128.831 39.3592 129.071 40.8508 129.071 43.1681C129.084 45.5253 128.858 46.8704 128.086 49.2277C127.766 50.2132 126.927 52.1576 126.714 52.3973C126.701 52.4106 123.97 50.8658 120.668 48.948C117.351 47.0436 114.608 45.512 114.555 45.5653C114.448 45.6718 113.796 45.2723 120.681 49.2543C123.891 51.1055 126.501 52.677 126.487 52.7569C126.461 52.8368 123.438 58.124 119.749 64.5032L113.05 76.103L111.159 75.011C104.353 71.0556 101.077 69.2044 100.931 69.2044C100.824 69.2044 100.811 69.2444 100.891 69.3243C100.957 69.3909 103.528 70.8958 106.604 72.667C109.68 74.4383 112.357 75.9965 112.57 76.1164L112.93 76.3428L112.171 77.4748C110.586 79.7921 107.803 82.2159 105.232 83.5078C103.088 84.5865 100.331 85.3456 97.9874 85.4921L96.9486 85.5587V78.5802C96.9486 74.0121 96.9086 71.6016 96.8154 71.6016C96.7222 71.6016 96.6822 74.0255 96.6822 78.5935V85.5853H65.0657C44.1168 85.5853 33.4092 85.6253 33.356 85.7185C33.3027 85.8117 43.877 85.8517 64.9725 85.8517C93.0731 85.8517 96.6822 85.8783 96.6822 86.0515C96.6822 86.2246 93.0731 86.2512 64.9991 86.2512C35.4735 86.2512 33.3027 86.2379 33.2627 86.0248C33.2361 85.905 33.2361 82.5755 33.2627 78.6334L33.2894 71.4684L65.625 71.4418L97.9474 71.4019L98.7465 71.029C99.5189 70.6694 100.744 69.5507 100.611 69.3243C100.571 69.271 100.291 69.4841 99.985 69.817C99.6787 70.15 99.3191 70.4829 99.186 70.5495C99.0528 70.6294 99.2792 70.3364 99.7054 69.9103C100.132 69.4974 100.544 69.1645 100.624 69.1778C100.824 69.2177 114.501 45.552 114.821 44.633C115.114 43.7674 115.114 42.5554 114.808 41.6632C114.635 41.1704 114.608 40.9307 114.715 40.8641C114.794 40.8108 117.525 39.226 120.787 37.3482L126.714 33.9255L127.26 35.0975C127.566 35.7367 127.966 36.7356 128.152 37.3215ZM19.3722 34.8444C19.2524 35.0575 19.1325 35.244 19.0926 35.244C19.0659 35.244 19.1192 35.0575 19.2391 34.8444C19.3589 34.618 19.4788 34.4449 19.5187 34.4449C19.5454 34.4449 19.4921 34.618 19.3722 34.8444ZM110.733 34.8444C110.852 35.0575 110.906 35.244 110.879 35.244C110.839 35.244 110.719 35.0575 110.599 34.8444C110.479 34.618 110.426 34.4449 110.453 34.4449C110.493 34.4449 110.613 34.618 110.733 34.8444ZM18.7063 36.0031C18.5066 36.3627 18.2802 36.6956 18.2003 36.7755C18.1204 36.8421 18.2269 36.6024 18.44 36.2428C18.6398 35.8699 18.8395 35.537 18.8662 35.4704C18.8928 35.4171 18.9594 35.3771 18.9993 35.3771C19.026 35.3771 18.9061 35.6568 18.7063 36.0031ZM111.532 36.2428C111.745 36.6024 111.851 36.8421 111.771 36.7755C111.691 36.6956 111.465 36.336 111.265 35.9764C111.052 35.6035 110.946 35.3638 111.025 35.4437C111.105 35.5103 111.332 35.8699 111.532 36.2428ZM17.9073 37.3748C17.7874 37.5879 17.6676 37.7743 17.6276 37.7743C17.601 37.7743 17.6542 37.5879 17.7741 37.3748C17.894 37.1484 18.0138 36.9753 18.0538 36.9753C18.0804 36.9753 18.0271 37.1484 17.9073 37.3748ZM112.197 37.3748C112.317 37.5879 112.371 37.7743 112.344 37.7743C112.304 37.7743 112.184 37.5879 112.064 37.3748C111.944 37.1484 111.891 36.9753 111.918 36.9753C111.958 36.9753 112.078 37.1484 112.197 37.3748ZM17.3746 38.3071C17.2547 38.5201 17.1348 38.7066 17.0949 38.7066C17.0683 38.7066 17.1215 38.5201 17.2414 38.3071C17.3612 38.0807 17.4811 37.9075 17.5211 37.9075C17.5477 37.9075 17.4944 38.0807 17.3746 38.3071ZM112.73 38.3071C112.85 38.5201 112.903 38.7066 112.877 38.7066C112.837 38.7066 112.717 38.5201 112.597 38.3071C112.477 38.0807 112.424 37.9075 112.451 37.9075C112.49 37.9075 112.61 38.0807 112.73 38.3071ZM16.7087 39.4657C16.5089 39.8253 16.2825 40.1582 16.2026 40.2381C16.1227 40.3047 16.2292 40.065 16.4423 39.7054C16.6421 39.3325 16.8419 38.9996 16.8685 38.933C16.8951 38.8797 16.9617 38.8398 17.0017 38.8398C17.0283 38.8398 16.9084 39.1194 16.7087 39.4657ZM113.529 39.7054C113.742 40.065 113.849 40.3047 113.769 40.2381C113.689 40.1582 113.463 39.7987 113.263 39.4391C113.05 39.0662 112.943 38.8265 113.023 38.9064C113.103 38.9729 113.329 39.3325 113.529 39.7054ZM0.221206 40.1316C0.181253 40.2648 0.154617 40.1849 0.154617 39.9718C0.154617 39.7454 0.181253 39.6522 0.221206 39.7321C0.247842 39.8253 0.247842 40.0117 0.221206 40.1316ZM129.804 40.065C129.764 40.1582 129.737 40.0916 129.737 39.9052C129.737 39.7187 129.764 39.6522 129.804 39.7321C129.83 39.8253 129.83 39.9851 129.804 40.065ZM16.0161 40.6377C15.9762 40.7575 15.9096 40.8241 15.883 40.7842C15.843 40.7442 15.8563 40.6643 15.9096 40.5844C16.0295 40.3713 16.1094 40.4113 16.0161 40.6377ZM114.102 40.7709C114.062 40.8108 113.982 40.7442 113.942 40.611C113.862 40.4246 113.876 40.4113 114.009 40.5311C114.102 40.6244 114.142 40.7309 114.102 40.7709ZM114.461 41.3835C114.581 41.6099 114.661 41.8363 114.635 41.9029C114.608 41.9695 114.488 41.783 114.368 41.5033C114.102 40.8774 114.169 40.7975 114.461 41.3835ZM15.59 41.4634C15.4302 41.7297 15.4035 41.6498 15.5234 41.3036C15.5767 41.1837 15.6432 41.1171 15.6699 41.1571C15.7098 41.1837 15.6699 41.3302 15.59 41.4634ZM15.2703 42.7952C15.2304 42.9283 15.2038 42.8218 15.2038 42.5688C15.2038 42.3157 15.2304 42.2092 15.2703 42.329C15.297 42.4622 15.297 42.6753 15.2703 42.7952ZM114.754 42.662C114.715 42.7952 114.688 42.7153 114.688 42.5022C114.688 42.2758 114.715 42.1825 114.754 42.2625C114.781 42.3557 114.781 42.5421 114.754 42.662ZM15.2703 43.9938C15.2304 44.1269 15.2038 44.047 15.2038 43.834C15.2038 43.6076 15.2304 43.5143 15.2703 43.5942C15.297 43.6875 15.297 43.8739 15.2703 43.9938ZM114.754 43.9938C114.715 44.1269 114.688 44.047 114.688 43.834C114.688 43.6076 114.715 43.5143 114.754 43.5942C114.781 43.6875 114.781 43.8739 114.754 43.9938ZM15.7098 45.219C15.6965 45.3921 15.3236 44.6197 15.3236 44.4333C15.3236 44.3267 15.4035 44.4333 15.5101 44.6863C15.6166 44.926 15.7098 45.1657 15.7098 45.219ZM114.515 44.8861C114.422 45.1391 114.302 45.3256 114.248 45.2989C114.208 45.259 114.262 45.0326 114.382 44.7795C114.648 44.2069 114.741 44.2734 114.515 44.8861ZM16.4423 46.4576C16.7886 47.0702 17.1082 47.6029 17.1348 47.6562C17.1615 47.7228 17.1615 47.7627 17.1215 47.7627C17.0816 47.7627 16.6288 47.0036 15.7498 45.4587C15.7232 45.4055 15.7232 45.3655 15.7631 45.3655C15.7897 45.3655 16.0961 45.8583 16.4423 46.4576ZM113.529 46.684C113.183 47.2833 112.877 47.7627 112.837 47.7627C112.81 47.7627 112.97 47.4165 113.21 46.9903C113.449 46.5774 113.742 46.0714 113.849 45.8716C113.969 45.6718 114.075 45.5386 114.102 45.5653C114.129 45.5919 113.876 46.098 113.529 46.684ZM22.3155 57.285C25.9512 63.5843 28.9478 68.8315 28.9744 68.9381C29.0143 69.0846 27.8956 69.7904 25.1389 71.3752C22.9947 72.6005 20.2645 74.172 19.0792 74.8512L16.9218 76.103L10.2229 64.5032C6.53386 58.124 3.51071 52.8368 3.48407 52.7569C3.44412 52.5838 15.4701 45.6185 15.6033 45.7384C15.6566 45.7917 18.6664 50.9856 22.3155 57.285ZM17.5077 48.2954C17.6276 48.5085 17.6809 48.695 17.6542 48.695C17.6143 48.695 17.4944 48.5085 17.3746 48.2954C17.2547 48.069 17.2014 47.8959 17.2281 47.8959C17.268 47.8959 17.3879 48.069 17.5077 48.2954ZM112.597 48.2954C112.477 48.5085 112.357 48.695 112.317 48.695C112.291 48.695 112.344 48.5085 112.464 48.2954C112.584 48.069 112.704 47.8959 112.743 47.8959C112.77 47.8959 112.717 48.069 112.597 48.2954ZM18.3068 49.6938C18.5199 50.0534 18.6264 50.2931 18.5465 50.2265C18.4666 50.1466 18.2402 49.787 18.0405 49.4274C17.8274 49.0545 17.7208 48.8148 17.8007 48.8947C17.8806 48.9613 18.107 49.3209 18.3068 49.6938ZM111.931 49.4541C111.731 49.8137 111.505 50.1466 111.425 50.2265C111.345 50.2931 111.452 50.0534 111.665 49.6938C111.865 49.3209 112.064 48.988 112.091 48.9214C112.118 48.8681 112.184 48.8281 112.224 48.8281C112.251 48.8281 112.131 49.1078 111.931 49.4541ZM18.9727 50.8258C19.0926 51.0389 19.1458 51.2253 19.1192 51.2253C19.0792 51.2253 18.9594 51.0389 18.8395 50.8258C18.7197 50.5994 18.6664 50.4263 18.693 50.4263C18.733 50.4263 18.8528 50.5994 18.9727 50.8258ZM111.132 50.8258C111.012 51.0389 110.892 51.2253 110.852 51.2253C110.826 51.2253 110.879 51.0389 110.999 50.8258C111.119 50.5994 111.239 50.4263 111.279 50.4263C111.305 50.4263 111.252 50.5994 111.132 50.8258ZM19.5054 51.7581C19.6253 51.9711 19.6785 52.1576 19.6519 52.1576C19.612 52.1576 19.4921 51.9711 19.3722 51.7581C19.2524 51.5317 19.1991 51.3585 19.2257 51.3585C19.2657 51.3585 19.3856 51.5317 19.5054 51.7581ZM110.599 51.7581C110.479 51.9711 110.36 52.1576 110.32 52.1576C110.293 52.1576 110.346 51.9711 110.466 51.7581C110.586 51.5317 110.706 51.3585 110.746 51.3585C110.772 51.3585 110.719 51.5317 110.599 51.7581ZM20.3045 53.1564C20.5176 53.516 20.6241 53.7557 20.5442 53.6891C20.4643 53.6092 20.2379 53.2497 20.0381 52.8901C19.825 52.5172 19.7185 52.2775 19.7984 52.3574C19.8783 52.424 20.1047 52.7835 20.3045 53.1564ZM109.933 52.9167C109.734 53.2763 109.507 53.6092 109.427 53.6891C109.347 53.7557 109.454 53.516 109.667 53.1564C109.867 52.7835 110.067 52.4506 110.093 52.384C110.12 52.3307 110.186 52.2908 110.226 52.2908C110.253 52.2908 110.133 52.5704 109.933 52.9167ZM9.96985 64.5299C15.0972 73.4262 16.6421 76.183 16.5222 76.3028C16.4024 76.4227 16.3358 76.4094 16.2425 76.2629C11.6213 68.3521 2.8315 52.9966 2.88477 52.9167C2.92472 52.8634 3.01795 52.8368 3.09786 52.8634C3.19108 52.8901 6.28082 58.1373 9.96985 64.5299ZM127.073 53.1032C127.02 53.3029 113.902 76.1164 113.716 76.3161C113.636 76.396 113.543 76.396 113.449 76.3028C113.343 76.1963 115.034 73.1465 119.855 64.7829C123.464 58.5368 126.501 53.2896 126.607 53.1165C126.807 52.7969 127.14 52.7835 127.073 53.1032ZM20.9704 54.2884C21.0902 54.5015 21.1435 54.688 21.1169 54.688C21.0769 54.688 20.9571 54.5015 20.8372 54.2884C20.7173 54.062 20.6641 53.8889 20.6907 53.8889C20.7307 53.8889 20.8505 54.062 20.9704 54.2884ZM109.134 54.2884C109.015 54.5015 108.895 54.688 108.855 54.688C108.828 54.688 108.881 54.5015 109.001 54.2884C109.121 54.062 109.241 53.8889 109.281 53.8889C109.307 53.8889 109.254 54.062 109.134 54.2884ZM21.5031 55.2207C21.623 55.4338 21.6762 55.6202 21.6496 55.6202C21.6096 55.6202 21.4898 55.4338 21.3699 55.2207C21.2501 54.9943 21.1968 54.8212 21.2234 54.8212C21.2634 54.8212 21.3832 54.9943 21.5031 55.2207ZM108.602 55.2207C108.482 55.4338 108.362 55.6202 108.322 55.6202C108.295 55.6202 108.349 55.4338 108.468 55.2207C108.588 54.9943 108.708 54.8212 108.748 54.8212C108.775 54.8212 108.722 54.9943 108.602 55.2207ZM22.3022 56.6191C22.5152 56.9786 22.6218 57.2184 22.5419 57.1518C22.462 57.0719 22.2356 56.7123 22.0358 56.3527C21.8227 55.9798 21.7162 55.7401 21.7961 55.82C21.876 55.8866 22.1024 56.2462 22.3022 56.6191ZM107.936 56.3793C107.736 56.7389 107.51 57.0719 107.43 57.1518C107.35 57.2184 107.456 56.9786 107.669 56.6191C107.869 56.2462 108.069 55.9132 108.096 55.8466C108.122 55.7934 108.189 55.7534 108.229 55.7534C108.255 55.7534 108.136 56.0331 107.936 56.3793ZM22.9681 57.7511C23.0879 57.9642 23.1412 58.1506 23.1145 58.1506C23.0746 58.1506 22.9547 57.9642 22.8349 57.7511C22.715 57.5247 22.6617 57.3515 22.6884 57.3515C22.7283 57.3515 22.8482 57.5247 22.9681 57.7511ZM107.137 57.7511C107.017 57.9642 106.897 58.1506 106.857 58.1506C106.83 58.1506 106.884 57.9642 107.004 57.7511C107.123 57.5247 107.243 57.3515 107.283 57.3515C107.31 57.3515 107.257 57.5247 107.137 57.7511ZM23.9003 59.3759C24.2466 59.9885 24.5662 60.5212 24.5928 60.5745C24.6195 60.6411 24.6195 60.681 24.5795 60.681C24.5396 60.681 24.0867 59.9219 23.2078 58.377C23.1811 58.3237 23.1811 58.2838 23.2211 58.2838C23.2477 58.2838 23.554 58.7766 23.9003 59.3759ZM106.764 58.377C105.885 59.9219 105.432 60.681 105.392 60.681C105.352 60.681 105.352 60.6411 105.379 60.5745C106.258 59.0429 106.711 58.2838 106.75 58.2838C106.79 58.2838 106.79 58.3237 106.764 58.377ZM24.9657 61.2137C25.0856 61.4268 25.1389 61.6133 25.1122 61.6133C25.0723 61.6133 24.9524 61.4268 24.8325 61.2137C24.7127 60.9873 24.6594 60.8142 24.6861 60.8142C24.726 60.8142 24.8459 60.9873 24.9657 61.2137ZM105.139 61.2137C105.019 61.4268 104.899 61.6133 104.859 61.6133C104.833 61.6133 104.886 61.4268 105.006 61.2137C105.126 60.9873 105.246 60.8142 105.286 60.8142C105.312 60.8142 105.259 60.9873 105.139 61.2137ZM25.7648 62.6121C25.9779 62.9717 26.0844 63.2114 26.0045 63.1448C25.9246 63.0649 25.6982 62.7053 25.4984 62.3457C25.2854 61.9728 25.1788 61.7331 25.2587 61.813C25.3386 61.8796 25.565 62.2392 25.7648 62.6121ZM104.473 62.3724C104.273 62.7319 104.047 63.0649 103.967 63.1448C103.887 63.2114 103.994 62.9717 104.207 62.6121C104.407 62.2392 104.606 61.9062 104.633 61.8397C104.66 61.7864 104.726 61.7464 104.766 61.7464C104.793 61.7464 104.673 62.0261 104.473 62.3724ZM26.4307 63.7441C26.5505 63.9572 26.6038 64.1436 26.5772 64.1436C26.5372 64.1436 26.4174 63.9572 26.2975 63.7441C26.1776 63.5177 26.1244 63.3446 26.151 63.3446C26.191 63.3446 26.3108 63.5177 26.4307 63.7441ZM103.674 63.7441C103.554 63.9572 103.434 64.1436 103.394 64.1436C103.368 64.1436 103.421 63.9572 103.541 63.7441C103.661 63.5177 103.781 63.3446 103.821 63.3446C103.847 63.3446 103.794 63.5177 103.674 63.7441ZM26.9634 64.6764C27.0833 64.8894 27.1365 65.0759 27.1099 65.0759C27.0699 65.0759 26.9501 64.8894 26.8302 64.6764C26.7104 64.4499 26.6571 64.2768 26.6837 64.2768C26.7237 64.2768 26.8435 64.4499 26.9634 64.6764ZM103.141 64.6764C103.021 64.8894 102.902 65.0759 102.862 65.0759C102.835 65.0759 102.888 64.8894 103.008 64.6764C103.128 64.4499 103.248 64.2768 103.288 64.2768C103.314 64.2768 103.261 64.4499 103.141 64.6764ZM27.7625 66.0747C27.9756 66.4343 28.0821 66.674 28.0022 66.6074C27.9223 66.5275 27.6959 66.1679 27.4961 65.8084C27.283 65.4355 27.1765 65.1957 27.2564 65.2757C27.3363 65.3422 27.5627 65.7018 27.7625 66.0747ZM102.475 65.835C102.276 66.1946 102.049 66.5275 101.969 66.6074C101.889 66.674 101.996 66.4343 102.209 66.0747C102.409 65.7018 102.609 65.3689 102.635 65.3023C102.662 65.249 102.729 65.2091 102.768 65.2091C102.795 65.2091 102.675 65.4887 102.475 65.835ZM28.4284 67.2067C28.5482 67.4198 28.6015 67.6063 28.5749 67.6063C28.5349 67.6063 28.415 67.4198 28.2952 67.2067C28.1753 66.9803 28.122 66.8072 28.1487 66.8072C28.1886 66.8072 28.3085 66.9803 28.4284 67.2067ZM101.676 67.2067C101.557 67.4198 101.437 67.6063 101.397 67.6063C101.37 67.6063 101.423 67.4198 101.543 67.2067C101.663 66.9803 101.783 66.8072 101.823 66.8072C101.85 66.8072 101.796 66.9803 101.676 67.2067ZM28.9611 68.139C29.0809 68.3521 29.1342 68.5385 29.1076 68.5385C29.0676 68.5385 28.9478 68.3521 28.8279 68.139C28.708 67.9126 28.6548 67.7395 28.6814 67.7395C28.7214 67.7395 28.8412 67.9126 28.9611 68.139ZM101.144 68.139C101.024 68.3521 100.904 68.5385 100.864 68.5385C100.837 68.5385 100.891 68.3521 101.011 68.139C101.13 67.9126 101.25 67.7395 101.29 67.7395C101.317 67.7395 101.264 67.9126 101.144 68.139ZM30.6258 70.3897C30.6258 70.5096 29.6802 69.5374 29.5337 69.271C29.4538 69.1378 29.6669 69.311 30.0132 69.6705C30.3461 70.0301 30.6258 70.3497 30.6258 70.3897ZM29.8534 70.0168C30.6391 70.7892 31.5847 71.2953 32.4903 71.4152L33.0896 71.4951L33.0496 78.5535L33.023 85.612L32.184 85.5321C27.0966 85.1059 22.8615 83.1082 19.4788 79.5524C18.6797 78.7133 16.975 76.4094 17.0816 76.3161C17.1082 76.2762 29.0809 69.3509 29.1209 69.3376C29.1342 69.3376 29.4538 69.6439 29.8534 70.0168ZM31.9576 71.0423C31.8377 71.0822 30.759 70.5761 30.759 70.4696C30.759 70.443 31.052 70.5495 31.4116 70.7093C31.7711 70.8691 32.0109 71.0156 31.9576 71.0423ZM98.4135 70.9357C98.307 71.0023 98.1205 71.0556 98.014 71.0556C97.8808 71.0556 97.9074 71.0156 98.0806 70.9357C98.4402 70.7759 98.6532 70.7759 98.4135 70.9357ZM32.6634 71.1621C32.5702 71.1888 32.4104 71.1888 32.3305 71.1621C32.2373 71.1222 32.3038 71.0955 32.4903 71.0955C32.6767 71.0955 32.7433 71.1222 32.6634 71.1621ZM97.6544 71.1621C97.5612 71.1888 97.4014 71.1888 97.3215 71.1621C97.2282 71.1222 97.2948 71.0955 97.4813 71.0955C97.6677 71.0955 97.7343 71.1222 97.6544 71.1621ZM80.8606 71.2953C72.1375 71.3219 57.8341 71.3219 49.0976 71.2953C40.3744 71.282 47.5128 71.2687 64.9858 71.2687C82.4588 71.2687 89.5971 71.282 80.8606 71.2953ZM17.6276 77.608C17.8141 77.901 17.8141 77.9809 17.6676 78.114C17.5211 78.2339 17.3746 78.1007 16.975 77.4481C16.5888 76.8089 16.5089 76.6091 16.6554 76.5292C16.8285 76.4227 16.9218 76.5292 17.6276 77.608ZM113.503 76.7823C113.436 76.8222 113.076 77.315 112.704 77.861C112.131 78.7133 111.012 80.0851 110.493 80.5778C108.935 82.0561 107.11 83.3613 105.485 84.1736C104.526 84.6664 102.262 85.5321 101.61 85.6519C99.9318 85.9982 99.1061 86.1181 98.0539 86.198C97.3747 86.2512 96.8154 86.2512 96.8154 86.2113C96.8154 86.1713 96.9086 86.0381 97.0285 85.9316C97.175 85.7851 97.4813 85.7185 98.0673 85.7185C99.9051 85.7185 103.128 84.8262 105.365 83.7075C108.242 82.2559 110.866 79.9119 112.597 77.2351C113.05 76.5292 113.156 76.436 113.383 76.5559C113.516 76.6358 113.569 76.729 113.503 76.7823ZM19.1725 79.5257C22.4087 82.9884 26.3508 85.0659 30.6258 85.5853C31.3183 85.6652 32.144 85.7585 32.4637 85.7984C32.8499 85.8517 33.023 85.9316 33.023 86.0781C33.023 86.2512 32.8898 86.2779 32.0641 86.198C27.6826 85.7718 24.1533 84.4134 21.0636 81.9496C19.9582 81.0573 17.5477 78.5402 17.6542 78.3671C17.8007 78.1407 18.0671 78.3404 19.1725 79.5257Z" fill="#0076BD"/>
<path d="M7.22631 5.13236C5.20201 5.63844 4.40294 8.0756 5.74804 9.62047C6.56042 10.5394 7.86557 10.8723 8.931 10.4195C9.83661 10.0333 10.649 8.86136 10.649 7.92911C10.649 6.11788 8.91768 4.70619 7.22631 5.13236ZM9.05086 5.61181C10.1296 6.17116 10.6623 7.63612 10.1962 8.76813C9.47703 10.4861 7.2929 10.8857 6.04103 9.52725C4.7492 8.14219 5.36182 5.95807 7.18636 5.43867C7.71907 5.27886 8.5581 5.35877 9.05086 5.61181Z" fill="#0076BD"/>
<path d="M121.44 5.13236C119.775 5.66507 118.91 7.35644 119.536 8.84803C120.348 10.8191 122.812 11.2186 124.224 9.62047C124.636 9.15434 124.916 8.42186 124.916 7.82256C124.916 6.89031 124.25 5.82489 123.358 5.37208C122.878 5.11904 121.88 4.99918 121.44 5.13236ZM122.719 5.42535C124.596 5.94475 125.249 8.11555 123.931 9.52724C122.013 11.5915 118.67 9.38075 119.842 6.81041C120.122 6.18447 120.774 5.58517 121.294 5.46531C121.493 5.42535 121.72 5.37208 121.786 5.34544C122.026 5.26554 122.173 5.27886 122.719 5.42535Z" fill="#0076BD"/>
<path d="M113.556 7.28985C113.423 7.36975 113.196 7.40971 113.05 7.36975C112.77 7.28985 112.717 7.40971 112.943 7.63611C113.05 7.74265 113.21 7.71602 113.543 7.51625C113.796 7.36975 113.995 7.22326 113.995 7.19662C113.995 7.1034 113.809 7.14335 113.556 7.28985Z" fill="#0076BD"/>
<path d="M33.7022 18.61C33.0496 18.8098 32.3438 19.2892 31.891 19.8619C31.5181 20.3413 19.7584 40.6244 19.239 41.7031C19.0526 42.0893 18.9727 42.5155 18.9727 43.2347C18.9727 44.4333 18.1869 42.9417 25.8047 56.1529C30.173 63.7441 31.6646 66.2345 32.1707 66.7539C33.3693 67.9925 30.0398 67.8726 64.9858 67.8726C99.9317 67.8726 96.6023 67.9925 97.8009 66.7539C98.307 66.2345 99.7986 63.7441 104.167 56.1529C107.323 50.6926 110.133 45.7917 110.426 45.2456C111.052 44.1136 111.199 43.1281 110.892 42.1692C110.733 41.6365 99.106 21.3268 98.3602 20.2614C97.8408 19.5156 97.4813 19.1693 96.842 18.8497L96.2161 18.5301L65.1855 18.5035C45.4352 18.4901 33.9952 18.5301 33.7022 18.61ZM34.0884 18.9163C33.3559 19.1028 32.5835 19.5689 32.2372 20.0084C32.1041 20.1815 31.9176 20.328 31.8377 20.328C31.7578 20.328 31.9576 20.0883 32.2772 19.7953C32.9165 19.2093 33.8487 18.7299 34.3548 18.7432C34.5679 18.7432 34.4746 18.8098 34.0884 18.9163ZM80.0749 18.8231C71.7779 18.8497 58.1937 18.8497 49.91 18.8231C41.613 18.8098 48.3918 18.7964 64.9858 18.7964C81.5798 18.7964 88.3586 18.8098 80.0749 18.8231ZM96.6156 19.0495C96.9885 19.2093 97.5079 19.6221 97.8009 19.9418C98.2803 20.5011 110.413 41.3702 110.32 41.49C110.24 41.5699 110.653 42.2625 104.34 31.3152C101.13 25.7483 98.307 20.8873 98.0673 20.5011C97.5612 19.7021 96.8154 19.156 95.9098 18.9163C95.4969 18.8098 95.4037 18.7432 95.6168 18.7432C95.8032 18.7299 96.256 18.8764 96.6156 19.0495ZM96.589 19.3957C96.9486 19.5689 97.4014 19.9285 97.6011 20.1948C97.9208 20.5944 109.574 40.6776 110.2 41.8896C110.466 42.4223 110.493 43.794 110.24 44.38C110.147 44.6064 107.336 49.5073 104.007 55.2873C99.8652 62.4789 97.7743 65.9815 97.388 66.3677C96.3359 67.4331 99.1593 67.3532 64.6528 67.3133L33.8887 67.2733L33.3027 66.9404C32.983 66.7539 32.5436 66.3943 32.3438 66.1413C32.0242 65.7285 20.6241 46.0847 19.825 44.5664C19.4122 43.7674 19.4122 42.6087 19.825 41.7963C20.411 40.651 32.0108 20.6476 32.3171 20.2348C32.7167 19.7021 33.4358 19.2759 34.155 19.1294C34.448 19.0761 48.4717 19.0362 65.3187 19.0495L95.9497 19.0628L96.589 19.3957ZM31.6646 20.8873C31.558 21.0605 28.8678 25.6818 25.7115 31.182C22.5419 36.669 19.8783 41.2237 19.7984 41.3036C19.5853 41.5167 20.3178 40.2115 26.1643 30.0766C29.1741 24.8694 31.6779 20.6077 31.7445 20.5944C31.7978 20.5944 31.7711 20.7275 31.6646 20.8873ZM19.4788 42.1293C19.279 42.622 19.2923 43.6209 19.5054 44.4333C19.572 44.7262 19.572 44.7396 19.4388 44.5265C19.0792 43.9538 19.1858 41.6365 19.5853 41.6365C19.6386 41.6365 19.5986 41.8629 19.4788 42.1293ZM110.666 42.2358C110.852 42.9017 110.786 44.1403 110.533 44.5265C110.4 44.7396 110.4 44.7262 110.466 44.4333C110.679 43.6209 110.693 42.622 110.493 42.1293C110.373 41.8629 110.333 41.6365 110.386 41.6365C110.453 41.6365 110.573 41.9029 110.666 42.2358ZM23.9402 52.1176C26.2176 56.0597 28.9078 60.721 29.9333 62.4789C30.9587 64.2369 31.7711 65.7018 31.7445 65.7285C31.7178 65.7551 31.6646 65.7551 31.6379 65.7285C31.6113 65.7018 29.001 61.1738 25.8314 55.6868C22.675 50.1866 19.9715 45.5386 19.825 45.3255C19.6785 45.1258 19.6119 44.966 19.6785 44.966C19.7451 44.966 21.6629 48.1889 23.9402 52.1176ZM104.327 55.3672C99.0528 64.5299 97.974 66.3411 98.1605 65.795C98.2803 65.4754 110.173 44.966 110.226 45.0059C110.253 45.0326 107.603 49.6938 104.327 55.3672ZM32.3438 66.4476C32.7167 66.8871 33.8354 67.4598 34.3548 67.4864C34.5812 67.4997 34.6078 67.5264 34.448 67.5663C33.8887 67.7128 32.5436 66.9936 31.9309 66.2079C31.5447 65.7151 31.9176 65.9282 32.3438 66.4476ZM97.9341 66.3011C97.4946 66.8205 97.1616 67.0869 96.7222 67.2866C96.0163 67.593 96.0429 67.4997 96.7754 67.0736C97.1616 66.8605 97.5745 66.5275 97.7077 66.3411C97.8408 66.1679 98.0007 66.0081 98.0673 66.0081C98.1338 66.0081 98.0806 66.1413 97.9341 66.3011ZM80.0749 67.5663C71.7779 67.593 58.1937 67.593 49.91 67.5663C41.613 67.553 48.3918 67.5397 64.9858 67.5397C81.5798 67.5397 88.3586 67.553 80.0749 67.5663ZM95.9231 67.5663C95.8299 67.593 95.6434 67.593 95.5235 67.5663C95.3904 67.5264 95.4703 67.4997 95.6834 67.4997C95.9098 67.4997 96.003 67.5264 95.9231 67.5663Z" fill="#0076BD"/>
<path d="M34.155 19.5156C33.3959 19.7021 32.8899 20.075 32.437 20.7675C31.4648 22.2458 20.1314 41.9961 19.9849 42.4755C19.8783 42.7818 19.8517 43.2213 19.8917 43.5543C19.9582 43.9671 21.6496 47.0036 26.2443 54.9677C29.6803 60.934 32.6635 65.9682 32.8499 66.1679C33.6357 66.9936 31.4249 66.9404 65.1057 66.9404C94.6846 66.9404 95.8299 66.9271 96.3493 66.6873C96.882 66.4476 97.6544 65.7418 97.3881 65.7418C97.3215 65.7418 97.1484 65.8616 97.0285 65.9948C96.3892 66.7007 98.3736 66.6474 65.3454 66.7539C42.2656 66.8205 34.7543 66.8072 34.7543 66.7007C34.7543 66.5808 42.3189 66.5408 65.3188 66.5408C98.4801 66.5408 96.2161 66.5941 96.9353 65.835C97.1084 65.6485 97.3215 65.5287 97.4147 65.5553C97.6544 65.6485 109.894 44.4333 110.053 43.6209C110.147 43.1681 110.12 42.8751 109.973 42.4223C109.747 41.7697 97.8009 21.0472 97.3215 20.4612C97.1484 20.2614 96.7755 19.9551 96.4825 19.782L95.9498 19.4623L65.2522 19.4357C48.3652 19.4357 34.3815 19.4623 34.155 19.5156ZM96.4159 19.9551C96.7355 20.1282 97.0818 20.4079 97.2016 20.5943C97.3748 20.8873 97.3348 20.874 96.9353 20.5011C96.6822 20.2747 96.3093 20.0084 96.1096 19.9418C95.8432 19.8352 86.3476 19.7953 64.9858 19.7953C43.624 19.7953 34.1284 19.8352 33.8621 19.9418C33.6623 20.0084 33.2894 20.2614 33.063 20.5011C32.8233 20.7275 32.6235 20.8474 32.6235 20.7808C32.6235 20.5943 33.1296 20.1415 33.6223 19.8885C33.9819 19.6887 37.0051 19.6754 64.9192 19.6621H95.8299L96.4159 19.9551ZM96.2161 20.2747C96.4558 20.3813 96.8154 20.7009 96.9885 20.9672C97.175 21.2336 100.052 26.1878 103.394 31.9811C109.214 42.076 109.467 42.5288 109.467 43.1814C109.467 43.834 109.228 44.2734 103.328 54.5015C99.9451 60.3481 97.0685 65.3023 96.922 65.5154C96.7755 65.7151 96.4691 65.9815 96.2427 66.1147C95.8432 66.3278 93.992 66.3411 64.9858 66.3411C35.9796 66.3411 34.1284 66.3278 33.7289 66.1147C33.5025 65.9815 33.1962 65.7151 33.0497 65.5154C32.9032 65.3023 30.0265 60.3481 26.6438 54.4882L20.491 43.834L20.5043 43.1015C20.5309 42.1293 20.5176 42.0627 20.3711 42.3024C20.1447 42.6487 20.2246 43.7407 20.5043 44.3001C20.7573 44.8062 31.8244 64.0105 32.3838 64.9028C32.5303 65.1425 32.5969 65.3422 32.5303 65.3422C32.477 65.3422 31.345 63.4644 30.0398 61.1738C28.7214 58.8964 26.1111 54.355 24.22 51.0922C20.0914 43.9272 20.1047 43.9405 20.1047 43.1681C20.1047 42.4755 20.2912 42.0094 20.5442 42.1026C20.6375 42.1426 22.7949 38.5601 26.3375 32.4206C29.4272 27.0535 32.1441 22.3523 32.3705 21.9661C32.5835 21.5932 32.7167 21.2469 32.6501 21.2203C32.5969 21.1803 29.8534 25.8149 26.5639 31.515C23.2744 37.215 20.5575 41.8629 20.5309 41.8363C20.491 41.8096 22.6618 37.9874 25.3386 33.3528C28.0022 28.7182 30.6924 24.0437 31.305 22.9649C32.1707 21.4467 32.477 21.0205 32.6501 21.0738C32.7966 21.1137 32.9564 21.0205 33.0896 20.8207C33.609 20.0084 31.2251 20.0616 64.9592 20.0616C92.7268 20.0616 95.8166 20.0883 96.2161 20.2747ZM103.608 31.5549C106.844 37.175 109.481 41.8096 109.454 41.8363C109.414 41.8629 106.844 37.4813 103.741 32.0876C97.1217 20.621 97.2682 20.874 97.5079 21.1271C97.6145 21.2336 100.358 25.9348 103.608 31.5549ZM109.84 43.2346C109.787 44.0204 109.72 44.2734 109.561 44.4998C109.427 44.673 97.6411 65.1025 97.5745 65.2757C97.5346 65.3422 97.4813 65.3822 97.4547 65.3422C97.4147 65.3023 99.9851 60.7742 103.168 55.2873C106.338 49.787 109.121 44.9526 109.334 44.5398C109.76 43.7274 109.854 42.8085 109.587 42.2624C109.454 41.9695 109.454 41.9695 109.667 42.2358C109.827 42.4356 109.867 42.7019 109.84 43.2346ZM33.7821 66.3943C33.942 66.4743 34.2083 66.5408 34.3681 66.5408C34.5279 66.5408 34.6345 66.5808 34.5812 66.6208C34.2882 66.9137 32.6235 66.0214 32.6235 65.5686C32.6235 65.4887 32.8233 65.6086 33.063 65.835C33.2894 66.0614 33.6223 66.3144 33.7821 66.3943Z" fill="#0076BD"/>
<path d="M54.8775 23.218C54.5446 23.3512 54.185 23.7906 54.1184 24.1635C53.9986 24.7495 54.5979 25.3888 55.2504 25.3888C56.3025 25.3888 56.7287 24.1502 55.9163 23.471C55.5168 23.1381 55.2504 23.0715 54.8775 23.218ZM55.7565 23.5909C56.0895 23.8173 56.196 24.1635 56.0495 24.5231C55.9696 24.7362 55.943 24.7096 55.943 24.3633C55.9163 23.5376 54.9042 23.2712 54.5712 23.9904C54.4514 24.2434 54.478 24.3899 54.6645 24.6696C54.8642 24.9759 54.9574 25.0159 55.4502 24.9493C55.9829 24.8827 55.9829 24.896 55.61 25.0558C55.1306 25.2556 54.7843 25.1757 54.5313 24.8161C54.2516 24.4033 54.2782 24.097 54.6645 23.7241C55.0373 23.3378 55.3437 23.3112 55.7565 23.5909ZM55.6633 23.9904C56.0096 24.4166 55.4902 25.0692 55.0373 24.7762C54.5712 24.4832 54.731 23.7906 55.2638 23.7906C55.3969 23.7906 55.5701 23.8839 55.6633 23.9904Z" fill="#0076BD"/>
<path d="M64.2932 23.4976C63.7472 24.0037 63.7205 24.6297 64.2399 25.0825C65.3852 26.068 66.7969 24.5098 65.6782 23.4976C65.4385 23.2979 65.1322 23.1247 64.9857 23.1247C64.8392 23.1247 64.5329 23.2979 64.2932 23.4976ZM65.5983 23.7374C65.8647 23.9904 65.918 24.1502 65.8514 24.4299C65.7182 24.9759 65.5317 25.1224 64.9857 25.1224C64.5995 25.1224 64.4397 25.0425 64.2666 24.7895C63.9736 24.3367 64.0002 24.0969 64.3864 23.724C64.7993 23.2979 65.1722 23.2979 65.5983 23.7374Z" fill="#0076BD"/>
<path d="M64.4665 23.8705C64.1335 24.2967 64.1335 24.31 64.3999 24.6962C64.6929 25.1091 65.3188 25.0958 65.5985 24.643C65.8116 24.3233 65.8116 24.2834 65.5586 23.9504C65.199 23.4577 64.8128 23.431 64.4665 23.8705ZM65.3055 23.8705C65.5586 23.9638 65.5852 24.4698 65.3588 24.6962C64.9593 25.0958 64.3599 24.6962 64.5064 24.1236C64.5864 23.7906 64.866 23.6974 65.3055 23.8705Z" fill="#0076BD"/>
<path d="M74.0685 23.4577C73.2295 24.1635 73.6556 25.3888 74.7211 25.3888C75.68 25.3888 76.186 24.2035 75.5335 23.5509C75.054 23.0715 74.5613 23.0448 74.0685 23.4577ZM75.3071 23.7241C75.6666 24.0703 75.7199 24.3367 75.4935 24.7362C75.1739 25.3488 74.1617 25.2689 73.9353 24.6163C73.6024 23.6708 74.6145 23.0182 75.3071 23.7241Z" fill="#0076BD"/>
<path d="M74.3348 23.7374C74.0152 23.9638 73.9352 24.5631 74.2016 24.8294C74.468 25.0958 75.0673 25.0159 75.2937 24.6962C75.5733 24.2967 75.56 24.1103 75.2404 23.7906C74.9208 23.471 74.7343 23.4577 74.3348 23.7374ZM75.0273 23.8705C75.2803 23.9638 75.307 24.4698 75.0806 24.6962C74.681 25.0958 74.0684 24.6163 74.2416 24.057C74.3215 23.7906 74.6278 23.724 75.0273 23.8705Z" fill="#0076BD"/>
<path d="M62.189 28.3054C59.9649 28.7582 58.1271 29.5173 56.4623 30.6893C53.2261 32.9666 51.0686 36.1362 50.2296 39.9052C49.91 41.2769 49.7635 43.0882 49.9366 43.3678C50.0431 43.5276 50.6158 43.5809 53.2794 43.6342L56.5023 43.7008L58.3801 47.3632C60.0848 50.7059 60.2845 51.0256 60.6175 51.0655C60.9771 51.1055 61.0437 50.9856 62.9348 47.1101C64.0135 44.8994 64.9325 43.1015 64.9857 43.1015C65.039 43.1015 65.9579 44.8994 67.0367 47.1101C68.9278 50.9723 69.0077 51.1055 69.354 51.0655C69.6736 51.0256 69.8867 50.6793 71.5914 47.3632L73.4692 43.7008L74.6412 43.6608L75.8131 43.6209L75.7199 44.5265C75.3204 48.7349 71.9909 52.5172 67.6493 53.7025C66.2909 54.0754 63.5075 54.0354 62.1224 53.6359C58.8995 52.6903 56.3691 50.4929 55.0506 47.483C54.7843 46.8704 54.4913 46.3244 54.4114 46.2711C54.3315 46.2178 53.4525 46.1646 52.4537 46.1646C50.0298 46.1646 50.0431 46.1646 50.6558 47.9758C51.2151 49.6538 51.7079 50.5994 52.72 52.0377C54.8908 55.0742 58.0605 57.1251 61.9759 58.0174C63.1612 58.2838 63.5474 58.3104 65.372 58.2438C68.3418 58.1373 70.4727 57.5513 72.7101 56.1929C76.7187 53.769 79.2624 49.9335 79.9683 45.259C80.2213 43.5676 80.2213 42.5688 79.9683 41.0372C79.8617 40.3713 79.7685 39.7853 79.7685 39.7187C79.7685 39.6655 79.6753 39.6388 79.5821 39.6788C79.4489 39.7321 79.4089 39.6921 79.4489 39.5722C79.5155 39.4124 78.8496 39.3858 75.2005 39.3725H70.8722L70.1664 40.7043C69.5271 41.8895 69.2474 42.2758 69.2474 41.9162C69.2474 41.8496 68.3818 40.0251 67.3164 37.8542C65.5584 34.2851 65.3453 33.9122 65.0523 33.9122C64.8659 33.9122 64.7194 33.9788 64.7194 34.0587C64.7194 34.1253 64.6661 34.1652 64.6128 34.1253C64.5596 34.0986 63.6406 35.8566 62.5885 38.0407C61.5231 40.2381 60.6308 42.0227 60.5909 42.036C60.5509 42.036 60.2046 41.4367 59.8051 40.7043L59.0859 39.3725H56.9684C55.8098 39.3725 54.8642 39.3458 54.8642 39.3059C54.8642 39.1061 55.7698 37.468 56.2626 36.7755C57.7009 34.7645 59.9383 33.2729 62.4553 32.647C63.8138 32.3007 66.1577 32.3007 67.5161 32.6337C69.5671 33.1531 71.4982 34.2851 72.9498 35.8299C73.5624 36.4958 73.7755 36.6556 73.9087 36.5358C74.0419 36.4159 74.0552 36.4159 73.9886 36.5358C73.9486 36.6157 73.9619 36.7222 74.0419 36.7755C74.1084 36.8155 74.175 36.7622 74.175 36.6556C74.175 36.4692 74.4148 36.4426 75.9463 36.4692L77.7043 36.4958L76.0129 36.5358C73.669 36.6024 73.7888 36.8421 76.1461 36.8421C77.8108 36.8421 78.0239 36.8155 78.237 36.5757C78.5166 36.2561 78.5033 36.2162 77.5711 34.8045C75.5867 31.768 72.2839 29.4374 68.6881 28.5185C66.797 28.039 64.0269 27.9458 62.189 28.3054ZM67.1699 28.4519C71.2318 29.0512 75.2138 31.5949 77.4379 35.0309C78.2103 36.2428 78.2636 36.376 78.0106 36.5225C77.904 36.5891 77.8907 36.5491 77.944 36.4026C77.9972 36.2561 77.7975 35.8299 77.3846 35.2173C74.9741 31.5949 71.2451 29.1843 67.1832 28.5984C61.8827 27.8259 56.7686 29.8902 53.3326 34.1785C51.5614 36.4026 50.3894 39.4923 50.3095 42.1959C50.2829 42.8218 50.2163 43.3146 50.163 43.2746C49.9899 43.1681 50.1763 41.2103 50.4826 39.9052C51.841 34.032 56.449 29.5972 62.3488 28.5318C63.5208 28.3054 65.918 28.2787 67.1699 28.4519ZM66.6771 28.7182C67.2498 28.7981 68.1953 28.9846 68.7813 29.1311C69.8601 29.4241 71.6713 30.1565 71.7512 30.343C71.7778 30.3963 71.871 30.4495 71.9376 30.4495C72.4304 30.4495 74.8143 32.314 75.893 33.5526C76.5456 34.2984 77.7708 36.043 77.7708 36.2295C77.7708 36.2694 76.8786 36.3094 75.7732 36.3094H73.7755L72.9365 35.4704C71.1253 33.6458 68.7414 32.4472 66.3841 32.1809C65.6117 32.0876 65.5984 32.0876 66.1977 32.061C66.5439 32.061 67.343 32.1942 67.9689 32.3806C69.9799 32.9666 71.6446 33.9521 73.043 35.3638C73.4825 35.8166 73.882 36.1762 73.9619 36.1762C74.215 36.1762 72.3372 34.3916 71.4182 33.7657C70.2862 32.9932 69.2741 32.5271 67.9157 32.1409C66.5706 31.768 63.4941 31.7414 62.189 32.1009C61.0437 32.4073 59.3656 33.1664 58.5266 33.7524C57.7408 34.3117 56.4623 35.5103 56.4623 35.6968C56.4623 35.7767 56.8086 35.497 57.2348 35.0975C58.1004 34.2451 58.8329 33.7257 60.0182 33.1264C61.1102 32.5804 63.0014 32.0477 63.7738 32.061C64.3731 32.0876 64.3598 32.0876 63.5874 32.1809C59.9649 32.607 56.5156 35.1108 54.9974 38.4136C54.7576 38.9463 54.5312 39.3458 54.4913 39.3192C54.3847 39.1993 55.2504 37.5213 55.863 36.6423C56.2093 36.1629 56.4357 35.7767 56.3691 35.7767C55.9962 35.7767 53.9453 39.4657 54.1317 39.772C54.185 39.8519 55.1705 39.9052 56.5023 39.9052H58.8063L59.5254 41.3835C59.925 42.2092 60.2446 42.9283 60.2313 42.9816C60.178 43.1414 60.6841 43.1281 60.7773 42.9816C60.8306 42.915 60.7906 42.8351 60.7107 42.8085C60.6175 42.7818 61.1102 41.6099 61.9892 39.8386C62.775 38.2271 63.6806 36.3493 64.0135 35.6568C64.3332 34.9776 64.6262 34.4449 64.6661 34.4715C64.6927 34.5115 63.8537 36.3227 62.7883 38.5068C61.7229 40.6909 60.8705 42.5421 60.8972 42.6087C60.9105 42.6753 61.8161 40.904 62.9082 38.68C63.9869 36.4559 64.9724 34.5647 65.0923 34.4848C65.292 34.365 65.585 34.8844 67.3696 38.5601C68.4883 40.8641 69.3407 42.7818 69.2741 42.8085C69.1942 42.8351 69.1542 42.9283 69.1942 43.0349C69.3407 43.4078 69.607 43.0615 70.3795 41.5033L71.1652 39.9052H75.1872H79.2092L79.369 41.0239C79.6487 42.8751 79.4755 45.3921 78.9695 47.1634C78.0638 50.2531 76.3325 52.7968 73.882 54.6613C72.2306 55.9132 70.5925 56.7256 68.6348 57.245C67.1832 57.6179 66.8769 57.6579 64.9857 57.6712C63.321 57.6712 62.7084 57.6179 61.7761 57.3915C57.3679 56.2861 53.9053 53.5293 51.8677 49.494C51.5214 48.8148 50.8688 47.0569 50.8688 46.8038C50.8688 46.7506 51.5747 46.6973 52.4537 46.6973H54.0385L54.5712 47.8293C55.5301 49.827 56.8219 51.3718 58.5266 52.5838C62.9348 55.7135 69.314 55.1008 73.0563 51.1987C74.215 50.0001 74.6412 49.4008 75.2405 48.1489C75.8797 46.8171 76.2659 45.3389 76.3325 44.087L76.3725 43.1681L74.8143 43.1281C73.7489 43.1015 73.2428 43.1414 73.2428 43.2346C73.2428 43.3146 73.1895 43.3545 73.1362 43.3146C73.083 43.2879 72.2306 44.8727 71.2451 46.8438C70.2596 48.8148 69.4206 50.4263 69.3673 50.4263C69.3273 50.4263 68.3551 48.5085 67.2098 46.1513C65.8514 43.3678 65.0656 41.9029 64.9591 41.9428C64.8659 41.9695 64.7993 42.116 64.8259 42.2758C64.8526 42.4223 64.3731 43.5543 63.7738 44.7928C63.1745 46.0181 62.3089 47.8293 61.8294 48.8148C61.3633 49.787 60.9504 50.5595 60.9105 50.5328C60.8838 50.4929 61.7229 48.6816 62.8016 46.5108C63.867 44.3267 64.7194 42.4889 64.6927 42.4089C64.6661 42.3424 63.7472 44.1136 62.6684 46.351C61.5764 48.5884 60.6441 50.4263 60.6042 50.4263C60.5509 50.4263 59.7385 48.8548 58.7929 46.9503C57.8341 45.0326 56.9817 43.3811 56.8885 43.2879C56.742 43.1414 56.0495 43.1015 53.5724 43.1015H50.4294L50.5093 41.9295C50.8156 37.1218 53.9453 32.4605 58.3535 30.2365C61.0037 28.9047 63.9469 28.3586 66.6771 28.7182ZM65.292 32.0077C65.1189 32.0344 64.8526 32.0344 64.6927 32.0077C64.5196 31.9811 64.6528 31.9545 64.9857 31.9545C65.3187 31.9545 65.4519 31.9811 65.292 32.0077ZM65.1189 34.1785C65.1189 34.2451 65.0656 34.3117 64.9857 34.3117C64.9191 34.3117 64.8526 34.2451 64.8526 34.1785C64.8526 34.0986 64.9191 34.0454 64.9857 34.0454C65.0656 34.0454 65.1189 34.0986 65.1189 34.1785ZM57.035 39.7321C56.5689 39.7587 55.8231 39.7587 55.3703 39.7321C54.9041 39.7054 55.277 39.6921 56.196 39.6921C57.1149 39.6921 57.4878 39.7054 57.035 39.7321ZM58.5665 39.7321C58.4334 39.7587 58.2203 39.7587 58.1004 39.7321C57.9672 39.6921 58.0738 39.6655 58.3268 39.6655C58.5799 39.6655 58.6864 39.6921 58.5665 39.7321ZM59.7385 41.1171C60.138 41.9295 60.4577 42.622 60.431 42.6487C60.4044 42.6753 60.0448 42.0094 59.6187 41.1704C59.2058 40.3314 58.8862 39.6388 58.9261 39.6388C58.9661 39.6388 59.3257 40.3047 59.7385 41.1171ZM70.3528 41.1704C69.9266 42.0094 69.5671 42.6753 69.5404 42.6487C69.4872 42.5821 70.9521 39.6388 71.0453 39.6388C71.0853 39.6388 70.7657 40.3314 70.3528 41.1704ZM77.2115 39.7321C76.1328 39.7587 74.3348 39.7587 73.2161 39.7321C72.0975 39.7187 72.9764 39.6921 75.1739 39.6921C77.3713 39.6921 78.2902 39.7187 77.2115 39.7321ZM79.7552 41.2769C80.1414 43.9405 79.662 46.937 78.4234 49.5606C76.9451 52.7303 73.8421 55.6868 70.6591 56.952C69.5404 57.3915 67.6893 57.8843 67.2231 57.8709C67.0633 57.8709 67.343 57.7777 67.8491 57.6579C72.4437 56.6857 76.1594 53.7957 78.2636 49.5606C79.5421 47.0036 80.0349 43.8206 79.5821 41.0638C79.4888 40.4912 79.4622 40.0783 79.5155 40.1316C79.5554 40.1982 79.6753 40.7043 79.7552 41.2769ZM67.0633 46.2445C68.1287 48.4286 69.0344 50.3331 69.0743 50.4529C69.1143 50.5728 69.2208 50.7059 69.3273 50.7326C69.4605 50.7859 69.4605 50.7992 69.3007 50.7725C69.1675 50.7725 68.4351 49.4141 67.1832 46.8305C65.4385 43.2746 64.8526 41.9961 65.0523 42.1959C65.0923 42.2225 65.9979 44.047 67.0633 46.2445ZM55.1039 43.3279C54.2382 43.3545 52.8266 43.3545 51.9742 43.3279C51.1086 43.3146 51.8144 43.2879 53.5324 43.2879C55.2504 43.2879 55.9562 43.3146 55.1039 43.3279ZM75.347 43.3279C75.0007 43.3545 74.4014 43.3545 74.0152 43.3279C73.629 43.3012 73.9087 43.2879 74.6412 43.2879C75.3736 43.2879 75.6933 43.3012 75.347 43.3279ZM58.5799 46.9104C59.5387 48.8281 60.3245 50.4529 60.3112 50.5062C60.3112 50.6527 56.742 43.6209 56.742 43.4477C56.7287 43.2213 56.8219 43.4078 58.5799 46.9104ZM71.4848 47.0302C70.5126 48.9613 69.7002 50.5195 69.6736 50.5062C69.6203 50.4396 73.083 43.501 73.1762 43.501C73.2161 43.501 72.4437 45.0858 71.4848 47.0302ZM76.186 44.0604L76.1194 44.633L76.0395 44.1669C75.9596 43.6875 75.9863 43.501 76.1461 43.501C76.1993 43.501 76.2127 43.754 76.186 44.0604ZM75.7599 46.2578C74.6811 50.1066 71.5914 53.1032 67.6493 54.102C66.1843 54.4616 63.5474 54.4349 62.1624 54.0354C60.9238 53.6891 59.5387 53.0632 58.7264 52.5172C57.8207 51.8912 56.3558 50.4529 55.7698 49.5739C55.2238 48.7749 54.2649 46.8571 54.3714 46.7506C54.3981 46.7239 54.6111 47.1101 54.8242 47.6162C56.2093 50.7193 58.7663 52.93 62.149 53.9022C63.5075 54.3018 66.3042 54.3284 67.6493 53.9688C71.5647 52.9167 74.5879 50.0001 75.6267 46.2844C75.7732 45.7384 75.9197 45.1391 75.9197 44.9526C75.9463 44.6463 75.9463 44.6463 75.9996 44.926C76.0262 45.0858 75.9197 45.6851 75.7599 46.2578ZM54.4647 46.4975C54.4647 46.5242 53.6656 46.5375 52.7067 46.5242L50.9354 46.5108L52.5336 46.4442C53.9852 46.3777 54.4647 46.391 54.4647 46.4975ZM50.6957 46.5907C50.6158 46.8438 51.295 48.7482 51.8677 49.8802C53.7988 53.7291 57.8873 56.8588 61.9626 57.6179C62.4553 57.7111 62.8416 57.8177 62.8016 57.8443C62.6951 57.9508 60.8173 57.5114 59.8584 57.1518C56.2892 55.8067 53.4259 53.263 51.7345 49.8936C51.1618 48.7615 50.4427 46.7239 50.5492 46.5508C50.6558 46.3777 50.7623 46.4043 50.6957 46.5907ZM66.0512 58.0174C65.5717 58.0574 64.6794 58.0574 64.0535 58.0174C63.1212 57.9508 63.2811 57.9375 64.9191 57.9375C66.2642 57.9375 66.6371 57.9642 66.0512 58.0174Z" fill="#0076BD"/>
<path d="M65.1456 34.6979C65.3587 35.2839 69.0478 42.7019 69.0744 42.6087C69.1277 42.4622 65.3055 34.5781 65.1856 34.5781C65.1323 34.5781 65.119 34.6313 65.1456 34.6979Z" fill="#0076BD"/>
</svg>
