<svg width="40" height="41" viewBox="0 0 40 41" fill="none" xmlns="http://www.w3.org/2000/svg">
<path d="M17 14V27.2H20.6V38L29 23.6H24.2L29 14H17Z" fill="#A2B9DF"/>
<path d="M3.09716 39.4451C3.09571 40.2962 2.40662 40.9853 1.55549 40.9868C0.703884 40.9853 0.0152664 40.2962 0.01334 39.4451C0.0152664 38.7276 0.505692 38.1238 1.16971 37.9526V14.3497C1.16971 13.9287 1.32402 13.5564 1.62156 13.2594L12.2864 2.595L12.8318 3.1404L2.16695 13.8053C2.01409 13.9581 1.94079 14.1346 1.94079 14.3507V37.9526C2.60577 38.1248 3.09571 38.7276 3.09716 39.4451ZM30.6731 9.92722C31.015 9.92577 31.288 9.65283 31.2899 9.31045C31.288 8.96856 31.015 8.69562 30.6731 8.69369C30.3848 8.69562 30.1451 8.89044 30.0761 9.15711L14.332 9.15711C13.6048 9.16096 13.0252 9.74108 13.0208 10.4678V13.4282C13.0208 13.9803 12.5705 14.4307 12.0188 14.4307H8.68758C7.96087 14.4346 7.38124 15.0147 7.3769 15.7414V31.7522C7.11023 31.8212 6.91541 32.0603 6.91396 32.3487C6.91541 32.6906 7.18883 32.964 7.53073 32.9655C7.87263 32.964 8.14557 32.6906 8.14749 32.3487C8.14557 32.0603 7.95074 31.8212 7.68456 31.7522V15.7414C7.68456 15.1892 8.13496 14.7389 8.68662 14.7389H12.0178C12.7445 14.7345 13.3242 14.1549 13.3285 13.4282V10.4678C13.3285 9.91565 13.7789 9.46525 14.3311 9.46525L30.0761 9.46525C30.1451 9.73144 30.3848 9.92577 30.6731 9.92722ZM38.4447 4.07061C39.2958 4.06916 39.9849 3.38006 39.9868 2.52894C39.9849 1.67733 39.2958 0.988233 38.4447 0.986786C37.7271 0.988233 37.1239 1.47914 36.9522 2.14316L13.3762 2.14316C12.9553 2.14316 12.5835 2.29747 12.2859 2.595L12.8313 3.1404L12.841 3.13027C12.9924 2.98319 13.1655 2.91424 13.3762 2.91424L36.9522 2.91424C37.1248 3.57922 37.7271 4.06916 38.4447 4.07061Z" fill="#A2B9DF"/>
</svg>
