<svg width="40" height="40" viewBox="0 0 40 40" fill="none" xmlns="http://www.w3.org/2000/svg">
<path d="M36.8897 1.54167C36.8911 0.690548 37.5802 0.00144577 38.4313 0C39.2829 0.00144577 39.9715 0.690548 39.9735 1.54167C39.9715 2.25922 39.4811 2.86296 38.8171 3.03415V26.6371C38.8171 27.0581 38.6628 27.4303 38.3653 27.7274L27.7004 38.3918L27.155 37.8464L37.8199 27.1815C37.9727 27.0287 38.046 26.8522 38.046 26.6361V3.03415C37.381 2.862 36.8911 2.25922 36.8897 1.54167ZM9.31367 31.0596C8.97178 31.061 8.69884 31.334 8.69691 31.6763C8.69884 32.0182 8.97178 32.2912 9.31367 32.2931C9.60205 32.2912 9.84171 32.0963 9.91067 31.8297H25.6548C26.382 31.8258 26.9616 31.2457 26.966 30.519V27.5586C26.966 27.0065 27.4164 26.5561 27.968 26.5561H31.2992C32.0259 26.5522 32.6056 25.9721 32.6099 25.2454V9.23459C32.8766 9.16563 33.0714 8.92645 33.0729 8.63808C33.0714 8.29618 32.798 8.02276 32.4561 8.02131C32.1142 8.02276 31.8413 8.29618 31.8393 8.63808C31.8413 8.92645 32.0361 9.16563 32.3023 9.23459V25.2454C32.3023 25.7975 31.8519 26.2479 31.3002 26.2479H27.969C27.2423 26.2523 26.6626 26.8319 26.6583 27.5586V30.519C26.6583 31.0711 26.2079 31.5215 25.6558 31.5215H9.91067C9.84171 31.2554 9.60205 31.061 9.31367 31.0596ZM1.54215 36.9162C0.691027 36.9176 0.0019289 37.6067 0 38.4578C0.0019289 39.3095 0.691027 39.9986 1.54215 40C2.2597 39.9986 2.86296 39.5076 3.03464 38.8436H26.6106C27.0315 38.8436 27.4029 38.6893 27.7004 38.3918L27.155 37.8464L27.1458 37.8565C26.9944 38.0036 26.8213 38.0726 26.6106 38.0726H3.03464C2.862 37.4076 2.2597 36.9176 1.54215 36.9162Z" fill="#A2B9DF"/>
<path d="M22.6 15.2V5.6C22.6 4.64522 22.2207 3.72955 21.5456 3.05442C20.8705 2.37928 19.9548 2 19 2C18.0452 2 17.1295 2.37928 16.4544 3.05442C15.7793 3.72955 15.4 4.64522 15.4 5.6V15.2C14.3926 15.9556 13.6484 17.009 13.2729 18.211C12.8974 19.413 12.9097 20.7027 13.3079 21.8974C13.7061 23.092 14.4701 24.1311 15.4917 24.8675C16.5133 25.6038 17.7407 26 19 26C20.2593 26 21.4867 25.6038 22.5083 24.8675C23.5299 24.1311 24.2939 23.092 24.6921 21.8974C25.0903 20.7027 25.1026 19.413 24.7271 18.211C24.3516 17.009 23.6074 15.9556 22.6 15.2ZM19 4.4C19.3183 4.4 19.6235 4.52643 19.8485 4.75147C20.0736 4.97652 20.2 5.28174 20.2 5.6V9.2H17.8V5.6C17.8 5.28174 17.9264 4.97652 18.1515 4.75147C18.3765 4.52643 18.6817 4.4 19 4.4Z" fill="#A2B9DF"/>
<path d="M8.37648 8.26H11.8165V9.96H6.07648V8.36L8.35648 6.82C8.76982 6.54 9.07648 6.26667 9.27648 6C9.48982 5.72 9.59648 5.43333 9.59648 5.14C9.59648 4.9 9.52982 4.70667 9.39648 4.56C9.26315 4.41333 9.08982 4.34 8.87648 4.34C8.46315 4.34 8.22315 4.58667 8.15648 5.08H5.99648C6.03648 4.38667 6.32315 3.82667 6.85648 3.4C7.38982 2.97333 8.11648 2.76 9.03648 2.76C9.62315 2.76 10.1298 2.86667 10.5565 3.08C10.9832 3.29333 11.3032 3.57333 11.5165 3.92C11.7432 4.25333 11.8565 4.61333 11.8565 5C11.8565 5.48 11.6965 5.90667 11.3765 6.28C11.0565 6.64 10.5165 7.04 9.75648 7.48L8.37648 8.26Z" fill="#A2B9DF"/>
</svg>
