<svg width="40" height="40" viewBox="0 0 40 40" fill="none" xmlns="http://www.w3.org/2000/svg">
<path d="M3.08379 1.54167C3.08235 0.690548 2.39325 0.00144577 1.54213 0C0.690517 0.00144577 0.00190353 0.690548 -2.67029e-05 1.54167C0.00190353 2.25922 0.492325 2.86296 1.15635 3.03415V26.6371C1.15635 27.0581 1.31066 27.4303 1.60819 27.7274L12.2731 38.3918L12.8185 37.8464L2.15358 27.1815C2.00072 27.0287 1.92742 26.8522 1.92742 26.6361V3.03415C2.59241 2.862 3.08235 2.25922 3.08379 1.54167ZM30.6598 31.0596C31.0017 31.061 31.2746 31.334 31.2765 31.6763C31.2746 32.0182 31.0017 32.2912 30.6598 32.2931C30.3714 32.2912 30.1317 32.0963 30.0628 31.8297H14.3186C13.5915 31.8258 13.0118 31.2457 13.0075 30.519V27.5586C13.0075 27.0065 12.5571 26.5561 12.0054 26.5561H8.67422C7.94751 26.5522 7.36787 25.9721 7.36353 25.2454V9.23459C7.09686 9.16563 6.90204 8.92645 6.9006 8.63808C6.90204 8.29618 7.17546 8.02276 7.51736 8.02131C7.85926 8.02276 8.1322 8.29618 8.13413 8.63808C8.1322 8.92645 7.93738 9.16563 7.67119 9.23459V25.2454C7.67119 25.7975 8.12159 26.2479 8.67325 26.2479H12.0045C12.7312 26.2523 13.3108 26.8319 13.3151 27.5586V30.519C13.3151 31.0711 13.7655 31.5215 14.3177 31.5215H30.0628C30.1317 31.2554 30.3714 31.061 30.6598 31.0596ZM38.4313 36.9162C39.2824 36.9176 39.9715 37.6067 39.9734 38.4578C39.9715 39.3095 39.2824 39.9986 38.4313 40C37.7137 39.9986 37.1105 39.5076 36.9388 38.8436H13.3629C12.9419 38.8436 12.5706 38.6893 12.2731 38.3918L12.8185 37.8464L12.8276 37.8565C12.979 38.0036 13.1522 38.0726 13.3629 38.0726H36.9388C37.1114 37.4076 37.7137 36.9176 38.4313 36.9162Z" fill="#A2B9DF"/>
<path d="M17.3734 15.2V5.6C17.3734 4.64522 17.7527 3.72955 18.4279 3.05442C19.103 2.37928 20.0187 2 20.9734 2C21.9282 2 22.8439 2.37928 23.519 3.05442C24.1942 3.72955 24.5734 4.64522 24.5734 5.6V15.2C25.5809 15.9556 26.3251 17.009 26.7005 18.211C27.076 19.413 27.0638 20.7027 26.6655 21.8974C26.2673 23.092 25.5033 24.1311 24.4817 24.8675C23.4601 25.6038 22.2327 26 20.9734 26C19.7142 26 18.4868 25.6038 17.4652 24.8675C16.4436 24.1311 15.6796 23.092 15.2814 21.8974C14.8831 20.7027 14.8709 19.413 15.2464 18.211C15.6218 17.009 16.366 15.9556 17.3734 15.2ZM20.9734 4.4C20.6552 4.4 20.35 4.52643 20.1249 4.75147C19.8999 4.97652 19.7734 5.28174 19.7734 5.6V9.2H22.1734V5.6C22.1734 5.28174 22.047 4.97652 21.822 4.75147C21.5969 4.52643 21.2917 4.4 20.9734 4.4Z" fill="#A2B9DF"/>
<path d="M27.6246 4.56V2.92H30.9046V9.96H28.7646V4.56H27.6246Z" fill="#A2B9DF"/>
</svg>
