<svg width="40" height="40" viewBox="0 0 40 40" fill="none" xmlns="http://www.w3.org/2000/svg">
<path d="M22.0133 16.9868V12.9868H20.0133V16.9868H16.0133V12.9868H14.0133V16.9868C13.0133 16.9868 12.0133 17.9868 12.0133 18.9868V24.4868L15.5133 27.9868V30.9868H20.5133V27.9868L24.0133 24.4868V18.9868C24.0133 17.9868 23.0133 16.9868 22.0133 16.9868Z" fill="#A2B9DF"/>
<path d="M1.54167 3.08382C0.690548 3.08238 0.00144577 2.39328 0 1.54216C0.00144577 0.690548 0.690548 0.00193405 1.54167 3.8147e-06C2.25922 0.00193405 2.86296 0.492355 3.03415 1.15638L26.6371 1.15638C27.0581 1.15638 27.4303 1.31069 27.7274 1.60822L38.3918 12.2731L37.8464 12.8185L27.1815 2.15361C27.0287 2.00075 26.8522 1.92745 26.6361 1.92745L3.03415 1.92745C2.862 2.59244 2.25922 3.08238 1.54167 3.08382ZM31.0596 30.6598C31.061 31.0017 31.334 31.2746 31.6763 31.2766C32.0182 31.2746 32.2912 31.0017 32.2931 30.6598C32.2912 30.3714 32.0963 30.1318 31.8297 30.0628L31.8297 14.3187C31.8258 13.5915 31.2457 13.0119 30.519 13.0075H27.5586C27.0065 13.0075 26.5561 12.5571 26.5561 12.0055V8.67425C26.5522 7.94754 25.9721 7.3679 25.2454 7.36356H9.23459C9.16563 7.09689 8.92645 6.90207 8.63808 6.90063C8.29618 6.90207 8.02276 7.1755 8.02131 7.51739C8.02276 7.85929 8.29618 8.13223 8.63808 8.13416C8.92645 8.13223 9.16563 7.93741 9.23459 7.67122H25.2454C25.7975 7.67122 26.2479 8.12162 26.2479 8.67328V12.0045C26.2523 12.7312 26.8319 13.3108 27.5586 13.3152H30.519C31.0711 13.3152 31.5215 13.7656 31.5215 14.3177L31.5215 30.0628C31.2554 30.1318 31.061 30.3714 31.0596 30.6598ZM36.9162 38.4313C36.9176 39.2825 37.6067 39.9716 38.4578 39.9735C39.3095 39.9716 39.9986 39.2825 40 38.4313C39.9986 37.7138 39.5076 37.1105 38.8436 36.9388L38.8436 13.3629C38.8436 12.9419 38.6893 12.5706 38.3918 12.2731L37.8464 12.8185L37.8565 12.8276C38.0036 12.9791 38.0726 13.1522 38.0726 13.3629L38.0726 36.9388C37.4076 37.1115 36.9176 37.7138 36.9162 38.4313Z" fill="#A2B9DF"/>
</svg>
