<svg xmlns="http://www.w3.org/2000/svg" xmlns:xlink="http://www.w3.org/1999/xlink" width="445" zoomAndPan="magnify" viewBox="0 0 333.75 135.000003" height="180" preserveAspectRatio="xMidYMid meet" version="1.0"><defs><filter x="0%" y="0%" width="100%" height="100%" id="0f976a07b0"><feColorMatrix values="0 0 0 0 1 0 0 0 0 1 0 0 0 0 1 0 0 0 1 0" color-interpolation-filters="sRGB"/></filter><g/><mask id="cd80ed7244"><g filter="url(#0f976a07b0)"><rect x="-33.375" width="400.5" fill="#000000" y="-13.5" height="162.000004" fill-opacity="0.64"/></g></mask><clipPath id="04263bfe66"><path d="M 0.726562 13 L 75 13 L 75 15 L 0.726562 15 Z M 0.726562 13 " clip-rule="nonzero"/></clipPath><clipPath id="0cd28c7f7c"><path d="M 0.726562 23 L 75 23 L 75 25 L 0.726562 25 Z M 0.726562 23 " clip-rule="nonzero"/></clipPath><clipPath id="0dfee401a0"><path d="M 0.726562 34 L 44 34 L 44 36 L 0.726562 36 Z M 0.726562 34 " clip-rule="nonzero"/></clipPath><clipPath id="6f83ec672e"><path d="M 133 42 L 139 42 L 139 47.875 L 133 47.875 Z M 133 42 " clip-rule="nonzero"/></clipPath><clipPath id="fb23b73fe6"><path d="M 143 32 L 148.730469 32 L 148.730469 38 L 143 38 Z M 143 32 " clip-rule="nonzero"/></clipPath><clipPath id="532f198787"><path d="M 73 42 L 79 42 L 79 47.875 L 73 47.875 Z M 73 42 " clip-rule="nonzero"/></clipPath><clipPath id="21c81913be"><rect x="0" width="149" y="0" height="48"/></clipPath></defs><g mask="url(#cd80ed7244)"><g transform="matrix(1, 0, 0, 1, 32, 66)"><g clip-path="url(#21c81913be)"><path fill="#a2b9df" d="M 104.675781 4.09375 L 73.636719 4.09375 C 73.363281 4.09375 73.144531 3.871094 73.144531 3.597656 C 73.144531 3.324219 73.363281 3.105469 73.636719 3.105469 L 104.675781 3.105469 C 104.949219 3.105469 105.171875 3.324219 105.171875 3.597656 C 105.171875 3.871094 104.949219 4.09375 104.675781 4.09375 Z M 104.675781 4.09375 " fill-opacity="1" fill-rule="nonzero"/><path fill="#a2b9df" d="M 73.988281 3.949219 L 63.640625 14.292969 C 63.449219 14.488281 63.136719 14.488281 62.941406 14.292969 C 62.75 14.101562 62.75 13.789062 62.941406 13.59375 L 73.289062 3.25 C 73.480469 3.054688 73.792969 3.054688 73.988281 3.25 C 74.179688 3.441406 74.179688 3.753906 73.988281 3.949219 Z M 73.988281 3.949219 " fill-opacity="1" fill-rule="nonzero"/><g clip-path="url(#04263bfe66)"><path fill="#a2b9df" d="M 1.214844 13.449219 L 73.636719 13.449219 C 73.910156 13.449219 74.132812 13.671875 74.132812 13.945312 C 74.132812 14.21875 73.910156 14.441406 73.636719 14.441406 L 1.214844 14.441406 C 0.941406 14.441406 0.722656 14.21875 0.722656 13.945312 C 0.722656 13.671875 0.941406 13.449219 1.214844 13.449219 Z M 1.214844 13.449219 " fill-opacity="1" fill-rule="nonzero"/></g><path fill="#a2b9df" d="M 73.988281 13.59375 L 94.679688 34.289062 C 94.871094 34.480469 94.871094 34.792969 94.679688 34.988281 C 94.488281 35.179688 94.171875 35.179688 93.980469 34.988281 L 73.289062 14.292969 C 73.09375 14.101562 73.09375 13.789062 73.289062 13.59375 C 73.480469 13.402344 73.792969 13.402344 73.988281 13.59375 Z M 73.988281 13.59375 " fill-opacity="1" fill-rule="nonzero"/><path fill="#a2b9df" d="M 94.328125 34.140625 L 115.023438 34.140625 C 115.296875 34.140625 115.515625 34.363281 115.515625 34.636719 C 115.515625 34.910156 115.296875 35.132812 115.023438 35.132812 L 94.328125 35.132812 C 94.054688 35.132812 93.835938 34.910156 93.835938 34.636719 C 93.835938 34.363281 94.054688 34.140625 94.328125 34.140625 Z M 94.328125 34.140625 " fill-opacity="1" fill-rule="nonzero"/><path fill="#a2b9df" d="M 83.632812 23.941406 L 93.980469 13.59375 C 94.171875 13.402344 94.488281 13.402344 94.679688 13.59375 C 94.871094 13.789062 94.871094 14.101562 94.679688 14.292969 L 84.332031 24.640625 C 84.140625 24.835938 83.828125 24.835938 83.632812 24.640625 C 83.441406 24.449219 83.441406 24.132812 83.632812 23.941406 Z M 83.632812 23.941406 " fill-opacity="1" fill-rule="nonzero"/><path fill="#a2b9df" d="M 94.328125 13.449219 L 125.367188 13.449219 C 125.640625 13.449219 125.863281 13.671875 125.863281 13.945312 C 125.863281 14.21875 125.640625 14.441406 125.367188 14.441406 L 94.328125 14.441406 C 94.054688 14.441406 93.835938 14.21875 93.835938 13.945312 C 93.835938 13.671875 94.054688 13.449219 94.328125 13.449219 Z M 94.328125 13.449219 " fill-opacity="1" fill-rule="nonzero"/><g clip-path="url(#0cd28c7f7c)"><path fill="#a2b9df" d="M 1.214844 23.796875 L 73.636719 23.796875 C 73.910156 23.796875 74.132812 24.019531 74.132812 24.292969 C 74.132812 24.5625 73.910156 24.785156 73.636719 24.785156 L 1.214844 24.785156 C 0.941406 24.785156 0.722656 24.5625 0.722656 24.289062 C 0.722656 24.019531 0.941406 23.796875 1.214844 23.796875 Z M 1.214844 23.796875 " fill-opacity="1" fill-rule="nonzero"/></g><path fill="#a2b9df" d="M 73.988281 23.941406 L 94.679688 44.632812 C 94.871094 44.828125 94.871094 45.140625 94.679688 45.332031 C 94.488281 45.527344 94.171875 45.527344 93.980469 45.332031 L 73.289062 24.640625 C 73.09375 24.449219 73.09375 24.132812 73.289062 23.941406 C 73.480469 23.746094 73.792969 23.746094 73.988281 23.941406 Z M 73.988281 23.941406 " fill-opacity="1" fill-rule="nonzero"/><path fill="#a2b9df" d="M 94.328125 44.488281 L 135.714844 44.488281 C 135.988281 44.488281 136.207031 44.710938 136.207031 44.984375 C 136.207031 45.257812 135.988281 45.476562 135.714844 45.476562 L 94.328125 45.476562 C 94.054688 45.476562 93.835938 45.257812 93.835938 44.984375 C 93.835938 44.710938 94.054688 44.488281 94.328125 44.488281 Z M 94.328125 44.488281 " fill-opacity="1" fill-rule="nonzero"/><path fill="#a2b9df" d="M 114.671875 44.632812 L 125.019531 34.285156 C 125.210938 34.09375 125.523438 34.09375 125.71875 34.285156 C 125.910156 34.480469 125.910156 34.792969 125.71875 34.988281 L 115.371094 45.332031 C 115.179688 45.527344 114.863281 45.527344 114.671875 45.332031 C 114.480469 45.140625 114.480469 44.828125 114.671875 44.632812 Z M 114.671875 44.632812 " fill-opacity="1" fill-rule="nonzero"/><path fill="#a2b9df" d="M 125.367188 34.140625 L 146.058594 34.140625 C 146.332031 34.140625 146.554688 34.363281 146.554688 34.636719 C 146.554688 34.910156 146.332031 35.132812 146.058594 35.132812 L 125.367188 35.132812 C 125.09375 35.132812 124.871094 34.910156 124.871094 34.636719 C 124.871094 34.363281 125.09375 34.140625 125.367188 34.140625 Z M 125.367188 34.140625 " fill-opacity="1" fill-rule="nonzero"/><g clip-path="url(#0dfee401a0)"><path fill="#a2b9df" d="M 1.214844 34.140625 L 42.601562 34.140625 C 42.875 34.140625 43.09375 34.363281 43.09375 34.636719 C 43.09375 34.910156 42.875 35.132812 42.601562 35.132812 L 1.214844 35.132812 C 0.941406 35.132812 0.722656 34.910156 0.722656 34.636719 C 0.722656 34.363281 0.941406 34.140625 1.214844 34.140625 Z M 1.214844 34.140625 " fill-opacity="1" fill-rule="nonzero"/></g><path fill="#a2b9df" d="M 42.949219 34.289062 L 53.296875 44.632812 C 53.488281 44.828125 53.488281 45.140625 53.296875 45.332031 C 53.101562 45.527344 52.789062 45.527344 52.597656 45.332031 L 42.25 34.988281 C 42.058594 34.792969 42.058594 34.480469 42.25 34.289062 C 42.445312 34.09375 42.757812 34.09375 42.949219 34.289062 Z M 42.949219 34.289062 " fill-opacity="1" fill-rule="nonzero"/><path fill="#a2b9df" d="M 52.945312 44.488281 L 73.636719 44.488281 C 73.910156 44.488281 74.132812 44.710938 74.132812 44.984375 C 74.132812 45.257812 73.910156 45.476562 73.636719 45.476562 L 52.945312 45.476562 C 52.671875 45.476562 52.449219 45.257812 52.453125 44.984375 C 52.449219 44.710938 52.671875 44.488281 52.945312 44.488281 Z M 52.945312 44.488281 " fill-opacity="1" fill-rule="nonzero"/><path fill="#a2b9df" d="M 127.792969 14.09375 C 127.710938 15.433594 126.558594 16.453125 125.21875 16.371094 C 123.878906 16.289062 122.859375 15.136719 122.941406 13.796875 C 123.023438 12.457031 124.175781 11.4375 125.515625 11.519531 C 126.855469 11.601562 127.875 12.753906 127.792969 14.09375 Z M 127.792969 14.09375 " fill-opacity="1" fill-rule="nonzero"/><path fill="#a2b9df" d="M 117.449219 34.785156 C 117.367188 36.125 116.210938 37.144531 114.871094 37.0625 C 113.53125 36.980469 112.511719 35.828125 112.59375 34.488281 C 112.675781 33.148438 113.832031 32.128906 115.171875 32.210938 C 116.511719 32.292969 117.53125 33.445312 117.449219 34.785156 Z M 117.449219 34.785156 " fill-opacity="1" fill-rule="nonzero"/><g clip-path="url(#6f83ec672e)"><path fill="#a2b9df" d="M 138.140625 45.132812 C 138.058594 46.472656 136.90625 47.492188 135.5625 47.410156 C 134.222656 47.328125 133.203125 46.175781 133.285156 44.832031 C 133.371094 43.492188 134.523438 42.472656 135.863281 42.554688 C 137.203125 42.636719 138.222656 43.792969 138.140625 45.132812 Z M 138.140625 45.132812 " fill-opacity="1" fill-rule="nonzero"/></g><g clip-path="url(#fb23b73fe6)"><path fill="#a2b9df" d="M 148.488281 34.785156 L 148.484375 34.785156 C 148.402344 36.125 147.25 37.144531 145.910156 37.0625 C 144.570312 36.980469 143.550781 35.828125 143.632812 34.488281 C 143.714844 33.148438 144.867188 32.128906 146.207031 32.210938 C 147.550781 32.292969 148.570312 33.445312 148.488281 34.785156 Z M 148.488281 34.785156 " fill-opacity="1" fill-rule="nonzero"/></g><path fill="#a2b9df" d="M 109.890625 3.910156 C 109.785156 5.355469 108.53125 6.441406 107.089844 6.339844 C 105.644531 6.238281 104.554688 4.984375 104.660156 3.539062 C 104.761719 2.09375 106.015625 1.007812 107.460938 1.109375 C 108.902344 1.210938 109.992188 2.464844 109.890625 3.910156 M 108.847656 3.835938 C 108.910156 2.96875 108.253906 2.210938 107.386719 2.152344 C 106.515625 2.089844 105.761719 2.742188 105.699219 3.613281 C 105.636719 4.484375 106.292969 5.238281 107.164062 5.300781 C 108.03125 5.359375 108.785156 4.707031 108.847656 3.835938 Z M 108.847656 3.835938 " fill-opacity="1" fill-rule="nonzero"/><g clip-path="url(#532f198787)"><path fill="#a2b9df" d="M 78.753906 45.296875 C 78.652344 46.742188 77.398438 47.832031 75.953125 47.726562 C 74.511719 47.625 73.421875 46.371094 73.523438 44.925781 C 73.628906 43.484375 74.882812 42.394531 76.324219 42.496094 C 77.769531 42.601562 78.859375 43.855469 78.753906 45.296875 M 77.714844 45.226562 C 77.777344 44.355469 77.121094 43.601562 76.253906 43.539062 C 75.382812 43.476562 74.628906 44.132812 74.566406 45 C 74.503906 45.871094 75.160156 46.625 76.027344 46.6875 C 76.898438 46.75 77.652344 46.09375 77.714844 45.226562 Z M 77.714844 45.226562 " fill-opacity="1" fill-rule="nonzero"/></g></g></g></g><g fill="#a2b9df" fill-opacity="1"><g transform="translate(32.739909, 87.461816)"><g><path d="M 2.078125 -20.84375 C 2.078125 -24.925781 3 -28.585938 4.84375 -31.828125 C 6.695312 -35.066406 9.21875 -37.585938 12.40625 -39.390625 C 15.601562 -41.191406 19.1875 -42.09375 23.15625 -42.09375 C 27.800781 -42.09375 31.867188 -40.898438 35.359375 -38.515625 C 38.859375 -36.140625 41.300781 -32.847656 42.6875 -28.640625 L 33.109375 -28.640625 C 32.148438 -30.628906 30.804688 -32.117188 29.078125 -33.109375 C 27.359375 -34.097656 25.367188 -34.59375 23.109375 -34.59375 C 20.679688 -34.59375 18.523438 -34.023438 16.640625 -32.890625 C 14.753906 -31.765625 13.285156 -30.171875 12.234375 -28.109375 C 11.179688 -26.046875 10.65625 -23.625 10.65625 -20.84375 C 10.65625 -18.101562 11.179688 -15.691406 12.234375 -13.609375 C 13.285156 -11.523438 14.753906 -9.914062 16.640625 -8.78125 C 18.523438 -7.65625 20.679688 -7.09375 23.109375 -7.09375 C 25.367188 -7.09375 27.359375 -7.597656 29.078125 -8.609375 C 30.804688 -9.617188 32.148438 -11.113281 33.109375 -13.09375 L 42.6875 -13.09375 C 41.300781 -8.851562 38.867188 -5.550781 35.390625 -3.1875 C 31.921875 -0.820312 27.84375 0.359375 23.15625 0.359375 C 19.1875 0.359375 15.601562 -0.539062 12.40625 -2.34375 C 9.21875 -4.15625 6.695312 -6.664062 4.84375 -9.875 C 3 -13.09375 2.078125 -16.75 2.078125 -20.84375 Z M 2.078125 -20.84375 "/></g></g></g><g fill="#a2b9df" fill-opacity="1"><g transform="translate(78.47218, 87.461816)"><g><path d="M 23.40625 0.421875 C 19.507812 0.421875 15.929688 -0.488281 12.671875 -2.3125 C 9.421875 -4.144531 6.84375 -6.675781 4.9375 -9.90625 C 3.03125 -13.144531 2.078125 -16.8125 2.078125 -20.90625 C 2.078125 -24.945312 3.03125 -28.585938 4.9375 -31.828125 C 6.84375 -35.066406 9.421875 -37.597656 12.671875 -39.421875 C 15.929688 -41.242188 19.507812 -42.15625 23.40625 -42.15625 C 27.332031 -42.15625 30.910156 -41.242188 34.140625 -39.421875 C 37.378906 -37.597656 39.941406 -35.066406 41.828125 -31.828125 C 43.710938 -28.585938 44.65625 -24.945312 44.65625 -20.90625 C 44.65625 -16.8125 43.710938 -13.144531 41.828125 -9.90625 C 39.941406 -6.675781 37.367188 -4.144531 34.109375 -2.3125 C 30.859375 -0.488281 27.289062 0.421875 23.40625 0.421875 Z M 23.40625 -7.03125 C 25.90625 -7.03125 28.109375 -7.59375 30.015625 -8.71875 C 31.921875 -9.851562 33.40625 -11.472656 34.46875 -13.578125 C 35.539062 -15.679688 36.078125 -18.125 36.078125 -20.90625 C 36.078125 -23.675781 35.539062 -26.101562 34.46875 -28.1875 C 33.40625 -30.28125 31.921875 -31.878906 30.015625 -32.984375 C 28.109375 -34.097656 25.90625 -34.65625 23.40625 -34.65625 C 20.90625 -34.65625 18.691406 -34.097656 16.765625 -32.984375 C 14.835938 -31.878906 13.335938 -30.28125 12.265625 -28.1875 C 11.191406 -26.101562 10.65625 -23.675781 10.65625 -20.90625 C 10.65625 -18.125 11.191406 -15.679688 12.265625 -13.578125 C 13.335938 -11.472656 14.835938 -9.851562 16.765625 -8.71875 C 18.691406 -7.59375 20.90625 -7.03125 23.40625 -7.03125 Z M 23.40625 -7.03125 "/></g></g></g><g fill="#a2b9df" fill-opacity="1"><g transform="translate(125.216759, 87.461816)"><g><path d="M 25.546875 0 L 16.375 -16.203125 L 12.4375 -16.203125 L 12.4375 0 L 4.109375 0 L 4.109375 -41.5625 L 19.703125 -41.5625 C 22.921875 -41.5625 25.660156 -40.992188 27.921875 -39.859375 C 30.191406 -38.734375 31.890625 -37.207031 33.015625 -35.28125 C 34.148438 -33.351562 34.71875 -31.203125 34.71875 -28.828125 C 34.71875 -26.085938 33.921875 -23.613281 32.328125 -21.40625 C 30.742188 -19.207031 28.382812 -17.691406 25.25 -16.859375 L 35.1875 0 Z M 12.4375 -22.453125 L 19.40625 -22.453125 C 21.675781 -22.453125 23.363281 -22.992188 24.46875 -24.078125 C 25.582031 -25.171875 26.140625 -26.691406 26.140625 -28.640625 C 26.140625 -30.546875 25.582031 -32.023438 24.46875 -33.078125 C 23.363281 -34.128906 21.675781 -34.65625 19.40625 -34.65625 L 12.4375 -34.65625 Z M 12.4375 -22.453125 "/></g></g></g><g fill="#a2b9df" fill-opacity="1"><g transform="translate(163.386534, 87.461816)"><g/></g></g><g fill="#a2b9df" fill-opacity="1"><g transform="translate(177.55878, 87.461816)"><g><path d="M 38.59375 -41.5625 L 38.59375 0 L 30.25 0 L 30.25 -17.6875 L 12.4375 -17.6875 L 12.4375 0 L 4.109375 0 L 4.109375 -41.5625 L 12.4375 -41.5625 L 12.4375 -24.46875 L 30.25 -24.46875 L 30.25 -41.5625 Z M 38.59375 -41.5625 "/></g></g></g><g fill="#a2b9df" fill-opacity="1"><g transform="translate(220.25414, 87.461816)"><g><path d="M 12.328125 -41.5625 L 12.328125 -15.84375 C 12.328125 -13.019531 13.0625 -10.863281 14.53125 -9.375 C 16 -7.882812 18.0625 -7.140625 20.71875 -7.140625 C 23.414062 -7.140625 25.5 -7.882812 26.96875 -9.375 C 28.4375 -10.863281 29.171875 -13.019531 29.171875 -15.84375 L 29.171875 -41.5625 L 37.578125 -41.5625 L 37.578125 -15.90625 C 37.578125 -12.363281 36.8125 -9.375 35.28125 -6.9375 C 33.75 -4.5 31.703125 -2.660156 29.140625 -1.421875 C 26.585938 -0.191406 23.742188 0.421875 20.609375 0.421875 C 17.503906 0.421875 14.691406 -0.191406 12.171875 -1.421875 C 9.648438 -2.660156 7.65625 -4.5 6.1875 -6.9375 C 4.71875 -9.375 3.984375 -12.363281 3.984375 -15.90625 L 3.984375 -41.5625 Z M 12.328125 -41.5625 "/></g></g></g><g fill="#a2b9df" fill-opacity="1"><g transform="translate(261.758559, 87.461816)"><g><path d="M 27.6875 -21.3125 C 30.03125 -20.875 31.957031 -19.703125 33.46875 -17.796875 C 34.976562 -15.898438 35.734375 -13.71875 35.734375 -11.25 C 35.734375 -9.03125 35.1875 -7.078125 34.09375 -5.390625 C 33 -3.703125 31.421875 -2.378906 29.359375 -1.421875 C 27.296875 -0.472656 24.851562 0 22.03125 0 L 4.109375 0 L 4.109375 -41.5625 L 21.265625 -41.5625 C 24.078125 -41.5625 26.503906 -41.101562 28.546875 -40.1875 C 30.597656 -39.28125 32.148438 -38.007812 33.203125 -36.375 C 34.253906 -34.75 34.78125 -32.90625 34.78125 -30.84375 C 34.78125 -28.425781 34.132812 -26.398438 32.84375 -24.765625 C 31.550781 -23.140625 29.832031 -21.988281 27.6875 -21.3125 Z M 12.4375 -24.421875 L 20.0625 -24.421875 C 22.050781 -24.421875 23.582031 -24.863281 24.65625 -25.75 C 25.726562 -26.644531 26.265625 -27.925781 26.265625 -29.59375 C 26.265625 -31.257812 25.726562 -32.546875 24.65625 -33.453125 C 23.582031 -34.367188 22.050781 -34.828125 20.0625 -34.828125 L 12.4375 -34.828125 Z M 20.84375 -6.78125 C 22.863281 -6.78125 24.4375 -7.253906 25.5625 -8.203125 C 26.695312 -9.160156 27.265625 -10.515625 27.265625 -12.265625 C 27.265625 -14.054688 26.671875 -15.457031 25.484375 -16.46875 C 24.296875 -17.476562 22.6875 -17.984375 20.65625 -17.984375 L 12.4375 -17.984375 L 12.4375 -6.78125 Z M 20.84375 -6.78125 "/></g></g></g></svg>