<svg width="40" height="40" viewBox="0 0 40 40" fill="none" xmlns="http://www.w3.org/2000/svg">
<path d="M17 3V16.2H20.6V27L29 12.6H24.2L29 3H17Z" fill="#A2B9DF"/>
<path d="M38.4583 36.8897C39.3095 36.8911 39.9986 37.5802 40 38.4313C39.9986 39.2829 39.3095 39.9715 38.4583 39.9735C37.7408 39.9715 37.137 39.4811 36.9658 38.8171H13.3629C12.9419 38.8171 12.5697 38.6628 12.2726 38.3653L1.60822 27.7004L2.15361 27.155L12.8185 37.8199C12.9713 37.9727 13.1478 38.046 13.3639 38.046H36.9658C37.138 37.381 37.7408 36.8911 38.4583 36.8897ZM8.94043 9.31367C8.93899 8.97178 8.66605 8.69884 8.32367 8.69691C7.98177 8.69884 7.70883 8.97178 7.7069 9.31367C7.70883 9.60205 7.90365 9.84171 8.17032 9.91067V25.6548C8.17418 26.382 8.75429 26.9616 9.48101 26.966H12.4414C12.9935 26.966 13.4439 27.4164 13.4439 27.968V31.2992C13.4478 32.0259 14.0279 32.6056 14.7546 32.6099H30.7654C30.8344 32.8766 31.0736 33.0714 31.3619 33.0729C31.7038 33.0714 31.9772 32.798 31.9787 32.4561C31.9772 32.1142 31.7038 31.8413 31.3619 31.8393C31.0736 31.8413 30.8344 32.0361 30.7654 32.3023H14.7546C14.2025 32.3023 13.7521 31.8519 13.7521 31.3002V27.969C13.7477 27.2423 13.1681 26.6626 12.4414 26.6583H9.48101C8.92886 26.6583 8.47846 26.2079 8.47846 25.6558V9.91067C8.74465 9.84171 8.93899 9.60205 8.94043 9.31367ZM3.08382 1.54215C3.08238 0.691027 2.39328 0.0019289 1.54215 0C0.690545 0.0019289 0.00144668 0.691027 0 1.54215C0.00144668 2.2597 0.492351 2.86296 1.15637 3.03464V26.6106C1.15637 27.0315 1.31068 27.4033 1.60822 27.7009L2.15361 27.1555L2.14349 27.1458C1.99641 26.9944 1.92745 26.8213 1.92745 26.6106V3.03464C2.59244 2.862 3.08238 2.2597 3.08382 1.54215Z" fill="#A2B9DF"/>
</svg>
